<?xml version="1.0" standalone="no"?>
<!DOCTYPE svg PUBLIC "-//W3C//DTD SVG 20010904//EN"
 "http://www.w3.org/TR/2001/REC-SVG-20010904/DTD/svg10.dtd">
<svg version="1.0" xmlns="http://www.w3.org/2000/svg"
 width="300.000000pt" height="121.000000pt" viewBox="0 0 300.000000 121.000000"
 preserveAspectRatio="xMidYMid meet">
<metadata>
Created by potrace 1.10, written by Peter Selinger 2001-2011
</metadata>
<g transform="translate(0.000000,121.000000) scale(0.050000,-0.050000)"
fill="#18c55e" stroke="none">
<path d="M0 1210 l0 -1210 3000 0 3000 0 0 1210 0 1210 -3000 0 -3000 0 0
-1210z m1681 265 l1 -105 44 58 c106 141 124 156 181 149 l56 -7 -83 -115 -83
-115 92 -120 c109 -144 108 -140 25 -140 -56 0 -77 16 -145 105 l-79 105 -6
-105 c-5 -89 -12 -105 -45 -105 -37 0 -39 16 -39 250 0 237 2 250 40 250 35 0
40 -14 41 -105z m555 0 c80 -217 128 -378 116 -390 -23 -23 -51 25 -110 186
l-58 158 -29 -69 c-16 -39 -44 -117 -63 -175 -30 -89 -92 -148 -92 -87 0 39
166 482 181 482 9 0 34 -47 55 -105z m779 70 c6 -18 -21 -25 -93 -25 l-102 0
0 -80 0 -80 92 0 c120 0 110 -46 -14 -60 -48 -5 -86 -17 -83 -25 3 -8 5 -43 5
-78 l0 -62 170 9 c154 8 170 5 170 -28 0 -32 -20 -36 -199 -36 l-200 0 -5 215
-6 215 -105 6 -105 6 0 -223 c0 -309 -47 -303 -56 8 l-5 213 -70 0 c-66 0 -85
17 -55 47 26 26 652 5 661 -22z m243 -137 l120 -172 6 165 c10 282 56 234 56
-59 0 -290 -4 -291 -159 -69 l-121 174 0 -134 c0 -105 -6 -133 -30 -133 -31 0
-47 357 -17 387 21 20 18 24 145 -159z m479 160 c277 -56 215 -468 -70 -468
l-107 0 0 229 c0 221 1 228 45 237 25 5 51 10 58 11 6 2 40 -3 74 -9z m483
-18 c0 -23 -24 -30 -100 -30 l-100 0 0 -190 0 -190 100 0 c76 0 100 -7 100
-30 0 -23 -27 -30 -120 -30 l-120 0 0 250 0 250 120 0 c93 0 120 -7 120 -30z
m-20 -221 c0 -24 -18 -30 -73 -25 -106 9 -113 56 -9 56 61 0 82 -8 82 -31z
m-2031 -328 c6 -10 -9 -21 -34 -25 -65 -9 -76 -97 -11 -94 25 0 35 6 21 11
-35 14 -31 47 5 47 38 0 40 -78 2 -92 -43 -16 -112 28 -112 71 0 70 98 132
129 82z m176 -51 c8 54 9 53 12 -15 3 -82 -23 -97 -62 -35 -34 54 -51 50 -61
-15 -4 -31 -9 -12 -10 45 l-3 100 58 -70 57 -69 9 59z m-607 14 c26 -50 -9
-104 -69 -104 -43 0 -49 9 -49 70 0 80 81 103 118 34z m97 22 c-19 -5 -35 -17
-35 -27 0 -11 16 -20 35 -21 33 -3 33 -3 0 -12 -19 -5 -35 -17 -35 -26 0 -9
16 -21 35 -26 26 -7 24 -10 -10 -12 -39 -2 -45 8 -45 68 0 60 6 70 45 68 34
-2 36 -5 10 -12z m107 -4 c-24 -16 -23 -24 5 -52 41 -41 10 -95 -43 -75 -28
11 -26 15 13 24 l47 11 -42 38 c-45 41 -39 72 14 72 28 -1 29 -4 6 -18z m592
-22 c-6 -22 -2 -40 8 -40 35 0 17 -55 -21 -66 -45 -11 -96 34 -62 55 12 8 21
4 21 -8 0 -11 10 -21 23 -21 14 0 10 15 -10 37 -45 50 -41 83 9 83 33 0 40 -9
32 -40z m181 26 c-19 -5 -35 -17 -35 -27 0 -11 16 -20 35 -21 33 -3 33 -3 0
-12 -19 -5 -35 -17 -35 -26 0 -9 16 -21 35 -26 26 -7 24 -10 -10 -12 -39 -2
-45 8 -45 68 0 60 6 70 45 68 34 -2 36 -5 10 -12z m165 -29 c0 23 9 43 20 43
11 0 20 -31 20 -70 0 -80 -18 -87 -72 -28 l-38 42 -13 -47 c-10 -37 -13 -30
-15 31 l-2 79 50 -47 50 -47 0 44z m165 26 c-14 -9 -30 -37 -35 -62 -14 -71
-30 -75 -30 -6 0 34 -11 66 -25 72 -14 5 7 10 45 11 43 1 60 -5 45 -15z m125
-33 c0 -22 7 -51 16 -65 10 -15 7 -25 -5 -25 -12 0 -27 14 -34 30 -15 40 -42
38 -53 -5 -5 -19 -10 -1 -12 41 -2 69 3 76 43 70 30 -4 45 -20 45 -46z m105
36 c-19 -5 -35 -17 -35 -27 0 -11 16 -20 35 -21 33 -3 33 -3 0 -12 -19 -5 -35
-17 -35 -26 0 -9 16 -21 35 -26 26 -7 24 -10 -10 -12 -39 -2 -45 8 -45 68 0
60 6 70 45 68 34 -2 36 -5 10 -12z m150 1 c-14 -6 -25 -37 -25 -69 0 -32 -9
-58 -20 -58 -11 0 -20 26 -20 58 0 32 -11 63 -25 69 -14 5 7 10 45 10 39 0 59
-5 45 -10z m75 -57 c0 -38 -9 -70 -20 -70 -11 0 -20 32 -20 70 0 39 9 70 20
70 11 0 20 -31 20 -70z m75 56 c-50 -13 -43 -45 10 -49 l45 -2 -45 -9 c-25 -5
-45 -17 -45 -26 0 -9 20 -21 45 -26 39 -7 37 -9 -10 -11 -50 -3 -55 3 -55 67
0 60 6 70 45 68 34 -2 36 -5 10 -12z m197 -121 c-15 -15 -92 55 -92 82 0 13 9
12 24 -3 36 -36 56 -29 59 21 2 26 7 16 12 -22 4 -37 3 -72 -3 -78z m225 84
l40 -51 9 56 c6 44 9 39 11 -22 l3 -79 -50 47 -50 47 0 -45 c0 -24 -9 -39 -20
-32 -25 16 -26 130 -1 130 10 0 36 -23 58 -51z m193 33 c-42 -9 -60 -24 -60
-52 0 -28 17 -43 60 -51 52 -9 54 -12 18 -22 -59 -16 -108 16 -108 71 0 60 15
72 88 70 l62 -3 -60 -13z"/>
<path d="M3630 1417 c-23 -189 -8 -266 53 -273 203 -24 226 327 24 368 l-64
12 -13 -107z"/>
<path d="M1640 930 c0 -54 67 -73 85 -25 15 41 -6 75 -47 75 -27 0 -38 -14
-38 -50z"/>
</g>
</svg>
