<?xml version="1.0" standalone="no"?>
<!DOCTYPE svg PUBLIC "-//W3C//DTD SVG 20010904//EN"
 "http://www.w3.org/TR/2001/REC-SVG-20010904/DTD/svg10.dtd">
<svg version="1.0" xmlns="http://www.w3.org/2000/svg"
 width="900.000000pt" height="363.000000pt" viewBox="0 0 900.000000 363.000000"
 preserveAspectRatio="xMidYMid meet">
<metadata>
Created by potrace 1.10, written by Peter Selinger 2001-2011
</metadata>
<g transform="translate(0.000000,363.000000) scale(0.100000,-0.100000)"
fill="#18c55e" stroke="none">
<path d="M3075 3396 c-5 -3 -32 -7 -58 -11 -33 -4 -59 -16 -84 -38 -63 -56
-64 -59 -63 -455 1 -196 -2 -365 -6 -375 -7 -20 -63 -51 -110 -61 -16 -4 -52
-22 -79 -41 -27 -19 -54 -35 -61 -35 -8 0 -28 13 -47 30 -58 50 -122 64 -175
36 -42 -22 -101 -89 -112 -127 -6 -19 -10 -171 -10 -345 l0 -311 31 -58 c28
-53 30 -62 20 -95 -18 -60 -13 -189 8 -235 20 -46 70 -92 108 -101 13 -4 50
-3 81 1 32 4 71 7 87 6 220 -11 224 -11 245 -38 19 -25 20 -40 20 -366 0 -374
7 -450 47 -498 50 -59 70 -64 273 -64 166 0 189 2 215 19 39 25 76 71 98 120
l18 40 27 -40 27 -39 7 50 c3 28 7 231 7 452 1 234 5 412 11 427 13 34 32 33
53 -3 22 -37 80 -65 116 -56 46 12 81 8 95 -10 8 -11 15 -14 19 -8 4 6 1 16
-7 22 -8 7 -12 21 -9 31 3 12 0 20 -7 20 -6 0 -23 9 -37 20 -32 25 -44 25 -73
0 -30 -26 -40 -25 -78 8 -40 36 -40 63 -2 96 30 24 30 26 15 50 -35 54 19 109
88 90 28 -8 32 -15 35 -46 2 -27 -2 -41 -19 -57 -30 -28 -17 -38 23 -18 42 20
50 14 31 -24 -14 -29 -14 -33 6 -60 11 -15 21 -34 21 -41 0 -7 15 -19 33 -27
17 -8 51 -23 74 -34 39 -19 48 -19 115 -8 40 7 92 17 115 23 35 8 49 7 77 -6
32 -15 38 -15 75 0 26 10 53 14 74 10 17 -4 46 -6 62 -5 17 1 39 2 50 2 39 -1
53 36 62 168 l8 124 53 0 c45 -1 57 -5 73 -25 23 -31 24 -58 2 -82 -15 -17
-14 -21 15 -62 31 -43 41 -80 24 -90 -11 -6 -62 41 -62 57 -1 7 -10 23 -20 36
-25 29 -49 22 -43 -13 8 -38 -4 -74 -28 -81 -59 -19 33 -42 240 -59 51 -5 92
9 112 37 4 5 16 4 27 -2 30 -16 83 -14 103 5 12 11 23 13 36 6 79 -39 97 -45
155 -45 110 0 178 10 196 27 12 10 36 16 70 16 30 0 52 4 52 11 0 11 -45 76
-65 94 -6 6 -21 27 -34 48 -13 21 -26 35 -30 32 -3 -4 -6 -41 -6 -83 0 -70 -2
-77 -20 -77 -19 0 -20 7 -20 125 0 157 8 162 90 61 31 -39 61 -71 67 -71 7 0
8 21 3 65 -7 64 -7 64 25 83 17 11 41 39 52 62 23 45 43 59 60 42 8 -8 5 -38
-12 -111 -23 -97 -40 -115 -40 -44 0 17 -5 35 -11 38 -7 5 -10 -27 -8 -106 2
-130 -7 -222 -27 -261 -8 -15 -14 -36 -14 -48 0 -11 -4 -20 -10 -20 -5 0 -10
-5 -10 -11 0 -16 -42 -101 -57 -117 -7 -7 -13 -17 -13 -22 0 -14 -90 -141
-134 -189 -22 -24 -63 -65 -90 -90 -27 -25 -58 -54 -68 -63 -10 -10 -21 -18
-24 -18 -3 0 -23 -13 -43 -29 -75 -59 -277 -161 -318 -161 -11 0 -23 -4 -28
-9 -9 -9 -36 -15 -160 -40 -172 -34 -324 -36 -760 -12 -204 11 -345 4 -308
-17 65 -36 881 -66 958 -35 17 7 70 17 120 23 89 11 224 51 320 94 28 13 66
29 85 37 19 7 54 26 76 41 23 15 45 28 49 28 12 0 107 81 186 160 83 81 185
226 235 330 75 157 107 220 113 220 95 6 373 -4 479 -16 47 -5 72 -3 100 9 20
8 52 18 71 21 42 7 81 44 81 76 0 25 -17 46 -72 92 l-28 23 19 41 c16 35 17
44 5 65 -19 34 -17 64 6 109 12 24 18 49 14 63 -3 13 -34 53 -70 88 -35 35
-64 68 -64 74 0 6 19 29 41 50 79 76 82 117 14 199 -19 24 -35 49 -35 56 0 7
27 41 60 77 33 35 60 70 60 79 0 51 -80 145 -137 161 -36 10 -280 10 -315 0
-15 -4 -48 -25 -73 -47 -25 -22 -56 -40 -67 -40 -46 0 -94 73 -169 255 -18 44
-48 101 -66 126 -18 26 -33 51 -33 57 0 26 -196 240 -255 278 -35 22 -40 26
-82 59 -57 46 -306 154 -356 155 -10 0 -32 7 -50 16 -17 9 -65 21 -107 25
-229 27 -284 29 -590 19 -349 -12 -488 -23 -521 -40 -52 -28 9 -30 441 -14
107 5 251 8 320 8 132 1 354 -19 381 -34 9 -4 38 -12 65 -15 27 -4 54 -11 59
-15 6 -4 23 -10 39 -14 16 -4 58 -20 92 -37 35 -16 65 -29 68 -29 6 0 159 -91
166 -99 3 -3 28 -24 55 -45 64 -50 112 -102 183 -196 68 -90 72 -96 114 -180
39 -79 54 -119 73 -188 27 -98 18 -112 -44 -63 -48 38 -127 50 -229 36 -45 -7
-55 -13 -73 -41 -29 -48 -77 -45 -141 7 -53 44 -57 45 -100 23 -53 -27 -107
-100 -108 -144 -1 -62 -48 -65 -88 -6 -39 58 -114 125 -158 142 -41 16 -43 15
-86 -10 -53 -31 -93 -34 -108 -7 -15 28 -12 51 5 51 8 0 15 7 15 15 0 21 -11
18 -39 -10 -25 -27 -41 -31 -57 -15 -13 13 -567 15 -590 2 -13 -7 -26 -6 -46
4 -32 16 -74 12 -151 -14 -37 -13 -50 -13 -60 -3 -9 9 -13 117 -18 434 -3 232
-7 424 -7 426 -5 10 -32 -24 -32 -39 0 -9 -3 -19 -6 -23 -7 -7 -54 46 -54 61
0 6 -11 24 -25 40 -41 49 -93 63 -245 68 -74 2 -139 2 -145 0z m347 -83 c2 -5
1 -260 -2 -568 -7 -576 -14 -672 -40 -529 -21 120 -70 194 -127 194 -29 0
-118 -80 -126 -113 -3 -12 -14 -47 -25 -77 -11 -30 -41 -145 -67 -255 -26
-110 -49 -209 -53 -220 -17 -57 -23 113 -28 813 l-6 762 236 0 c129 0 236 -3
238 -7z m-489 -962 c8 -8 5 -19 -12 -42 -12 -16 -37 -51 -54 -77 -17 -26 -37
-51 -44 -55 -7 -4 -13 -15 -13 -22 0 -8 -4 -15 -9 -15 -5 0 -12 -8 -16 -19 -3
-10 -26 -39 -50 -65 -25 -25 -45 -50 -45 -55 0 -5 20 -29 43 -53 24 -24 52
-57 62 -73 11 -17 39 -56 62 -87 24 -31 43 -60 43 -65 0 -16 70 -84 80 -78 6
3 10 17 10 31 0 13 5 24 10 24 6 0 10 8 10 18 0 9 7 30 15 45 8 15 19 42 24
60 5 18 19 57 31 87 12 30 24 64 27 75 3 11 11 34 19 52 8 17 14 37 14 45 0 7
7 22 15 32 8 11 15 28 15 37 0 10 7 30 15 46 8 15 22 56 32 91 19 68 45 95 68
70 6 -7 20 -40 30 -73 10 -33 21 -64 25 -70 4 -5 11 -25 15 -42 3 -18 13 -33
20 -33 7 0 15 -16 18 -37 9 -67 27 -137 37 -147 6 -6 10 -19 10 -31 0 -12 7
-30 15 -41 8 -10 15 -28 15 -40 0 -11 7 -29 15 -40 8 -10 15 -28 15 -40 0 -11
7 -29 15 -40 8 -10 15 -26 15 -34 0 -8 6 -27 14 -42 17 -33 13 -38 -32 -38
-41 0 -72 24 -72 56 0 12 -7 29 -15 38 -8 8 -15 20 -15 26 0 7 -6 26 -14 43
-8 18 -24 61 -35 97 -12 36 -25 74 -30 85 -14 33 -40 128 -46 168 -8 51 -31
48 -45 -5 -21 -80 -43 -153 -51 -173 -12 -29 -39 -107 -46 -130 -3 -11 -11
-34 -19 -52 -8 -17 -14 -38 -14 -46 0 -9 -4 -18 -9 -21 -5 -4 -12 -24 -16 -46
-4 -22 -12 -41 -18 -41 -47 -5 -307 -5 -314 0 -5 3 -30 35 -55 71 -26 36 -52
70 -58 77 -5 7 -10 14 -10 17 0 3 -13 25 -30 49 -16 25 -30 50 -30 56 0 6 -4
11 -10 11 -5 0 -10 6 -10 14 0 8 -5 18 -11 22 -26 16 -30 -16 -21 -152 5 -76
8 -144 5 -151 -4 -9 -27 -13 -74 -13 l-69 0 2 373 3 372 62 3 c51 2 63 0 71
-15 6 -11 6 -68 0 -147 -7 -106 -6 -132 5 -144 12 -11 19 -4 47 50 18 35 37
69 43 77 12 14 32 47 43 71 4 8 10 17 14 20 3 3 17 23 30 45 13 22 28 43 32
46 15 10 189 2 201 -10z m1579 -5 c4 -6 8 -25 8 -43 0 -43 -15 -46 -174 -42
l-131 4 0 -115 0 -115 131 4 c148 4 154 1 146 -66 l-5 -36 -133 6 c-134 7
-134 7 -150 -17 -14 -23 -14 -27 1 -49 12 -19 15 -44 13 -99 l-3 -73 209 -2
c167 -2 213 0 225 11 25 22 60 29 76 16 10 -8 15 -31 15 -66 l0 -54 -310 0
-310 0 1 319 c1 176 -1 323 -4 328 -3 4 -74 8 -158 8 l-152 0 2 -326 c3 -359
6 -340 -62 -331 l-38 4 2 327 2 326 -105 -4 c-117 -3 -124 1 -112 63 l5 32
502 1 c365 0 504 -2 509 -11z m225 -41 c48 -74 51 -78 146 -206 48 -66 87
-122 87 -124 0 -3 14 -24 30 -47 17 -22 30 -46 30 -52 1 -6 11 -24 24 -40 31
-37 41 -20 26 45 -7 29 -13 137 -14 262 l-1 212 48 3 48 3 -2 -371 c-1 -229
-5 -373 -11 -376 -11 -7 -58 15 -58 28 0 6 -46 73 -79 114 -5 6 -29 40 -53 75
-58 85 -92 133 -98 139 -15 15 -69 102 -89 143 -12 26 -27 47 -33 47 -6 0 -7
-65 -3 -193 8 -218 6 -226 -57 -209 l-33 8 -3 298 -2 297 32 -3 c27 -2 39 -12
65 -53z m1598 25 c4 -16 3 -39 0 -51 -7 -21 -11 -22 -145 -17 -76 3 -144 2
-150 -2 -13 -8 -17 -531 -4 -551 4 -7 52 -10 143 -9 75 1 142 2 149 1 9 -1 12
-14 10 -43 l-3 -43 -198 0 -199 0 1 363 c0 200 2 366 5 370 2 4 90 8 194 9
l191 2 6 -29z m-645 -5 c8 -8 37 -33 63 -56 53 -47 74 -85 93 -169 29 -127 2
-289 -59 -355 -11 -11 -26 -30 -34 -42 -19 -28 -85 -60 -150 -72 -64 -13 -253
-2 -259 14 -3 6 -6 163 -7 348 -2 331 -2 338 18 342 81 18 312 11 335 -10z
m-1142 -173 c4 -27 -35 -47 -73 -38 -20 5 -26 12 -23 29 2 16 12 24 38 28 47
8 54 6 58 -19z m-909 4 c8 -9 11 -93 11 -269 -1 -212 2 -262 15 -286 20 -40
19 -64 -5 -86 -11 -10 -20 -26 -20 -36 0 -24 -20 -35 -31 -18 -5 8 -8 77 -7
154 2 77 -1 203 -6 280 -13 214 2 310 43 261z m367 -28 c4 -7 7 -45 5 -85 -1
-45 3 -80 11 -92 10 -17 10 -25 1 -41 -11 -17 -10 -21 8 -31 l21 -11 -21 -22
c-20 -21 -21 -31 -16 -128 l5 -104 -53 -45 c-72 -62 -75 -64 -98 -43 -22 20
-25 50 -6 57 32 12 48 110 52 312 2 159 6 200 19 220 18 27 59 34 72 13z
m2298 -94 c19 -7 21 -53 3 -78 -12 -16 -27 -17 -125 -14 -122 3 -135 9 -130
58 3 23 7 25 73 31 108 9 162 10 179 3z m-1783 -192 c-6 -11 -25 -22 -45 -25
-39 -6 -96 5 -79 16 13 8 127 35 131 31 2 -1 -1 -11 -7 -22z m-141 -27 c0 -8
-6 -15 -14 -15 -17 0 -28 14 -19 24 12 12 33 6 33 -9z m-1088 -22 c9 -10 25
-39 37 -65 15 -33 28 -48 40 -48 24 0 31 -19 38 -102 4 -44 2 -72 -6 -81 -13
-16 8 -66 46 -107 13 -14 23 -28 23 -32 0 -5 5 -8 10 -8 6 0 10 31 10 73 0 77
12 106 37 86 15 -13 19 -224 4 -248 -7 -11 -13 -10 -35 4 -14 10 -26 20 -26
24 0 4 -15 22 -32 41 -18 19 -43 48 -55 64 l-23 30 0 -51 c0 -61 9 -91 21 -72
29 47 38 -80 41 -559 l3 -452 -237 0 -238 0 0 423 c0 308 4 449 14 522 10 66
13 140 9 223 -5 105 -4 124 8 120 8 -3 16 -13 18 -23 2 -10 9 -25 16 -32 10
-10 14 -48 13 -145 0 -116 2 -133 18 -145 46 -34 173 -44 223 -19 15 8 38 12
49 9 13 -3 22 -1 22 6 0 6 -7 11 -15 11 -13 0 -15 21 -15 129 0 71 3 136 6
145 8 21 24 20 40 -1 9 -12 13 -14 14 -5 0 25 -29 44 -58 38 -18 -4 -37 0 -57
14 -16 11 -39 20 -51 20 -11 0 -28 6 -39 13 -17 13 -17 15 3 53 11 21 26 56
32 76 13 43 46 88 64 88 7 0 20 -8 28 -17z m1613 -62 c18 -16 39 -31 47 -34
30 -12 -18 -28 -74 -24 -67 4 -77 10 -55 35 10 10 17 26 17 35 0 26 29 20 65
-12z m105 -106 c31 -19 -49 -50 -117 -46 -81 6 -117 36 -63 53 28 8 164 3 180
-7z m278 -12 c2 -8 -5 -13 -15 -13 -11 0 -24 -5 -31 -12 -9 -9 -16 -9 -28 4
-9 9 -13 21 -9 28 9 15 77 9 83 -7z m-2073 -94 c4 -5 18 -14 32 -20 16 -6 23
-15 21 -27 -3 -13 -14 -17 -53 -18 -81 -2 -84 -3 -100 -35 -21 -39 -6 -94 28
-103 41 -11 77 -7 77 9 0 8 -6 15 -13 15 -7 0 -18 5 -25 12 -19 19 4 48 38 48
36 0 50 -23 50 -80 0 -33 -4 -43 -20 -47 -11 -3 -20 -9 -20 -14 0 -4 -16 -11
-35 -15 -26 -5 -43 -1 -71 16 -71 44 -94 126 -54 192 32 54 127 98 145 67z
m-300 -15 c37 -24 32 -44 -10 -44 -28 0 -35 -4 -35 -20 0 -10 9 -24 21 -30 25
-14 78 -71 79 -85 0 -20 -74 -75 -102 -75 -15 0 -28 5 -28 10 0 6 -11 10 -24
10 -14 0 -28 -4 -31 -10 -8 -14 -112 -13 -121 1 -5 9 -9 159 -5 232 1 16 9 18
64 15 55 -3 62 -5 65 -25 3 -19 -2 -22 -40 -25 -36 -2 -44 -7 -46 -25 -3 -20
1 -23 28 -23 17 0 40 -5 51 -11 31 -16 5 -39 -43 -39 -35 0 -39 -2 -36 -22 3
-22 7 -23 101 -24 54 0 100 3 103 8 3 5 -17 30 -45 55 -61 55 -65 81 -18 117
38 30 40 31 72 10z m1189 -6 c15 -24 -5 -42 -47 -43 -25 0 -33 -5 -35 -22 -3
-20 1 -23 30 -23 42 0 63 -13 55 -34 -4 -11 -19 -16 -47 -16 -37 0 -41 -2 -38
-22 2 -19 11 -24 53 -29 31 -4 53 -2 57 5 4 6 8 48 8 92 0 57 4 85 14 93 13
11 46 6 46 -8 0 -3 14 -22 31 -41 17 -19 38 -45 46 -57 25 -37 33 -27 33 41 0
71 15 88 54 63 17 -12 22 -12 36 2 21 23 175 18 184 -6 8 -21 -13 -45 -33 -38
-32 9 -38 -8 -37 -105 l1 -95 -30 0 -30 0 1 98 c1 53 -1 97 -5 98 -33 4 -48 7
-61 10 -13 3 -15 -14 -18 -103 -2 -99 -4 -108 -22 -108 -11 0 -24 6 -30 13
-38 45 -56 67 -82 104 -17 23 -35 40 -41 36 -5 -3 -6 -31 -3 -67 7 -73 -3 -97
-34 -78 -24 15 -50 16 -50 2 0 -6 -28 -10 -64 -10 -49 0 -65 4 -70 16 -12 31
-7 229 6 242 19 19 108 11 122 -10z m834 10 c31 -31 2 -62 -53 -55 -15 1 -20
-4 -20 -22 0 -22 4 -25 40 -25 33 -1 40 -4 40 -21 0 -16 -8 -21 -42 -23 -39
-3 -43 -6 -43 -29 0 -24 2 -25 38 -19 49 7 78 -11 68 -42 -7 -20 -14 -22 -72
-22 -60 0 -65 2 -74 26 -13 34 -13 200 0 225 8 15 21 19 58 19 27 0 53 -5 60
-12z m216 -7 c11 -10 19 -10 34 0 16 10 23 10 36 0 13 -11 16 -35 16 -116 0
-120 -4 -135 -36 -135 -27 0 -27 -2 -28 125 -1 75 -4 89 -16 86 -14 -3 -44 -8
-64 -10 -5 -1 -6 -42 -2 -94 7 -101 -1 -125 -40 -110 -31 11 -34 24 -27 116 5
70 3 87 -8 88 -8 1 -18 2 -24 4 -5 1 -16 3 -22 3 -15 2 -17 34 -3 48 14 14
166 10 184 -5z m241 -1 c22 -25 10 -42 -32 -45 -50 -3 -53 -5 -53 -25 0 -12 7
-20 18 -21 9 -1 24 -2 32 -3 8 -2 23 -3 33 -4 21 -2 23 -28 1 -36 -9 -3 -31
-6 -50 -6 -27 0 -34 -4 -34 -19 0 -23 19 -31 71 -31 31 0 39 -4 39 -17 0 -37
-15 -44 -81 -41 l-64 3 0 125 0 125 30 6 c53 12 72 9 90 -11z m445 -100 c2
-154 2 -150 -18 -150 -29 0 -37 37 -32 148 4 76 9 105 20 112 8 5 18 6 22 2 4
-4 7 -54 8 -112z m468 111 c9 -5 25 -12 35 -15 12 -4 17 -14 15 -28 -2 -18 -9
-22 -28 -21 -94 9 -109 7 -129 -11 -31 -28 -28 -79 6 -106 22 -17 35 -20 68
-14 22 3 46 11 53 17 15 12 17 10 26 -20 6 -17 0 -27 -31 -47 -47 -32 -78 -33
-124 -2 -92 62 -88 192 6 240 35 17 78 20 103 7z m-3725 -32 c58 -61 60 -117
7 -182 -35 -44 -146 -62 -182 -30 -26 23 -27 203 -1 228 27 27 145 16 176 -16z
m3345 13 c23 -24 85 -101 95 -118 19 -33 30 -13 25 49 -3 34 -3 68 -1 75 5 14
35 16 49 2 9 -9 9 -202 0 -227 -11 -27 -43 -11 -80 38 -51 69 -69 89 -78 89
-5 0 -8 -32 -8 -70 0 -75 -14 -96 -45 -70 -13 10 -15 35 -14 119 2 128 16 155
57 113z m522 -212 c0 -39 -1 -40 -35 -40 -40 0 -51 15 -41 55 5 21 12 25 41
25 34 0 35 -1 35 -40z"/>
<path d="M2532 1999 c2 -18 9 -34 16 -37 10 -3 13 5 10 29 -2 18 -9 34 -16 37
-10 3 -13 -5 -10 -29z"/>
<path d="M5455 2260 c-19 -7 -20 -17 -20 -274 1 -217 4 -269 15 -276 8 -5 37
-6 64 -4 150 14 212 69 241 210 26 123 1 218 -77 290 -47 43 -171 73 -223 54z
m129 -116 c20 -8 11 -24 -15 -24 -19 0 -25 11 -12 23 8 8 8 8 27 1z m38 -91
c34 -36 42 -71 29 -119 -13 -43 -52 -94 -74 -94 -31 0 -41 30 -38 117 1 48 7
95 12 105 14 26 41 22 71 -9z"/>
<path d="M2458 1453 c-2 -4 -3 -37 -3 -73 l1 -65 44 2 c29 2 49 8 57 20 19 25
16 77 -4 95 -20 18 -90 33 -95 21z"/>
<path d="M4915 3041 c-6 -11 9 -23 19 -14 9 9 7 23 -3 23 -6 0 -12 -4 -16 -9z"/>
<path d="M4645 2651 c-6 -11 9 -23 19 -14 9 9 7 23 -3 23 -6 0 -12 -4 -16 -9z"/>
<path d="M4585 2561 c-6 -11 9 -23 19 -14 9 9 7 23 -3 23 -6 0 -12 -4 -16 -9z"/>
<path d="M3742 1451 c-10 -6 -10 -10 1 -20 12 -9 16 -8 20 3 7 19 -4 27 -21
17z"/>
<path d="M4663 1453 c-21 -8 -15 -40 8 -46 22 -6 35 13 25 38 -6 15 -12 17
-33 8z"/>
<path d="M3716 1353 c-3 -4 -6 -15 -6 -25 0 -14 6 -19 22 -16 12 2 23 8 25 13
4 12 -32 36 -41 28z"/>
</g>
</svg>
