<?xml version="1.0" standalone="no"?>
<!DOCTYPE svg PUBLIC "-//W3C//DTD SVG 20010904//EN"
 "http://www.w3.org/TR/2001/REC-SVG-20010904/DTD/svg10.dtd">
<svg version="1.0" xmlns="http://www.w3.org/2000/svg"
 width="900.000000pt" height="363.000000pt" viewBox="0 0 900.000000 363.000000"
 preserveAspectRatio="xMidYMid meet">
<metadata>
Created by potrace 1.10, written by Peter Selinger 2001-2011
</metadata>
<g transform="translate(0.000000,363.000000) scale(0.100000,-0.100000)"
fill="#18c55e" stroke="none">
<path d="M0 1815 l0 -1815 4500 0 4500 0 0 1815 0 1815 -4500 0 -4500 0 0
-1815z m3308 495 c12 -28 22 -54 22 -59 0 -5 7 -22 15 -37 8 -16 15 -36 15
-44 0 -9 4 -20 9 -25 9 -9 17 -35 41 -135 4 -19 14 -51 20 -70 26 -73 42 -116
56 -148 8 -18 14 -39 14 -46 0 -8 7 -27 15 -42 8 -16 15 -41 15 -56 0 -24 -4
-28 -27 -28 -29 0 -63 25 -63 47 0 8 -9 31 -19 51 -27 52 -51 108 -51 121 0 6
-4 19 -9 29 -5 9 -19 46 -31 82 -12 36 -29 79 -36 97 -8 17 -14 40 -14 52 0
23 -14 28 -27 9 -4 -7 -19 -48 -34 -90 -14 -43 -29 -81 -32 -85 -4 -3 -7 -13
-7 -21 0 -8 -6 -28 -14 -45 -7 -18 -24 -61 -36 -97 -12 -36 -26 -74 -31 -85
-5 -11 -13 -33 -19 -48 -9 -26 -14 -28 -52 -25 -41 3 -43 4 -41 33 1 17 7 39
12 50 5 11 19 49 31 85 12 36 26 74 30 85 21 53 70 192 70 199 0 4 6 22 14 39
7 18 24 61 36 97 12 36 29 79 36 97 8 17 14 36 14 41 0 6 6 13 13 15 31 13 44
5 65 -43z m1837 33 c15 -15 17 -49 15 -332 -3 -368 -4 -381 -34 -381 -20 0
-52 36 -116 131 -8 12 -42 59 -75 105 -33 45 -67 92 -75 105 -8 12 -33 47 -56
78 -22 31 -43 65 -47 75 -16 42 -21 -3 -19 -167 2 -196 -3 -214 -55 -203 l-30
7 -6 187 c-10 262 -9 360 3 383 21 37 47 22 110 -63 116 -157 205 -283 245
-345 66 -103 69 -96 61 160 -4 122 -4 230 0 240 6 16 34 34 56 36 4 1 14 -6
23 -16z m-2635 -12 c5 -11 10 -76 10 -145 0 -69 4 -126 8 -126 15 0 75 78 137
178 12 19 26 39 41 55 6 7 16 22 23 35 11 20 19 22 101 22 53 0 90 -4 90 -10
0 -5 -19 -36 -42 -69 -24 -32 -50 -68 -58 -81 -8 -12 -19 -28 -25 -34 -5 -6
-23 -30 -38 -52 -15 -23 -39 -52 -52 -64 -31 -29 -31 -46 -2 -75 28 -28 67
-75 67 -81 0 -7 156 -210 180 -234 13 -13 18 -25 12 -29 -5 -3 -54 -4 -108 -3
l-99 4 -60 84 c-33 47 -68 94 -77 106 -10 12 -18 24 -18 28 0 3 -13 21 -29 39
-49 55 -56 41 -53 -97 4 -154 -1 -164 -71 -160 l-52 3 -3 350 c-1 192 0 356 3
362 3 8 23 13 54 13 39 0 53 -4 61 -19z m1995 -14 c16 -48 -8 -57 -156 -57
l-126 0 -7 -31 c-11 -56 -7 -177 7 -186 6 -4 49 -6 94 -4 98 4 159 -5 167 -25
3 -8 1 -25 -4 -39 -9 -25 -11 -25 -126 -25 -154 0 -152 2 -146 -133 3 -59 9
-105 16 -109 6 -4 100 -8 208 -8 162 0 199 3 212 15 8 8 28 18 44 21 40 8 54
-17 44 -77 l-8 -44 -291 -3 c-275 -2 -293 -1 -302 16 -6 11 -10 141 -10 316 0
163 -3 301 -6 307 -4 5 -73 9 -156 9 l-149 0 0 -306 c0 -191 -4 -313 -10 -325
-12 -22 -38 -25 -64 -6 -21 16 -23 42 -25 408 l-1 226 -102 9 c-97 8 -103 10
-106 32 -8 53 -19 52 507 50 l486 -3 10 -28z m1097 22 c58 -9 81 -18 122 -50
76 -57 107 -111 125 -218 23 -129 -11 -264 -86 -348 -65 -73 -99 -85 -249 -90
-88 -4 -138 -1 -153 6 -21 12 -21 14 -21 351 l0 340 23 5 c70 15 156 17 239 4z
m718 -14 c19 -51 9 -55 -134 -55 -72 0 -137 -4 -144 -8 -9 -7 -12 -70 -10
-283 l3 -274 140 -5 140 -5 3 -38 3 -37 -183 2 -183 3 -3 349 c-2 249 1 353 9
362 9 11 50 14 180 14 l169 0 10 -25z m-23 -311 c3 -8 1 -26 -5 -40 -11 -23
-16 -24 -107 -24 -53 0 -105 5 -116 10 -18 10 -26 50 -12 63 3 4 57 7 120 7
94 0 115 -3 120 -16z m-3063 -512 c16 -10 28 -21 27 -25 0 -4 -1 -12 -1 -18 0
-8 -16 -10 -50 -5 -60 8 -84 -3 -98 -44 -22 -61 9 -100 81 -100 32 0 37 25 7
33 -24 6 -27 42 -4 51 48 19 74 -5 74 -68 0 -30 -6 -40 -32 -56 -42 -26 -78
-25 -123 1 -89 53 -85 181 7 231 41 21 75 21 112 0z m-216 -4 c14 -14 17 -205
3 -227 -5 -8 -16 -11 -25 -8 -13 5 -16 25 -16 120 0 127 7 146 38 115z m343
-1 c8 -7 32 -37 52 -67 77 -115 84 -115 89 -5 2 39 8 70 13 70 13 0 19 -205 6
-218 -7 -7 -34 14 -83 62 l-73 73 -3 -53 c-3 -74 -10 -99 -26 -99 -21 0 -26
24 -26 129 0 112 12 138 51 108z m-784 -26 c33 -24 48 -81 33 -122 -7 -19 -22
-41 -34 -50 -24 -19 -143 -32 -152 -17 -10 15 -11 192 -2 205 12 16 127 4 155
-16z m196 20 c5 -1 7 -7 5 -13 -3 -7 -22 -15 -44 -18 -34 -4 -39 -8 -39 -30 0
-22 5 -26 45 -30 25 -3 45 -9 45 -15 0 -5 -20 -12 -45 -15 -40 -4 -45 -8 -45
-30 0 -22 5 -26 39 -30 22 -3 41 -11 44 -17 2 -7 0 -13 -5 -14 -56 -5 -90 -3
-100 4 -17 13 -18 204 -1 209 10 4 31 3 101 -1z m141 3 c9 -3 16 -13 16 -21 0
-11 -7 -13 -24 -9 -32 8 -52 -15 -36 -43 6 -12 15 -21 20 -21 11 0 70 -62 70
-73 0 -12 -32 -43 -57 -56 -18 -9 -29 -8 -53 4 -36 19 -31 37 8 29 15 -3 35 1
45 8 18 13 16 17 -32 65 -28 28 -51 58 -51 65 0 8 9 24 20 36 21 22 45 27 74
16z m884 -9 c13 -12 4 -69 -13 -81 -10 -8 -15 -20 -11 -29 5 -13 10 -14 27 -5
11 7 22 10 24 8 8 -9 11 -99 4 -104 -5 -3 -17 -1 -26 5 -12 6 -26 5 -46 -6
-38 -19 -73 -10 -91 25 -14 26 -13 30 11 61 22 28 24 36 14 57 -15 34 -14 41
10 65 17 17 29 20 56 16 20 -4 38 -9 41 -12z m300 -7 c3 -15 -4 -18 -36 -18
-28 0 -42 -5 -46 -16 -9 -25 12 -44 50 -44 59 0 53 -30 -7 -34 -65 -5 -63 -56
3 -56 32 0 39 -3 36 -17 -3 -15 -14 -18 -58 -18 l-55 0 -3 99 c-1 55 0 106 3
113 8 22 109 13 113 -9z m131 -35 c28 -31 51 -61 51 -65 0 -4 9 -8 20 -8 18 0
20 7 20 60 0 57 1 60 25 60 24 0 25 -2 25 -67 0 -92 -10 -144 -28 -150 -14 -6
-48 27 -109 104 -14 18 -29 30 -34 27 -5 -3 -9 -31 -9 -63 0 -63 -6 -77 -27
-60 -9 8 -13 40 -13 109 0 133 5 136 79 53z m349 35 c3 -14 -3 -18 -26 -18
-38 0 -50 -16 -50 -65 1 -103 -1 -115 -22 -115 -17 0 -19 8 -22 88 -3 87 -3
87 -30 90 -20 2 -28 9 -28 23 0 18 6 20 87 17 74 -3 88 -6 91 -20z m157 -4
c29 -31 31 -47 10 -64 -18 -15 -19 -44 -2 -62 17 -18 41 -67 36 -73 -8 -7 -49
7 -49 17 0 18 -44 68 -61 68 -14 0 -19 -10 -21 -42 -2 -30 -8 -43 -18 -43 -12
0 -16 19 -18 99 -1 55 0 106 2 113 3 8 22 13 51 13 37 0 51 -5 70 -26z m205 6
c0 -17 -7 -20 -39 -20 -27 0 -41 -5 -45 -16 -9 -25 12 -44 49 -44 17 0 35 -3
38 -7 13 -13 -16 -33 -48 -33 -33 0 -49 -17 -36 -38 3 -6 24 -12 46 -14 27 -2
40 -8 40 -18 0 -12 -13 -15 -60 -15 l-60 0 -3 113 -3 112 61 0 c53 0 60 -2 60
-20z m215 0 c0 -9 -12 -17 -30 -20 l-30 -5 -5 -85 c-5 -79 -7 -85 -27 -88 -13
-2 -23 0 -24 5 0 4 -1 40 -3 78 -2 82 -8 95 -42 95 -17 0 -24 5 -24 20 0 20 5
21 93 18 73 -2 92 -6 92 -18z m240 0 c0 -8 -9 -16 -20 -18 -54 -8 -65 -13 -65
-32 0 -14 9 -21 38 -25 64 -11 70 -14 48 -31 -11 -8 -35 -14 -54 -14 -29 0
-33 -3 -30 -22 2 -19 11 -24 47 -28 88 -10 51 -45 -40 -38 l-44 3 -3 99 c-1
55 0 106 2 113 8 20 121 14 121 -7z m127 -32 c92 -110 100 -112 96 -28 -2 37
2 64 10 72 24 24 33 -7 30 -113 -3 -87 -6 -104 -19 -107 -18 -3 -62 38 -111
106 -38 51 -48 43 -48 -45 0 -47 -4 -63 -14 -63 -21 0 -26 23 -26 115 0 134
14 144 82 63z m786 44 c41 -12 19 -27 -40 -28 -47 0 -60 -4 -77 -25 -26 -30
-26 -77 -1 -109 16 -22 27 -25 77 -25 67 0 78 -14 26 -33 -76 -26 -152 28
-153 109 0 90 72 138 168 111z m-1078 -108 c0 -104 0 -105 -22 -102 -22 3 -23
8 -26 106 l-3 102 26 0 25 0 0 -106z m605 1 c0 -67 -4 -100 -12 -102 -8 -3
-13 24 -15 92 -3 105 -2 118 16 112 7 -2 11 -37 11 -102z m95 98 c0 -5 14 -24
31 -43 17 -19 42 -48 55 -65 20 -25 26 -28 35 -15 5 8 8 36 6 62 -4 50 4 75
22 64 7 -5 11 -43 11 -102 0 -79 -3 -96 -17 -101 -10 -4 -24 2 -37 19 -12 13
-37 43 -56 66 -49 58 -60 55 -60 -19 0 -52 -2 -60 -17 -57 -15 3 -18 17 -21
87 -2 47 -1 90 2 98 6 14 46 19 46 6z"/>
<path d="M5445 2249 c-10 -14 -19 -480 -11 -512 6 -26 8 -27 79 -26 146 1 217
61 244 207 30 156 -28 285 -146 327 -50 17 -157 20 -166 4z"/>
<path d="M2450 1386 c0 -83 4 -87 65 -77 30 5 43 14 58 39 17 28 17 37 7 63
-16 37 -37 49 -89 49 l-41 0 0 -74z"/>
<path d="M3734 1449 c-8 -14 18 -31 30 -19 9 9 0 30 -14 30 -5 0 -12 -5 -16
-11z"/>
<path d="M3711 1341 c-14 -25 5 -44 31 -30 23 12 23 21 -2 36 -16 11 -21 10
-29 -6z"/>
<path d="M4663 1453 c-21 -8 -15 -40 8 -46 22 -6 35 13 25 38 -6 15 -12 17
-33 8z"/>
</g>
</svg>
