 <svg  version="1.0" xmlns="http://www.w3.org/2000/svg"  width="300.000000pt" height="300.000000pt" viewBox="0 0 300.000000 300.000000"  preserveAspectRatio="xMidYMid meet">  <g transform="translate(0.000000,300.000000) scale(0.050000,-0.050000)" fill="#22c55e" stroke="none"> <path d="M1260 3320 l0 -1760 300 0 300 0 0 1760 0 1760 -300 0 -300 0 0 -1760z"/> <path d="M2266 5061 c-123 -7 -229 -18 -235 -24 -7 -6 -9 -314 -6 -684 l5 -672 430 683 c237 376 433 691 437 700 7 18 -284 16 -631 -3z"/> <path d="M3183 4303 c-410 -613 -449 -665 -572 -754 -158 -117 -158 -100 0 -209 125 -86 155 -126 643 -840 282 -412 515 -753 518 -757 13 -16 263 177 343 264 231 250 385 626 435 1058 l13 115 -779 0 c-643 0 -783 5 -802 28 -13 15 -95 75 -183 133 -190 125 -190 94 -4 216 85 56 166 120 180 142 25 40 43 41 785 41 l760 0 0 48 c0 369 -370 925 -740 1112 -161 81 -113 128 -597 -597z"/> <path d="M2020 2316 l0 -752 285 -13 c157 -8 386 -11 510 -7 l225 6 -492 740 c-271 407 -501 749 -510 759 -11 11 -18 -299 -18 -733z"/> <path d="M1240 1230 c0 -95 72 -130 136 -66 61 61 13 156 -80 156 -53 0 -56 -5 -56 -90z m113 20 c12 -31 -24 -90 -55 -90 -10 0 -18 27 -18 60 0 65 51 86 73 30z"/> <path d="M1420 1230 c0 -88 1 -90 65 -89 60 1 62 3 19 20 -50 20 -43 58 12 60 23 1 18 9 -16 24 -50 22 -50 22 -5 30 66 11 55 45 -15 45 -58 0 -60 -3 -60 -90z"/> <path d="M1578 1288 c-22 -27 -19 -37 23 -69 27 -21 42 -39 34 -41 -8 -2 -23 -4 -33 -5 -47 -7 -43 -33 5 -33 75 0 92 55 31 102 l-48 37 45 1 c25 0 45 9 45 20 0 32 -72 23 -102 -12z"/> <path d="M1720 1230 c0 -49 9 -90 20 -90 11 0 20 41 20 90 0 50 -9 90 -20 90 -11 0 -20 -40 -20 -90z"/> <path d="M1811 1289 c-65 -66 -24 -149 73 -149 46 0 56 9 56 50 0 32 -11 50 -31 50 -23 0 -28 -12 -19 -40 15 -46 -14 -53 -48 -13 -33 41 -5 93 50 93 26 0 48 9 48 20 0 32 -94 23 -129 -11z"/> <path d="M1980 1230 c0 -49 9 -90 20 -90 11 0 20 25 21 55 l1 55 29 -55 c45 -82 69 -67 67 40 -2 83 -5 87 -17 35 l-14 -60 -27 55 c-42 86 -80 70 -80 -35z"/> <path d="M2238 1295 c-2 -14 -1 -36 0 -48 2 -13 -6 -29 -17 -36 -40 -25 4 -71 69 -71 51 0 68 10 77 44 14 52 -2 76 -26 38 -10 -17 -21 -19 -29 -6 -7 12 -4 27 7 33 10 7 14 25 8 42 -14 35 -86 39 -89 4z"/> <path d="M2460 1230 c0 -89 1 -90 65 -87 47 2 53 5 20 11 -53 10 -60 59 -10 72 33 9 33 9 0 12 -43 3 -47 42 -5 42 17 0 30 9 30 20 0 11 -22 20 -50 20 -46 0 -50 -7 -50 -90z"/> <path d="M2600 1230 c0 -49 9 -90 20 -90 11 0 20 25 21 55 l1 55 29 -55 c45 -83 89 -71 89 24 0 92 -34 127 -45 46 l-7 -55 -27 55 c-43 86 -81 70 -81 -35z"/> <path d="M2780 1300 c0 -11 9 -20 20 -20 11 0 20 -31 20 -70 0 -38 9 -70 20 -70 11 0 20 32 20 70 0 39 9 70 20 70 11 0 20 9 20 20 0 11 -27 20 -60 20 -33 0 -60 -9 -60 -20z"/> <path d="M2940 1231 c0 -50 9 -91 20 -91 11 0 20 14 20 30 0 17 9 30 20 30 11 0 20 -13 20 -30 0 -16 8 -30 18 -30 53 0 12 170 -43 176 -53 6 -55 3 -55 -85z"/> <path d="M3100 1230 c0 -85 3 -90 55 -88 34 2 42 6 20 12 -19 5 -35 21 -35 36 0 15 16 31 35 36 33 9 33 9 0 12 -43 3 -47 42 -5 42 17 0 30 9 30 20 0 11 -22 20 -50 20 -46 0 -50 -7 -50 -90z"/> <path d="M3220 1300 c0 -11 14 -20 30 -20 21 0 30 -21 30 -70 0 -38 9 -70 20 -70 11 0 20 32 20 70 0 39 9 70 20 70 11 0 20 9 20 20 0 11 -31 20 -70 20 -38 0 -70 -9 -70 -20z"/> <path d="M3380 1230 c0 -49 9 -90 20 -90 11 0 20 41 20 90 0 50 -9 90 -20 90 -11 0 -20 -40 -20 -90z"/> <path d="M3460 1230 c0 -88 1 -90 65 -89 60 1 62 3 19 20 -50 20 -43 58 12 60 23 1 18 9 -16 24 -50 22 -50 22 -5 30 66 11 55 45 -15 45 -58 0 -60 -3 -60 -90z"/> <path d="M3613 1307 c-20 -21 -15 -167 6 -167 10 0 22 25 26 55 l7 55 27 -55 c43 -86 81 -70 81 35 0 50 -9 90 -20 90 -11 0 -20 -25 -21 -55 l-1 -55 -29 55 c-30 55 -51 67 -76 42z"/> <path d="M3853 1306 c-28 -28 -14 -166 17 -166 22 0 30 22 30 79 0 76 -21 114 -47 87z"/> <path d="M3920 1230 c0 -98 33 -124 45 -35 l7 55 27 -55 c43 -86 81 -70 81 35 0 50 -9 90 -20 90 -11 0 -20 -25 -21 -55 l0 -55 -34 55 c-52 84 -85 70 -85 -35z"/> <path d="M4131 1289 c-36 -37 -38 -58 -10 -110 21 -40 119 -56 119 -20 0 11 -12 15 -27 9 -36 -13 -77 39 -61 79 7 18 29 33 50 33 21 0 38 9 38 20 0 31 -74 23 -109 -11z"/> </g> </svg> 