 <svg  version="1.0" xmlns="http://www.w3.org/2000/svg"  width="300.000000pt" height="121.000000pt" viewBox="0 0 300.000000 121.000000"  preserveAspectRatio="xMidYMid meet">  <g transform="translate(0.000000,121.000000) scale(0.100000,-0.100000)" fill="#18c55e" stroke="none"> <path d="M1015 1133 c-50 -12 -55 -28 -55 -164 l0 -129 -46 -21 c-34 -16 -48 -19 -57 -10 -20 20 -65 13 -82 -13 -13 -20 -15 -45 -11 -143 3 -65 5 -139 5 -164 1 -72 24 -94 105 -96 35 0 70 -4 75 -8 7 -4 11 -55 11 -134 0 -165 6 -176 105 -176 60 0 69 3 90 27 20 24 24 25 38 11 11 -12 50 -19 134 -26 279 -23 462 57 557 244 l33 64 105 0 c73 1 111 5 122 14 20 16 21 40 2 47 -14 5 -16 70 -2 92 3 6 -5 23 -18 39 -24 28 -24 29 -5 52 18 22 18 25 2 52 -16 28 -16 29 6 53 23 24 23 27 8 50 -28 42 -125 47 -169 9 -24 -21 -35 -11 -73 70 -56 118 -130 185 -250 225 -64 22 -135 28 -312 24 -97 -2 -116 -5 -133 -22 -19 -19 -19 -19 -33 1 -22 31 -93 46 -152 32z m132 -45 c-3 -13 -7 -111 -8 -218 -1 -187 0 -198 24 -262 21 -55 23 -68 11 -68 -16 0 -48 66 -67 137 -6 24 -14 43 -17 43 -3 0 -18 -41 -34 -91 l-29 -90 -56 3 c-55 3 -56 4 -94 58 l-38 55 2 -55 c3 -50 1 -55 -19 -58 -22 -3 -22 -2 -22 123 0 125 0 126 22 123 20 -3 22 -8 19 -50 -1 -27 0 -48 3 -48 4 0 20 23 37 50 27 44 35 50 65 50 19 0 34 -3 34 -7 0 -3 -18 -30 -40 -59 l-40 -54 46 -60 c26 -33 48 -60 49 -60 1 0 22 54 46 120 24 66 47 120 50 120 4 0 13 -17 22 -37 14 -35 15 -36 16 -12 1 15 -7 37 -18 50 -16 20 -21 22 -35 9 -26 -21 -37 -47 -62 -140 l-22 -85 -1 268 -1 267 81 0 c79 0 81 -1 76 -22z m408 12 c168 -26 305 -140 339 -282 l6 -26 -39 15 c-35 14 -42 14 -75 -2 -34 -16 -38 -16 -55 -1 -23 21 -47 12 -63 -25 -7 -16 -15 -29 -19 -29 -3 0 -18 14 -34 30 -26 28 -34 30 -69 24 -34 -5 -38 -4 -33 10 4 10 3 14 -2 11 -6 -3 -77 -6 -160 -8 l-151 -2 0 142 0 142 78 3 c42 2 106 4 142 6 36 2 97 -2 135 -8z m-45 -325 c0 -11 -12 -15 -50 -15 l-50 0 0 -40 0 -40 45 0 c33 0 45 -4 45 -15 0 -11 -12 -15 -51 -15 -43 0 -50 -3 -45 -16 3 -9 6 -27 6 -41 l0 -26 85 5 c77 4 85 3 85 -14 0 -16 -10 -18 -100 -18 l-100 0 0 110 0 110 -55 0 -55 0 0 -110 c0 -91 -3 -110 -15 -110 -12 0 -15 19 -15 110 l0 110 -35 0 c-24 0 -35 5 -35 15 0 13 26 15 170 15 144 0 170 -2 170 -15z m116 -67 c31 -46 60 -86 64 -91 3 -4 4 33 2 83 -4 78 -2 90 12 90 14 0 16 -16 16 -126 0 -79 -4 -123 -10 -119 -5 3 -37 45 -70 92 l-60 86 0 -66 c0 -53 -3 -67 -15 -67 -12 0 -15 18 -15 100 0 55 4 100 9 100 5 0 35 -37 67 -82z m257 71 c68 -19 94 -97 57 -173 -24 -51 -63 -69 -125 -59 l-35 6 0 113 c0 109 1 113 23 117 38 7 41 7 80 -4z m235 -6 c3 -10 -12 -13 -52 -13 l-56 0 0 -95 0 -95 55 0 c42 0 55 -3 55 -15 0 -12 -14 -15 -70 -15 l-70 0 0 125 0 126 67 -3 c42 -2 68 -8 71 -15z m-898 -158 c3 -118 2 -125 -8 -125 -4 0 -8 55 -10 122 -1 76 1 119 7 113 5 -6 10 -55 11 -110z m300 105 c0 -5 -7 -10 -15 -10 -8 0 -15 5 -15 10 0 6 7 10 15 10 8 0 15 -4 15 -10z m-179 -37 c3 -95 -3 -147 -19 -160 -24 -18 -35 -16 -26 5 4 9 9 51 11 92 5 85 8 100 23 100 5 0 11 -17 11 -37z m769 -18 c0 -11 -12 -15 -45 -15 -33 0 -45 4 -45 15 0 11 12 15 45 15 33 0 45 -4 45 -15z m-980 -102 c5 -7 10 -23 10 -37 0 -24 -1 -24 -27 -10 -16 7 -34 14 -42 14 -15 0 -7 45 12 68 9 11 13 11 24 -5 7 -10 17 -23 23 -30z m510 -1 c-25 -4 -35 2 -26 17 5 7 13 7 27 -2 20 -12 20 -12 -1 -15z m30 -22 c0 -5 -13 -10 -30 -10 -16 0 -30 5 -30 10 0 6 14 10 30 10 17 0 30 -4 30 -10z m244 -36 l-7 -39 -8 29 c-5 19 -4 35 3 43 16 20 20 10 12 -33z m-904 -41 c0 -50 23 -68 74 -59 31 6 31 7 28 58 l-3 53 30 -35 29 -35 5 35 c3 28 4 25 5 -15 l1 -50 -29 33 c-25 27 -30 29 -30 13 0 -11 4 -21 9 -23 5 -1 11 -78 13 -171 l3 -167 -78 0 -78 0 2 216 c1 126 5 211 10 203 5 -8 9 -33 9 -56z m-146 28 c11 -13 15 -27 11 -40 -7 -22 -46 -38 -64 -26 -12 7 -15 68 -4 78 12 13 40 7 57 -12z m66 9 c0 -5 -7 -10 -15 -10 -8 0 -15 -4 -15 -10 0 -5 9 -10 20 -10 11 0 20 6 20 14 0 16 27 29 35 16 3 -4 -1 -10 -7 -13 -9 -3 -7 -9 7 -20 27 -21 8 -40 -45 -44 l-40 -3 0 45 c0 38 3 45 20 45 11 0 20 -4 20 -10z m155 1 c3 -5 -5 -11 -17 -13 -15 -2 -24 -11 -26 -25 -3 -18 1 -23 20 -22 13 0 17 3 11 6 -18 7 -16 23 3 23 22 0 14 -44 -9 -48 -23 -5 -47 15 -47 39 0 34 49 64 65 40z m179 -19 c0 -13 4 -18 13 -15 9 3 11 0 7 -10 -3 -9 4 -25 15 -36 20 -20 29 -21 124 -16 56 4 111 5 122 4 26 -3 112 -3 150 -1 17 1 48 -1 70 -4 22 -3 57 -2 78 3 l38 8 -25 33 -25 34 -4 -34 c-3 -24 -4 -20 -5 17 l-1 50 24 -30 25 -30 0 28 c0 42 20 32 21 -10 3 -93 -24 -156 -102 -238 -103 -109 -211 -141 -441 -130 l-148 7 0 147 c0 97 4 156 13 174 12 27 27 36 27 17 0 -5 5 -10 12 -10 6 0 4 8 -7 20 -10 11 -15 26 -11 35 8 23 31 13 30 -13z m106 18 c0 -5 -7 -10 -15 -10 -21 0 -19 -20 3 -21 16 -1 16 -2 0 -6 -24 -6 -23 -23 2 -23 15 0 20 7 20 28 0 42 11 46 37 15 21 -26 22 -27 23 -7 0 14 8 24 23 28 34 9 67 7 67 -4 0 -5 -4 -10 -10 -10 -5 0 -10 -16 -10 -35 0 -19 -4 -35 -10 -35 -5 0 -10 16 -10 35 0 24 -5 35 -15 35 -10 0 -15 -11 -15 -35 0 -19 -2 -35 -5 -35 -3 0 -17 12 -30 28 l-24 27 -1 -25 c0 -21 -5 -25 -35 -27 l-35 -3 0 45 c0 38 3 45 20 45 11 0 20 -4 20 -10z m209 -4 c6 -7 9 -20 5 -29 -3 -8 -1 -18 5 -22 6 -3 11 -12 11 -18 -1 -7 -10 -1 -20 12 -15 17 -20 19 -20 8 0 -9 -4 -19 -10 -22 -6 -4 -10 12 -10 39 0 48 16 60 39 32z m71 4 c0 -5 -7 -10 -15 -10 -21 0 -19 -20 3 -21 16 -1 16 -2 0 -6 -24 -6 -23 -23 2 -23 11 0 20 -4 20 -10 0 -5 -11 -10 -25 -10 -23 0 -25 4 -25 45 0 38 3 45 20 45 11 0 20 -4 20 -10z m98 -38 c2 -25 -1 -42 -7 -42 -6 0 -11 16 -11 35 0 24 -5 35 -15 35 -10 0 -15 -11 -15 -35 0 -19 -4 -35 -10 -35 -5 0 -10 16 -10 35 0 19 -4 35 -10 35 -5 0 -10 5 -10 11 0 6 17 9 43 7 42 -4 42 -4 45 -46z m57 38 c3 -5 -3 -10 -14 -10 -28 0 -27 -20 2 -21 l22 -2 -22 -4 c-28 -5 -30 -23 -3 -23 11 0 20 -4 20 -10 0 -5 -11 -10 -25 -10 -23 0 -25 4 -25 45 0 38 3 45 19 45 11 0 23 -4 26 -10z m145 -36 c0 -27 -4 -43 -10 -39 -17 11 -11 85 7 85 2 0 3 -21 3 -46z m90 2 c0 -46 -10 -51 -37 -19 l-22 28 -1 -27 c0 -16 -4 -28 -10 -28 -5 0 -10 18 -10 40 0 46 5 48 37 18 l23 -21 0 27 c0 16 4 25 10 21 6 -3 10 -21 10 -39z m77 29 c2 -6 -9 -11 -24 -10 -21 0 -28 -5 -28 -20 0 -15 7 -20 28 -20 29 1 32 -18 3 -23 -38 -8 -62 48 -34 76 15 15 50 12 55 -3z"/> <path d="M1818 753 c-2 -5 -4 -46 -3 -93 1 -83 2 -85 27 -88 16 -2 36 6 53 20 22 19 27 32 27 72 1 42 -3 53 -26 73 -26 22 -71 31 -78 16z m72 -92 c0 -18 -18 -41 -32 -41 -10 0 -11 64 -1 73 9 10 33 -13 33 -32z"/> <path d="M820 465 c0 -20 4 -26 18 -23 9 2 17 12 17 23 0 11 -8 21 -17 23 -14 3 -18 -3 -18 -23z"/> <path d="M923 462 c-36 -5 -27 -22 12 -22 19 0 35 4 35 9 0 12 -20 18 -47 13z"/> <path d="M1223 415 c2 -5 17 -12 33 -13 16 -2 35 -9 43 -15 9 -8 8 -2 -3 15 -13 20 -25 27 -47 25 -16 -1 -27 -6 -26 -12z"/> </g> </svg> 