<?xml version="1.0" standalone="no"?>
<!DOCTYPE svg PUBLIC "-//W3C//DTD SVG 20010904//EN"
 "http://www.w3.org/TR/2001/REC-SVG-20010904/DTD/svg10.dtd">
<svg version="1.0" xmlns="http://www.w3.org/2000/svg"
 width="800.000000pt" height="800.000000pt" viewBox="0 0 800.000000 800.000000"
 preserveAspectRatio="xMidYMid meet">
<metadata>
Created by potrace 1.10, written by Peter Selinger 2001-2011
</metadata>
<g transform="translate(0.000000,800.000000) scale(0.100000,-0.100000)"
fill="#22c55e" stroke="none">
<path d="M4467 7993 c-4 -3 -7 -1000 -7 -2214 0 -1214 -3 -2214 -6 -2223 -6
-15 -211 -16 -2230 -16 -2217 0 -2224 0 -2224 -20 0 -20 7 -20 2250 -20 l2250
0 0 2250 c0 2303 0 2277 -33 2243z"/>
<path d="M717 7728 c-9 -7 -20 -24 -25 -38 -6 -15 -9 -703 -8 -1723 l1 -1699
28 -24 c28 -24 29 -24 272 -24 267 0 288 4 304 54 7 20 9 630 8 1723 l-2 1691
-24 26 -24 26 -257 0 c-189 0 -260 -3 -273 -12z m543 -1748 l0 -1720 -270 0
-270 0 0 1720 0 1720 270 0 270 0 0 -1720z"/>
<path d="M2097 7734 c-1 -1 -96 -5 -212 -8 -248 -8 -394 -20 -423 -35 -12 -6
-26 -20 -32 -31 -7 -12 -10 -569 -10 -1688 l0 -1670 31 -26 c26 -22 40 -26
102 -27 40 0 81 -2 92 -4 51 -10 376 -20 620 -20 332 0 438 15 674 94 173 58
363 172 509 306 92 83 268 324 319 435 39 87 55 127 86 230 52 166 79 297 95
465 10 98 9 436 -1 520 -5 39 -10 86 -12 105 -10 97 -72 352 -105 425 -5 11
-22 52 -37 90 -64 154 -183 326 -312 447 -135 126 -255 201 -466 288 -11 5
-38 14 -60 21 -22 6 -51 15 -65 20 -41 13 -179 38 -270 49 -67 8 -516 20 -523
14z m528 -44 c327 -37 620 -169 839 -379 192 -185 312 -403 391 -707 48 -185
66 -347 67 -584 0 -579 -152 -1017 -462 -1331 -76 -77 -254 -219 -275 -219 -2
0 -26 -13 -52 -28 -107 -62 -253 -115 -423 -154 -87 -19 -128 -21 -470 -24
-228 -1 -451 3 -570 11 -107 8 -201 14 -207 14 -10 1 -13 346 -13 1690 l0
1689 63 8 c192 23 948 32 1112 14z"/>
<path d="M2320 7659 c-7 -13 -17 -18 -27 -15 -13 5 -14 4 -3 -9 17 -20 17 -20
35 15 9 17 13 30 11 30 -3 0 -10 -9 -16 -21z"/>
<path d="M2270 7615 c0 -8 -3 -14 -7 -14 -20 3 -24 -2 -13 -16 7 -8 9 -23 6
-32 -6 -14 -5 -15 5 -6 7 7 13 23 14 35 2 13 8 22 15 20 11 -3 11 0 0 12 -16
20 -20 20 -20 1z"/>
<path d="M2305 7574 c-9 -14 -15 -27 -13 -30 2 -2 12 10 22 26 21 37 15 40 -9
4z"/>
<path d="M2130 7573 c0 -7 5 -15 11 -18 6 -4 8 -14 4 -24 -5 -12 -3 -13 6 -4
9 9 8 17 -5 34 -9 13 -16 18 -16 12z"/>
<path d="M1976 7554 c7 -3 11 -13 9 -22 -1 -9 0 -11 2 -4 3 6 10 12 16 12 7 0
6 4 -3 10 -8 5 -19 9 -25 9 -5 0 -5 -3 1 -5z"/>
<path d="M2903 7313 c-92 -137 -285 -421 -428 -633 l-262 -385 -134 -98 c-131
-95 -164 -126 -120 -112 18 5 22 3 19 -11 -2 -9 4 -19 12 -21 9 -3 11 -1 5 4
-27 22 -12 49 51 93 159 112 179 130 224 199 25 39 50 70 56 71 6 0 11 6 11
13 0 6 53 91 118 187 65 96 150 222 189 280 38 58 73 107 76 110 3 3 60 86
126 185 66 99 146 217 177 263 52 75 65 102 52 102 -2 0 -80 -111 -172 -247z"/>
<path d="M2194 7538 c-3 -5 -2 -8 3 -7 25 4 35 -1 24 -14 -6 -8 -8 -16 -5 -19
3 -3 1 -9 -5 -13 -6 -3 -11 1 -11 9 0 9 -4 16 -10 16 -6 0 -6 -9 0 -25 9 -23
6 -29 -12 -26 -4 0 -4 -7 -1 -16 4 -10 2 -14 -5 -9 -7 4 -10 -1 -9 -14 1 -11
2 -20 3 -20 1 0 20 29 43 65 22 36 36 65 30 65 -6 0 -8 4 -5 8 2 4 -4 8 -15 8
-11 0 -23 -4 -25 -8z"/>
<path d="M1530 7518 c0 -4 5 -8 11 -8 5 0 7 -4 4 -10 -3 -5 -2 -10 4 -10 5 0
9 8 8 18 -1 18 -27 27 -27 10z"/>
<path d="M1767 7463 c15 -3 20 -9 17 -21 -5 -14 -4 -14 4 -2 14 19 6 30 -21
29 l-22 -2 22 -4z"/>
<path d="M3061 7429 c-13 -38 -13 -39 -3 -39 5 0 9 6 9 13 0 6 3 22 7 35 11
34 -1 26 -13 -9z"/>
<path d="M2135 7410 c-3 -5 -2 -17 3 -26 6 -11 11 -13 16 -5 4 6 2 11 -4 11
-7 0 -10 7 -6 15 6 17 0 20 -9 5z"/>
<path d="M1500 7380 c6 -11 18 -19 28 -19 16 1 16 2 0 6 -10 2 -18 11 -18 19
0 8 -5 14 -10 14 -7 0 -7 -6 0 -20z"/>
<path d="M2100 7360 c0 -12 28 -21 35 -11 2 5 -4 11 -15 14 -11 3 -20 2 -20
-3z"/>
<path d="M2093 7327 c-6 -6 -13 -25 -17 -42 -6 -29 -6 -29 10 -10 26 33 35 53
25 59 -5 3 -13 0 -18 -7z"/>
<path d="M1986 7281 c3 -3 19 -6 35 -7 17 -1 28 1 25 4 -3 3 -19 6 -36 7 -17
1 -28 -1 -24 -4z"/>
<path d="M3150 7278 c0 -7 5 -20 10 -28 8 -12 10 -11 10 7 0 12 -4 25 -10 28
-5 3 -10 0 -10 -7z"/>
<path d="M2027 7210 c4 -16 2 -19 -11 -14 -9 3 -17 2 -17 -2 -1 -5 -3 -19 -4
-30 -4 -38 -16 -49 -32 -29 -7 11 -13 14 -13 9 0 -6 5 -15 12 -22 9 -9 9 -12
-1 -12 -7 0 -10 -4 -7 -8 2 -4 0 -14 -5 -22 -8 -13 -12 -12 -24 4 -12 16 -15
17 -15 4 0 -9 8 -19 18 -23 16 -7 16 -8 -2 -14 -14 -5 -16 -10 -8 -15 14 -8
99 120 94 142 -2 8 1 11 7 8 11 -7 34 28 24 38 -13 13 -21 5 -16 -14z"/>
<path d="M1988 7080 c-50 -72 -54 -80 -38 -80 6 0 10 7 10 15 0 8 5 15 10 15
6 0 10 5 10 11 0 6 14 31 32 55 17 24 29 46 27 48 -2 2 -25 -27 -51 -64z"/>
<path d="M3183 7131 c-25 -21 -30 -33 -10 -25 10 4 43 45 35 44 -2 -1 -13 -9
-25 -19z"/>
<path d="M1598 7112 c-10 -2 -18 -8 -18 -13 0 -11 11 -11 30 1 18 11 11 18
-12 12z"/>
<path d="M1904 7022 c3 -6 -3 -13 -14 -17 -22 -7 -24 -13 -11 -34 7 -11 13 -7
25 17 12 23 13 33 4 38 -6 4 -8 3 -4 -4z"/>
<path d="M1630 6959 c-8 -5 -13 -9 -10 -10 3 0 13 -2 23 -4 9 -2 17 1 17 5 0
15 -15 19 -30 9z"/>
<path d="M1841 6943 c-1 -7 -11 -22 -23 -34 -19 -18 -20 -21 -4 -15 14 5 17 2
12 -11 -5 -15 -3 -14 10 2 23 30 38 59 26 51 -6 -3 -13 0 -15 6 -4 10 -6 10
-6 1z"/>
<path d="M1838 6848 c-32 -50 -55 -94 -52 -97 4 -3 9 0 11 6 3 7 25 43 49 79
55 81 67 104 57 104 -4 -1 -34 -42 -65 -92z"/>
<path d="M1793 6852 c-3 -12 -12 -23 -22 -25 -11 -3 -9 -5 6 -6 25 -1 50 33
32 44 -6 4 -13 -2 -16 -13z"/>
<path d="M3086 6834 c-5 -13 -3 -14 6 -7 7 6 20 13 28 16 10 4 8 6 -6 6 -12 1
-25 -6 -28 -15z"/>
<path d="M1694 6829 c-9 -15 -2 -18 20 -9 17 6 18 7 3 13 -9 3 -19 2 -23 -4z"/>
<path d="M1722 6737 c-5 -12 -13 -30 -16 -40 -3 -10 -10 -16 -15 -13 -11 7
-36 -22 -27 -31 3 -3 6 -1 6 5 0 7 5 12 10 12 7 0 7 -7 0 -20 -6 -11 -15 -18
-20 -15 -13 8 -24 -15 -12 -27 6 -6 21 9 42 44 18 29 39 63 47 75 8 11 10 24
5 27 -5 3 -14 -5 -20 -17z"/>
<path d="M2870 6750 c0 -5 10 -10 23 -10 18 0 19 2 7 10 -19 13 -30 13 -30 0z"/>
<path d="M2695 6729 c-4 -6 -13 -8 -21 -5 -8 3 -14 1 -14 -4 0 -17 18 -20 30
-4 7 8 19 13 27 10 8 -3 11 -1 8 4 -8 13 -22 13 -30 -1z"/>
<path d="M1705 6638 c-67 -107 -128 -201 -173 -272 -29 -44 -38 -66 -29 -66 5
0 97 146 97 154 0 4 18 31 40 60 22 29 40 56 40 60 0 4 17 33 38 64 35 51 56
92 49 92 -2 0 -29 -42 -62 -92z"/>
<path d="M2940 6628 c0 -10 -4 -18 -8 -18 -5 0 -9 -7 -9 -15 0 -19 -1 -19 19
4 10 12 13 23 7 32 -7 11 -9 10 -9 -3z"/>
<path d="M2597 6600 c-3 -11 -4 -20 -3 -20 1 0 9 9 19 20 13 15 14 20 3 20 -7
0 -16 -9 -19 -20z"/>
<path d="M3154 6599 c9 -14 13 -29 9 -32 -3 -4 -1 -7 5 -7 18 0 15 15 -9 41
l-20 24 15 -26z"/>
<path d="M2817 6603 c-11 -11 -8 -25 4 -17 6 3 15 0 20 -7 5 -8 9 -9 9 -3 0
15 -25 36 -33 27z"/>
<path d="M1609 6551 c-15 -21 -30 -49 -34 -62 -10 -31 -6 -26 38 44 41 63 37
78 -4 18z"/>
<path d="M3517 6537 c-7 -18 9 -44 20 -33 4 5 3 11 -4 13 -7 2 -9 11 -6 19 3
8 3 14 0 14 -3 0 -7 -6 -10 -13z"/>
<path d="M1529 6448 c-11 -20 -10 -21 3 -11 8 7 18 10 21 6 4 -3 7 1 7 10 0
24 -17 21 -31 -5z"/>
<path d="M2631 6424 c-1 -28 -11 -36 -28 -23 -9 8 -13 8 -13 1 0 -17 -93 -10
-107 7 -10 14 -11 13 -10 -4 1 -13 -4 -20 -15 -19 -19 2 -24 -11 -9 -21 5 -3
12 -1 16 5 4 7 243 10 707 10 386 0 699 2 696 5 -2 3 -62 5 -132 6 -111 2
-126 4 -121 18 3 8 3 12 -1 8 -4 -4 -16 0 -26 10 -10 9 -18 11 -18 6 0 -6 7
-13 15 -17 49 -18 -7 -24 -235 -24 -189 0 -249 2 -243 11 5 8 2 8 -9 -1 -19
-15 -158 -13 -158 2 0 8 -3 8 -8 1 -10 -15 -52 -16 -52 -2 0 8 -3 8 -12 -1 -7
-7 -28 -12 -48 -12 -20 0 -41 5 -48 12 -7 7 -12 8 -12 2 0 -6 -16 -11 -35 -12
-22 -1 -35 3 -35 11 0 7 -3 8 -8 2 -13 -18 -37 -10 -43 15 -6 21 -7 22 -8 4z"/>
<path d="M1520 6406 c0 -7 -7 -19 -15 -26 -8 -7 -15 -18 -15 -24 1 -11 24 15
41 47 6 11 6 17 -1 17 -5 0 -10 -6 -10 -14z"/>
<path d="M2449 6322 c-17 -24 -73 -67 -167 -127 -126 -80 -167 -113 -129 -103
30 8 281 184 305 214 l27 34 680 0 c422 0 686 4 695 10 10 6 -230 10 -685 9
l-700 0 -26 -37z"/>
<path d="M2426 6333 c-4 -5 -13 -8 -19 -8 -7 0 -12 -6 -12 -12 0 -7 -4 -13 -9
-12 -5 0 -13 -5 -17 -13 -8 -11 -10 -11 -18 1 -6 9 -11 10 -15 2 -4 -6 -2 -11
5 -11 8 0 8 -4 -2 -16 -20 -25 53 22 81 51 21 22 26 37 6 18z"/>
<path d="M2266 6221 c-10 -11 -25 -17 -37 -14 -13 4 -19 1 -17 -8 2 -8 -3 -13
-10 -11 -8 1 -11 -2 -6 -9 5 -9 2 -10 -9 -6 -10 4 -16 2 -14 -6 1 -7 -5 -11
-14 -9 -9 1 -16 -4 -16 -13 0 -8 5 -11 11 -8 56 34 146 94 146 98 0 11 -18 4
-34 -14z"/>
<path d="M2096 6087 c3 -8 69 -54 147 -103 78 -49 163 -111 188 -137 l47 -48
708 0 c467 1 711 4 718 11 7 7 -221 10 -710 10 l-719 0 -23 34 c-15 22 -79 69
-180 134 -197 124 -183 116 -176 99z"/>
<path d="M1929 6058 c7 -10 49 -44 94 -75 147 -106 202 -149 212 -169 9 -17
106 -160 234 -344 25 -36 82 -120 128 -187 46 -68 89 -131 97 -140 8 -10 45
-63 82 -118 37 -55 70 -102 74 -105 4 -3 23 -31 43 -62 31 -49 242 -355 253
-367 2 -2 7 -2 10 2 3 3 -56 95 -132 204 -76 109 -211 304 -300 433 -90 129
-172 249 -184 265 -38 54 -133 191 -209 302 -41 59 -85 122 -98 140 -20 27
-194 160 -288 219 -26 16 -28 16 -16 2z"/>
<path d="M2016 6054 c-8 -22 -8 -26 4 -19 6 3 10 2 10 -4 0 -13 90 -75 97 -67
4 3 1 6 -6 6 -7 0 -9 5 -6 10 3 6 -2 10 -12 10 -15 0 -16 2 -3 10 12 8 9 10
-12 10 -22 0 -26 4 -22 18 5 14 4 15 -5 2 -10 -13 -12 -13 -20 0 -5 8 -8 17
-5 21 2 4 0 10 -5 13 -5 3 -12 -1 -15 -10z"/>
<path d="M2145 5950 c-8 -13 9 -20 24 -11 10 6 9 10 -3 14 -8 3 -18 2 -21 -3z"/>
<path d="M2220 5885 c7 -8 16 -15 21 -15 5 0 6 7 3 15 -4 8 -13 15 -21 15 -13
0 -13 -3 -3 -15z"/>
<path d="M2278 5825 c-4 -6 1 -21 11 -33 16 -21 17 -22 17 -3 0 11 -3 18 -7
15 -4 -2 -9 4 -11 13 -2 10 -6 14 -10 8z"/>
<path d="M3345 5739 c-4 -5 -10 -7 -14 -5 -4 3 -13 1 -21 -4 -11 -7 -3 -9 23
-8 40 1 56 12 32 22 -8 3 -17 1 -20 -5z"/>
<path d="M3645 5722 c-13 -9 -39 -42 -33 -42 9 0 51 40 47 45 -3 2 -9 1 -14
-3z"/>
<path d="M1472 5713 c2 -5 10 -21 18 -38 8 -16 21 -35 29 -41 8 -7 11 -16 6
-24 -5 -9 -4 -11 3 -6 7 4 16 -3 21 -17 6 -14 15 -28 21 -32 6 -4 8 -16 5 -28
-5 -17 -4 -18 4 -8 8 12 12 10 22 -12 7 -15 16 -27 21 -27 4 0 8 -6 8 -14 0
-8 4 -16 8 -18 7 -3 145 -205 262 -383 38 -59 213 -316 258 -380 15 -22 63
-92 105 -155 43 -63 81 -119 85 -125 4 -5 25 -36 46 -67 21 -32 42 -58 48 -58
11 0 9 4 -57 100 -28 41 -244 360 -479 708 -362 535 -458 673 -434 625z"/>
<path d="M2355 5705 c11 -9 18 -17 16 -18 -3 -1 0 -11 7 -22 10 -18 11 -17 8
9 -2 21 -10 32 -27 38 -23 8 -23 8 -4 -7z"/>
<path d="M3533 5698 c-12 -20 -12 -38 -1 -38 6 0 8 6 5 14 -3 7 0 19 6 25 6 6
8 11 5 11 -4 0 -10 -6 -15 -12z"/>
<path d="M2940 5669 c0 -6 -7 -8 -16 -5 -14 5 -15 4 -4 -9 17 -20 25 -19 27 5
1 11 0 20 -3 20 -2 0 -4 -5 -4 -11z"/>
<path d="M3693 5649 c1 -27 5 -35 15 -32 8 4 10 8 4 12 -6 3 -12 17 -15 31 -3
17 -4 13 -4 -11z"/>
<path d="M2404 5639 c-3 -6 1 -18 10 -27 15 -15 16 -15 16 1 0 9 -5 17 -11 17
-5 0 -7 5 -4 10 3 6 4 10 1 10 -3 0 -8 -5 -12 -11z"/>
<path d="M2670 5633 c0 -15 19 -37 26 -31 3 4 -1 14 -10 23 -9 9 -16 13 -16 8z"/>
<path d="M3740 5622 c0 -14 39 -22 46 -10 3 5 3 12 0 15 -3 4 -6 1 -6 -6 0 -9
-5 -9 -20 -1 -11 6 -20 7 -20 2z"/>
<path d="M3534 5605 c11 -8 24 -15 30 -15 5 0 1 7 -10 15 -10 8 -23 14 -29 14
-5 0 -1 -6 9 -14z"/>
<path d="M3305 5600 c3 -5 13 -10 21 -10 8 0 14 5 14 10 0 6 -9 10 -21 10 -11
0 -17 -4 -14 -10z"/>
<path d="M2435 5590 c-4 -6 -1 -9 7 -8 7 2 12 -4 10 -14 -1 -9 2 -19 8 -23 15
-10 12 31 -4 44 -10 8 -16 9 -21 1z"/>
<path d="M3075 5580 c-3 -5 3 -10 14 -10 12 0 21 5 21 10 0 6 -6 10 -14 10 -8
0 -18 -4 -21 -10z"/>
<path d="M3200 5574 c0 -1 11 -9 25 -18 25 -16 25 -16 14 2 -9 15 -39 27 -39
16z"/>
<path d="M3440 5568 c0 -9 8 -19 17 -22 15 -6 15 -8 3 -16 -8 -6 -10 -10 -4
-10 6 0 18 8 25 17 8 10 9 14 2 10 -7 -4 -18 2 -27 15 -12 17 -16 19 -16 6z"/>
<path d="M3144 5549 c-3 -5 -2 -9 3 -10 4 0 16 -2 25 -4 10 -2 20 1 24 6 3 5
2 9 -3 10 -4 0 -16 2 -25 4 -10 2 -20 -1 -24 -6z"/>
<path d="M2857 5531 c-5 -20 18 -49 30 -38 3 4 -2 9 -11 13 -9 3 -13 10 -10
16 3 5 12 4 20 -3 8 -6 17 -9 21 -5 3 3 0 6 -8 6 -12 0 -11 2 1 11 13 9 13 10
-1 6 -9 -3 -21 -1 -26 4 -7 7 -12 3 -16 -10z"/>
<path d="M3690 5532 c0 -6 -8 -9 -17 -6 -11 4 -14 3 -7 -3 6 -4 16 -17 23 -28
12 -19 12 -19 8 3 -5 20 -2 22 16 16 12 -3 20 -5 17 -2 -31 24 -40 29 -40 20z"/>
<path d="M3140 5508 c-16 -7 -20 -12 -12 -15 8 -3 21 2 30 11 19 18 17 19 -18
4z"/>
<path d="M3612 5480 c-12 -10 -19 -21 -14 -24 5 -3 14 4 22 14 8 10 17 17 22
14 4 -3 8 0 8 5 0 16 -12 13 -38 -9z"/>
<path d="M2703 5484 c4 -4 -1 -13 -11 -20 -9 -7 -14 -15 -10 -19 4 -4 16 2 28
13 20 18 20 20 3 26 -9 4 -14 4 -10 0z"/>
<path d="M3550 5465 c0 -9 6 -12 15 -9 8 4 12 10 9 15 -8 14 -24 10 -24 -6z"/>
<path d="M2535 5438 c9 -16 19 -28 22 -28 2 0 1 5 -2 10 -3 6 1 10 10 10 9 0
13 5 10 11 -4 6 -13 8 -20 5 -7 -2 -18 1 -25 7 -7 7 -5 0 5 -15z"/>
<path d="M2917 5430 c-3 -11 -2 -22 3 -25 4 -3 10 6 12 20 6 30 -7 34 -15 5z"/>
<path d="M3784 5438 c12 -7 21 -7 28 0 6 6 0 10 -18 10 -23 0 -24 -2 -10 -10z"/>
<path d="M3028 5393 c6 -3 9 -9 6 -15 -4 -6 2 -5 15 1 27 15 27 16 -7 17 -15
1 -21 -1 -14 -3z"/>
<path d="M3503 5376 c0 -18 3 -24 9 -18 7 7 7 16 0 28 -8 14 -9 13 -9 -10z"/>
<path d="M2607 5368 c4 -22 4 -23 -11 -4 -23 29 -19 6 4 -24 11 -14 20 -19 20
-12 0 7 4 11 9 7 5 -3 3 8 -5 25 -18 36 -24 38 -17 8z"/>
<path d="M3561 5361 c-9 -6 -10 -11 -2 -15 6 -4 11 -2 11 5 0 8 4 8 15 -1 13
-11 14 -10 9 4 -7 18 -13 19 -33 7z"/>
<path d="M2830 5345 c-7 -9 -10 -18 -6 -22 3 -3 6 -1 6 5 0 6 8 12 18 14 11 2
13 6 6 11 -7 4 -17 0 -24 -8z"/>
<path d="M2940 5338 c11 -12 20 -26 20 -32 0 -5 3 -7 6 -4 7 8 -25 58 -38 58
-5 0 0 -10 12 -22z"/>
<path d="M3384 5341 c3 -5 15 -7 26 -4 28 7 25 13 -6 13 -14 0 -23 -4 -20 -9z"/>
<path d="M3706 5335 c-3 -8 -1 -25 5 -37 8 -21 9 -20 4 5 -4 18 -2 26 4 22 7
-3 8 0 5 9 -8 20 -10 20 -18 1z"/>
<path d="M2635 5314 c-13 -10 -14 -14 -3 -20 24 -16 45 -14 24 2 -19 13 -19
14 7 14 15 0 27 4 27 8 0 12 -37 9 -55 -4z"/>
<path d="M3181 5298 c-6 -17 -9 -33 -7 -36 3 -2 8 7 12 22 3 14 10 26 15 26 5
0 9 5 9 10 0 22 -19 8 -29 -22z"/>
<path d="M3541 5281 c13 -11 26 -17 28 -15 5 5 -30 33 -43 34 -4 0 2 -9 15
-19z"/>
<path d="M3040 5239 c-17 -13 -18 -17 -5 -10 33 17 51 31 40 31 -5 0 -21 -10
-35 -21z"/>
<path d="M3653 5242 c-19 -20 -16 -28 5 -10 9 9 29 15 44 14 14 -1 24 2 22 6
-8 12 -56 5 -71 -10z"/>
<path d="M2957 5230 c9 -9 9 -17 2 -26 -7 -8 -6 -14 3 -20 7 -4 10 -4 6 1 -4
4 -3 14 2 20 7 9 5 16 -7 26 -15 11 -16 11 -6 -1z"/>
<path d="M2698 5223 c18 -4 21 -8 12 -18 -8 -9 -6 -14 6 -19 9 -4 19 -4 22 -1
3 3 0 5 -6 5 -7 0 -12 4 -12 9 0 4 11 6 24 4 13 -3 27 1 31 8 6 9 1 10 -18 5
-14 -3 -29 -2 -32 4 -3 5 -16 9 -28 9 -21 -2 -21 -2 1 -6z"/>
<path d="M3685 5189 c-4 -11 -4 -23 -1 -26 3 -4 6 1 6 10 0 8 5 17 12 19 9 3
9 6 1 11 -7 4 -14 -1 -18 -14z"/>
<path d="M3046 5168 c-20 -39 -20 -43 -1 -24 8 8 15 20 15 26 0 6 4 8 10 5 6
-3 7 1 4 9 -8 22 -10 21 -28 -16z"/>
<path d="M2736 5145 c19 -29 21 -30 21 -11 0 7 -9 19 -19 25 -18 11 -18 11 -2
-14z"/>
<path d="M3110 5145 c0 -14 4 -25 9 -25 4 0 6 11 3 25 -2 14 -6 25 -8 25 -2 0
-4 -11 -4 -25z"/>
<path d="M3470 5150 c-7 -14 -7 -20 0 -20 5 0 10 6 10 14 0 8 6 17 13 19 9 4
9 6 0 6 -7 1 -17 -8 -23 -19z"/>
<path d="M3561 5151 c-22 -19 -22 -20 -3 -18 12 0 23 9 25 19 6 22 5 22 -22
-1z"/>
<path d="M2976 5134 c-9 -8 -16 -20 -16 -27 0 -6 5 -5 13 4 6 8 19 20 27 27 8
7 9 12 3 12 -6 0 -19 -7 -27 -16z"/>
<path d="M1570 5128 c0 -11 22 -10 39 1 10 7 7 9 -12 8 -15 -1 -27 -5 -27 -9z"/>
<path d="M2776 5085 c18 -28 24 -31 24 -12 0 7 -9 18 -20 25 -20 12 -21 12 -4
-13z"/>
<path d="M3045 5100 c-3 -5 6 -12 20 -16 14 -3 25 -11 25 -17 0 -6 3 -7 7 -4
3 4 -3 16 -15 27 -24 23 -28 24 -37 10z"/>
<path d="M3423 5102 c-13 -2 -23 -8 -23 -13 0 -9 37 -3 49 7 8 7 -4 10 -26 6z"/>
<path d="M3111 5051 c-20 -17 -20 -19 -4 -25 10 -4 14 -4 10 0 -4 4 0 16 10
26 21 24 12 23 -16 -1z"/>
<path d="M3270 5026 c0 -2 11 -6 25 -8 14 -3 25 -1 25 3 0 5 -11 9 -25 9 -14
0 -25 -2 -25 -4z"/>
<path d="M2936 5010 c-11 -3 -15 -9 -10 -13 10 -6 42 9 34 16 -3 3 -14 1 -24
-3z"/>
<path d="M3151 4979 c-1 -25 21 -40 39 -27 12 8 12 9 -3 4 -12 -4 -21 1 -27
17 -6 15 -9 17 -9 6z"/>
<path d="M2881 4935 c18 -25 34 -45 35 -45 8 0 -23 56 -38 72 -32 32 -30 19 3
-27z"/>
<path d="M3040 4945 c-11 -13 -8 -15 14 -15 18 0 26 5 25 18 0 10 -3 12 -6 5
-2 -7 -9 -13 -14 -13 -6 0 -7 5 -4 10 9 15 -1 12 -15 -5z"/>
<path d="M1897 4893 c6 -16 8 -16 23 1 9 12 8 15 -8 13 -12 0 -18 -6 -15 -14z"/>
<path d="M3235 4855 c-22 -14 -36 -25 -31 -25 10 0 76 40 76 46 0 6 -2 5 -45
-21z"/>
<path d="M3349 4861 c6 -10 7 -21 3 -25 -3 -4 1 -4 10 -1 15 6 15 8 0 26 -21
24 -26 24 -13 0z"/>
<path d="M3040 4849 c0 -8 5 -21 10 -29 8 -12 9 -10 7 7 -4 26 -17 43 -17 22z"/>
<path d="M3275 4834 c9 -9 19 -13 23 -10 3 4 0 11 -8 16 -24 15 -33 11 -15 -6z"/>
<path d="M3100 4794 c0 -17 27 -37 42 -31 8 4 7 6 -4 6 -9 1 -22 9 -27 19 -6
9 -11 12 -11 6z"/>
<path d="M3284 4769 c-3 -6 -1 -15 5 -20 6 -5 9 -6 6 -3 -3 4 0 13 6 21 8 9 8
13 1 13 -6 0 -14 -5 -18 -11z"/>
<path d="M3018 4739 c11 -18 26 -35 32 -37 7 -3 3 5 -7 17 -10 12 -18 27 -18
33 0 6 -6 13 -14 16 -11 4 -9 -5 7 -29z"/>
<path d="M3383 4754 c0 -7 4 -11 8 -8 4 2 9 -1 11 -8 3 -7 7 -8 11 -2 3 5 -2
15 -12 21 -14 9 -18 8 -18 -3z"/>
<path d="M1890 4740 c-9 -17 -8 -20 12 -19 13 0 32 5 43 10 15 7 11 7 -14 3
-29 -5 -33 -4 -28 10 9 23 0 20 -13 -4z"/>
<path d="M3230 4631 c10 -7 11 -11 3 -11 -7 0 -12 -6 -10 -12 1 -7 -4 -12 -11
-10 -8 1 -11 -2 -7 -7 8 -14 35 -2 35 15 0 8 0 17 1 21 0 4 -5 9 -13 11 -9 2
-8 0 2 -7z"/>
<path d="M3106 4621 c-4 -6 0 -11 8 -11 9 0 13 -6 10 -14 -3 -8 -1 -16 4 -20
12 -7 8 32 -5 45 -8 8 -13 8 -17 0z"/>
<path d="M2104 4613 c3 -3 17 -7 32 -9 14 -1 23 0 20 3 -3 4 -18 8 -32 9 -14
2 -24 0 -20 -3z"/>
<path d="M1683 4552 c-8 -5 -8 -12 2 -25 12 -17 13 -16 11 7 0 15 -1 26 -1 26
0 0 -5 -4 -12 -8z"/>
<path d="M1999 4487 c14 -15 29 -27 33 -27 10 0 -5 16 -37 40 -15 10 -14 7 4
-13z"/>
<path d="M1687 4481 c-3 -11 1 -22 8 -24 8 -4 10 3 7 19 -5 29 -8 30 -15 5z"/>
<path d="M1601 4450 c-9 -5 -5 -9 10 -13 28 -7 31 -6 14 10 -6 6 -18 8 -24 3z"/>
<path d="M1626 4374 c-4 -14 -5 -28 -3 -31 3 -2 8 8 11 23 4 14 5 28 3 31 -3
2 -8 -8 -11 -23z"/>
<path d="M1818 4358 c-10 -10 -13 -18 -7 -18 5 0 7 -6 3 -12 -4 -8 -3 -10 2
-5 5 5 9 12 9 15 0 4 4 13 9 20 13 21 3 21 -16 0z"/>
<path d="M1859 4339 l-24 -20 30 17 c39 24 40 24 28 24 -6 0 -21 -9 -34 -21z"/>
<path d="M1718 4331 c-12 -14 -11 -15 5 -2 13 10 21 11 25 4 5 -7 11 -7 19 2
9 10 6 13 -13 13 -13 0 -29 -8 -36 -17z"/>
<path d="M704 4089 c-15 -16 -19 -38 -20 -95 -2 -97 16 -124 82 -124 25 0 59
7 75 16 28 14 32 14 48 0 15 -13 40 -15 145 -12 70 2 132 8 138 14 7 7 20 6
44 -4 40 -17 88 -18 115 -4 13 7 25 8 37 1 13 -7 23 -4 44 16 l26 25 37 -28
c43 -32 60 -27 87 25 15 29 17 31 23 12 3 -11 18 -30 32 -41 21 -16 36 -19 81
-16 73 7 91 24 82 79 -17 96 -54 157 -97 157 -31 0 -73 -42 -73 -74 0 -29 -19
-76 -32 -76 -4 0 -8 21 -8 48 0 81 -40 114 -86 71 l-23 -21 -35 27 c-30 22
-38 25 -57 15 -16 -9 -28 -9 -46 -1 -33 15 -69 14 -104 -5 -22 -11 -34 -12
-43 -5 -7 6 -70 13 -140 16 -100 4 -132 2 -148 -9 -17 -12 -23 -12 -46 0 -42
22 -115 18 -138 -7z m112 -19 c15 -6 33 -18 40 -28 14 -18 18 -70 8 -97 -9
-24 -58 -45 -104 -45 l-40 0 0 90 0 90 34 0 c19 0 47 -5 62 -10z m184 -5 c0
-11 -11 -15 -40 -15 -36 0 -40 -2 -40 -25 0 -22 4 -25 35 -25 19 0 35 -4 35
-10 0 -5 -16 -10 -35 -10 -31 0 -35 -3 -35 -25 0 -22 4 -25 40 -25 29 0 40 -4
40 -15 0 -11 -12 -15 -50 -15 l-50 0 0 90 0 90 50 0 c38 0 50 -4 50 -15z m88
9 c13 -4 22 -14 22 -25 0 -16 -3 -17 -19 -8 -19 13 -51 6 -51 -10 0 -5 16 -19
35 -31 27 -17 35 -28 35 -50 0 -51 -66 -65 -90 -19 -11 20 3 28 15 9 8 -14 42
-13 51 2 4 7 -8 23 -29 41 -41 32 -49 69 -19 86 20 12 21 12 50 5z m72 -84 c0
-65 -3 -90 -12 -90 -9 0 -14 24 -15 82 -2 83 1 98 18 98 5 0 9 -40 9 -90z
m155 78 c35 -16 34 -41 -1 -28 -38 15 -62 12 -84 -10 -26 -26 -25 -55 1 -81
24 -24 84 -24 84 1 0 8 -8 14 -17 14 -10 -1 -18 4 -18 12 0 9 11 14 30 14 28
0 30 -2 30 -39 0 -36 -2 -39 -33 -45 -41 -8 -94 10 -107 34 -14 26 -12 83 3
102 29 36 69 46 112 26z m126 -50 c29 -35 56 -65 61 -67 6 -2 8 24 7 60 -2 41
1 64 9 67 9 3 12 -22 12 -87 0 -50 -4 -91 -9 -91 -10 0 -72 66 -96 104 -10 14
-20 26 -24 26 -4 0 -5 -29 -3 -65 4 -55 2 -65 -12 -65 -14 0 -16 14 -16 90 0
51 4 90 10 90 5 0 33 -28 61 -62z m267 50 c17 -17 15 -53 -3 -68 -12 -10 -13
-16 -3 -27 10 -12 13 -12 20 1 5 9 16 16 25 16 14 0 14 -2 0 -24 -14 -21 -14
-26 -2 -36 8 -7 15 -16 15 -21 0 -15 -30 -10 -36 6 -5 12 -9 12 -30 -2 -20
-13 -30 -14 -49 -5 -31 14 -34 57 -5 72 16 9 18 15 10 30 -14 26 -13 36 6 54
19 19 36 20 52 4z"/>
<path d="M740 3990 l0 -60 35 0 c39 0 75 28 75 60 0 32 -36 60 -75 60 l-35 0
0 -60z"/>
<path d="M1670 4029 c0 -24 23 -21 28 4 2 10 -3 17 -12 17 -10 0 -16 -9 -16
-21z"/>
<path d="M1657 3962 c-19 -20 -14 -32 14 -32 24 0 31 14 16 34 -12 16 -14 16
-30 -2z"/>
<path d="M1835 4086 c-22 -22 -25 -34 -25 -94 0 -55 4 -75 21 -96 19 -25 26
-26 91 -24 61 2 72 5 90 27 13 18 23 22 32 16 69 -51 65 -50 95 -27 25 18 31
19 47 7 25 -19 44 -18 66 2 18 16 20 16 40 -5 20 -20 23 -20 49 -5 25 15 30
15 46 2 27 -24 150 -25 175 -2 16 14 23 15 38 5 26 -16 40 -15 62 5 17 15 20
15 41 -5 15 -14 27 -18 37 -12 8 5 22 5 33 -1 10 -6 47 -9 83 -7 50 4 69 10
89 28 23 21 26 22 42 8 41 -35 59 -39 87 -17 24 19 26 27 26 95 0 67 -3 78
-26 101 l-25 25 -28 -26 -28 -27 -36 24 c-35 24 -45 25 -197 18 -8 0 -79 2
-157 5 -118 5 -145 3 -164 -9 -19 -14 -24 -14 -43 -2 -16 11 -55 14 -156 13
-128 -2 -136 -3 -157 -26 l-22 -24 -32 23 c-23 16 -49 23 -100 26 -63 4 -71 2
-94 -21z m115 -21 c0 -11 -11 -15 -40 -15 -36 0 -40 -2 -40 -25 0 -22 4 -25
35 -25 19 0 35 -4 35 -10 0 -5 -16 -10 -35 -10 -31 0 -35 -3 -35 -25 0 -22 4
-25 40 -25 29 0 40 -4 40 -15 0 -11 -12 -15 -50 -15 l-50 0 0 90 0 90 50 0
c38 0 50 -4 50 -15z m90 -49 l55 -64 3 64 c2 48 7 64 17 64 12 0 15 -18 15
-90 0 -65 -3 -90 -12 -90 -7 0 -38 31 -68 68 l-55 67 -3 -68 c-4 -100 -22 -82
-22 23 0 50 3 90 8 90 4 0 32 -29 62 -64z m248 47 c2 -9 -7 -13 -27 -13 l-31
0 0 -75 c0 -60 -3 -75 -15 -75 -12 0 -15 15 -15 75 0 73 -1 75 -25 75 -15 0
-25 6 -25 15 0 11 14 14 67 12 43 -1 68 -6 71 -14z m95 3 c19 -14 23 -61 6
-71 -6 -4 -1 -19 14 -38 37 -50 40 -57 23 -57 -9 0 -27 18 -41 40 -14 22 -32
40 -40 40 -11 0 -15 -11 -15 -40 0 -29 -4 -40 -15 -40 -12 0 -15 15 -13 83 1
45 3 85 5 90 7 12 57 7 76 -7z m167 -1 c0 -10 -11 -15 -35 -15 -31 0 -35 -3
-35 -25 0 -22 4 -25 35 -25 19 0 35 -4 35 -10 0 -5 -16 -10 -35 -10 -31 0 -35
-3 -35 -25 0 -22 4 -25 35 -25 24 0 35 -5 35 -15 0 -11 -12 -15 -50 -15 l-50
0 0 90 0 90 50 0 c38 0 50 -4 50 -15z m148 -2 c2 -9 -7 -13 -27 -13 l-31 0 0
-75 c0 -62 -3 -75 -16 -75 -13 0 -15 12 -12 75 l3 75 -27 0 c-18 0 -28 5 -28
15 0 11 14 14 67 12 43 -1 68 -6 71 -14z m42 -73 c0 -68 -3 -90 -13 -90 -12 0
-14 58 -7 178 0 1 5 2 10 2 6 0 10 -37 10 -90z m138 73 c2 -9 -9 -13 -37 -13
-37 0 -41 -2 -41 -25 0 -22 4 -25 35 -25 19 0 35 -4 35 -10 0 -5 -16 -10 -35
-10 -31 0 -35 -3 -35 -25 0 -22 4 -25 40 -25 29 0 40 -4 40 -15 0 -11 -12 -15
-50 -15 l-50 0 0 91 0 90 47 -3 c26 -2 48 -9 51 -15z m93 -45 c29 -35 56 -65
61 -67 6 -2 8 24 7 60 -2 41 1 64 9 67 9 3 12 -22 12 -87 0 -50 -4 -91 -9 -91
-10 0 -72 66 -96 104 -10 14 -20 26 -24 26 -4 0 -5 -29 -3 -65 4 -55 2 -65
-12 -65 -14 0 -16 14 -16 90 0 51 4 90 10 90 5 0 33 -28 61 -62z"/>
<path d="M2330 4025 c0 -28 21 -33 40 -10 15 18 5 35 -21 35 -14 0 -19 -7 -19
-25z"/>
<path d="M3140 4085 c-16 -18 -26 -89 -21 -162 3 -44 106 -61 146 -23 21 20
21 20 57 -6 30 -22 39 -24 58 -14 16 9 33 9 69 -1 29 -7 59 -9 77 -4 16 5 42
9 58 9 35 1 56 28 40 54 -8 12 -32 20 -83 26 -57 8 -71 13 -69 25 2 10 16 17
38 19 34 3 70 26 70 44 0 5 -11 20 -25 33 -28 29 -68 32 -119 11 -30 -12 -37
-12 -55 0 -19 14 -23 13 -46 -10 -25 -26 -45 -33 -45 -18 0 16 -47 35 -88 36
-31 1 -48 -5 -62 -19z m40 -95 c0 -73 -3 -90 -15 -90 -12 0 -15 17 -15 90 0
73 3 90 15 90 12 0 15 -17 15 -90z m110 24 l55 -65 3 66 c2 49 7 65 17 65 12
0 15 -18 15 -90 0 -102 -10 -113 -53 -57 -14 17 -39 48 -56 67 l-31 35 0 -68
c0 -45 -4 -67 -11 -65 -6 2 -10 7 -10 11 1 4 1 43 1 87 0 44 3 80 8 80 4 0 32
-30 62 -66z m234 56 c14 -5 26 -16 26 -24 0 -12 -5 -12 -30 -3 -41 16 -84 -7
-88 -47 -6 -52 48 -83 99 -56 15 9 19 7 19 -5 0 -8 -11 -21 -25 -27 -64 -29
-143 45 -116 108 11 29 54 63 78 64 6 0 23 -4 37 -10z m82 -141 c8 -14 -11
-33 -25 -25 -11 7 -4 36 9 36 5 0 12 -5 16 -11z"/>
</g>
</svg>
