<?xml version="1.0" standalone="no"?>
<!DOCTYPE svg PUBLIC "-//W3C//DTD SVG 20010904//EN"
 "http://www.w3.org/TR/2001/REC-SVG-20010904/DTD/svg10.dtd">
<svg version="1.0" xmlns="http://www.w3.org/2000/svg"
 width="800.000000pt" height="800.000000pt" viewBox="0 0 800.000000 800.000000"
 preserveAspectRatio="xMidYMid meet">
<metadata>
Created by potrace 1.10, written by Peter Selinger 2001-2011
</metadata>
<g transform="translate(0.000000,800.000000) scale(0.050000,-0.050000)"
fill="#22c55e" stroke="none">
<path d="M8816 15986 c-34 -8 -39 -158 -33 -846 1 -60 2 -233 3 -384 1 -150 9
-269 18 -264 8 6 10 -4 4 -21 -7 -17 -19 -27 -27 -22 -8 5 -7 -37 1 -93 9 -56
11 -184 4 -284 -7 -100 -11 -209 -8 -242 11 -185 10 -2442 -2 -2423 -8 12 -13
3 -11 -21 2 -24 9 -40 17 -35 11 7 9 -200 -2 -231 -2 -5 -3 -64 -2 -130 11
-562 10 -945 -3 -937 -8 5 -15 0 -15 -11 0 -11 9 -25 21 -33 14 -8 14 -21 -2
-41 -13 -15 -16 -28 -6 -28 9 0 16 -317 14 -710 -1 -434 5 -710 16 -710 11 0
13 -11 4 -25 -21 -34 -25 -254 -4 -267 10 -6 11 -21 2 -34 -28 -45 -46 -611
-20 -627 10 -6 12 -51 6 -101 -7 -52 -5 -85 6 -78 10 6 3 -29 -14 -78 -32 -88
-69 -108 -168 -92 -13 2 -381 2 -515 -1 -16 0 -115 0 -220 1 -104 0 -221 0
-260 -1 -308 -6 -3537 -4 -3830 1 -282 5 -2606 7 -2650 1 -27 -3 -914 -19
-1075 -19 -65 0 -65 -1 -65 -100 l0 -100 4500 0 4500 0 0 4500 0 4500 -75 -2
c-41 -2 -90 -7 -109 -12z"/>
<path d="M1626 15599 c-124 -8 -174 -20 -207 -50 -24 -21 -47 -37 -51 -34 -4
3 -10 -2 -12 -10 -2 -8 -24 -31 -50 -52 -25 -20 -42 -44 -36 -53 6 -10 1 -23
-10 -30 -11 -7 -20 -37 -19 -66 1 -58 -1 -2818 -2 -3214 -1 -132 -1 -258 0
-280 6 -177 1 -333 -10 -351 -20 -33 -25 -119 -6 -107 9 6 17 -1 17 -16 0 -14
5 -244 10 -511 5 -267 3 -485 -5 -485 -8 0 -14 -56 -12 -125 2 -76 -5 -131
-20 -140 -17 -11 -17 -14 0 -15 13 0 21 -26 19 -61 -3 -34 2 -65 9 -70 16 -10
5 -225 -14 -269 -21 -50 -19 -108 5 -151 13 -22 19 -76 15 -120 -5 -43 -11
-200 -14 -349 -2 -148 -10 -280 -18 -293 -8 -13 -3 -27 12 -33 18 -7 26 -41
24 -102 -2 -58 6 -94 23 -101 14 -5 26 -29 26 -52 0 -23 8 -37 17 -31 18 11
103 -76 103 -106 0 -10 -27 -39 -60 -65 -33 -26 -60 -56 -60 -67 0 -11 -13
-45 -29 -76 -18 -34 -25 -80 -17 -118 10 -50 7 -59 -16 -45 -24 14 -24 12 -1
-16 14 -18 21 -42 14 -53 -6 -10 -2 -25 10 -33 12 -7 17 -26 11 -41 -6 -15 -3
-25 6 -23 9 3 45 -26 82 -65 l65 -70 443 -2 c243 -1 459 7 479 17 24 12 45 11
58 -2 11 -11 31 -15 45 -10 14 5 31 2 37 -8 6 -10 59 -12 117 -4 58 7 126 12
151 9 25 -2 45 3 45 11 0 37 85 39 180 5 85 -30 104 -31 119 -8 9 16 27 21 42
11 18 -10 20 -7 9 11 -12 20 -7 23 18 13 20 -7 40 -13 45 -13 5 0 5 -7 -1 -17
-6 -9 1 -17 14 -18 13 -1 67 -10 119 -21 62 -12 95 -12 95 1 0 11 18 15 40 9
22 -6 36 -3 31 5 -6 8 10 24 35 35 50 23 134 0 134 -37 0 -13 5 -18 12 -12 7
7 34 4 60 -6 26 -10 48 -11 48 -4 0 8 47 18 104 21 58 3 110 12 115 20 21 27
107 29 90 3 -9 -16 -7 -20 6 -12 12 7 45 4 73 -6 43 -17 57 -13 77 19 25 41
104 55 124 22 6 -10 45 -9 93 3 65 17 86 15 100 -7 9 -15 18 -20 18 -11 0 10
14 7 30 -7 24 -20 30 -20 30 0 0 18 21 21 75 12 41 -8 102 -19 135 -25 81 -14
193 -9 219 11 12 9 66 16 121 14 67 -1 108 8 124 28 20 26 25 26 36 -4 7 -18
26 -29 42 -23 15 6 28 4 28 -6 0 -17 24 -20 200 -23 167 -4 220 1 220 20 0 10
9 13 20 6 11 -7 20 -2 20 10 0 23 63 20 81 -4 22 -29 110 -31 154 -3 25 15 45
21 45 12 0 -8 9 -1 20 15 14 22 19 23 20 4 0 -15 10 -20 22 -13 12 8 30 2 39
-12 19 -32 154 -40 209 -12 49 25 112 27 148 4 38 -23 141 -29 154 -9 6 11 25
10 44 0 19 -10 41 -19 49 -20 8 -1 17 -3 20 -4 28 -11 115 -8 115 4 0 9 18 12
40 8 21 -4 44 0 50 10 6 10 29 14 51 10 38 -8 179 114 179 155 0 10 -23 58
-52 107 -35 59 -48 104 -40 136 7 30 1 57 -18 72 -16 13 -27 30 -24 37 3 7
-25 45 -63 83 -38 39 -61 57 -52 40 13 -24 8 -24 -23 3 -29 25 -158 39 -158
17 0 -5 -78 -22 -100 -22 -11 1 -42 2 -70 4 -80 5 -103 -1 -91 -20 16 -26 -26
-16 -116 27 -50 24 -81 30 -90 17 -7 -12 -35 -19 -63 -17 -27 2 -71 -9 -97
-24 -39 -24 -45 -24 -34 -2 8 15 2 12 -14 -6 -25 -32 -29 -32 -52 0 -13 18
-19 21 -11 6 9 -19 -2 -18 -38 6 -34 22 -55 26 -64 12 -7 -12 -21 -17 -30 -11
-9 6 -23 1 -30 -11 -10 -15 -22 -14 -41 2 -15 12 -36 17 -47 11 -10 -7 -32 1
-49 18 -19 19 -35 23 -43 10 -7 -11 -23 -14 -36 -6 -13 8 -40 12 -59 9 -19 -3
-35 4 -35 15 0 14 -17 15 -51 2 -68 -26 -155 -26 -139 0 7 11 37 15 66 9 48
-10 50 -9 16 12 -30 19 -48 18 -91 -7 -29 -17 -63 -25 -76 -17 -13 8 -78 14
-144 12 -66 -2 -116 4 -111 12 14 22 90 38 90 18 0 -9 16 -13 35 -8 272 67
324 83 312 95 -7 8 10 15 40 17 96 5 103 7 115 23 6 9 44 18 83 20 39 2 68 8
64 12 -22 21 123 73 150 53 21 -15 25 -15 15 2 -13 21 98 82 131 72 8 -3 15 2
15 10 0 8 29 28 65 44 36 15 101 51 145 79 130 83 173 103 195 89 12 -7 16 -4
9 6 -21 34 139 142 192 130 10 -2 11 5 5 16 -7 11 23 45 66 77 44 31 114 98
156 149 42 51 88 89 101 85 13 -4 20 3 15 16 -5 13 25 60 66 104 41 45 79 90
83 100 5 11 43 66 85 122 42 56 77 112 77 125 0 13 9 23 20 23 11 0 20 22 20
49 0 36 8 47 30 38 21 -8 27 -2 19 19 -7 18 7 43 34 62 25 18 35 32 22 32 -13
0 -19 13 -12 30 6 16 19 25 29 19 10 -6 18 6 18 27 0 22 32 119 72 216 81 202
163 452 173 532 4 30 13 61 21 69 8 7 14 44 14 82 0 37 8 83 18 101 10 19 24
106 31 194 7 88 18 201 24 250 7 50 9 270 7 490 -8 568 -9 590 -23 590 -7 0
-17 61 -24 135 -15 191 -29 273 -77 455 -23 88 -51 198 -63 245 -12 47 -29 85
-38 85 -8 0 -15 13 -15 29 0 15 -10 54 -23 85 -13 31 -25 61 -26 66 -1 6 -14
30 -28 55 -14 25 -19 56 -11 69 8 13 5 17 -7 9 -24 -14 -51 41 -34 69 6 10 1
18 -12 18 -13 0 -18 14 -11 31 6 18 3 26 -8 19 -11 -7 -30 11 -43 39 -13 28
-32 51 -44 51 -11 0 -14 6 -7 13 7 7 -6 38 -28 70 -22 31 -35 57 -27 57 7 0
-15 32 -49 71 -34 39 -62 83 -62 98 0 14 -14 32 -31 39 -17 6 -27 20 -20 30 6
9 -7 22 -29 28 -22 6 -46 27 -54 47 -7 20 -30 49 -50 63 -20 15 -36 40 -36 56
0 17 -9 25 -20 18 -11 -7 -20 -2 -20 10 0 12 -8 17 -18 11 -10 -6 -24 13 -31
41 -7 29 -18 47 -25 41 -20 -21 -88 73 -77 106 7 19 -1 16 -20 -9 -32 -41 -82
-7 -55 37 7 11 2 13 -11 5 -13 -8 -23 -4 -23 8 0 12 -8 17 -19 11 -10 -6 -25
-1 -33 12 -9 14 -6 18 9 9 13 -8 23 -6 23 5 0 10 -13 24 -30 30 -16 7 -30 2
-30 -9 0 -11 -9 -15 -20 -8 -12 7 -15 23 -7 36 7 13 6 18 -2 10 -9 -8 -53 11
-99 42 -114 78 -474 262 -513 262 -18 0 -39 6 -46 14 -8 8 -25 16 -39 18 -13
2 -100 29 -194 59 -93 31 -189 57 -213 58 -23 1 -59 15 -79 32 -31 26 -34 25
-18 -1 14 -25 12 -26 -12 -6 -16 13 -47 24 -69 25 -21 0 -97 9 -169 20 -229
35 -1949 20 -2067 -17 -35 -11 -108 -23 -163 -26 -59 -4 -116 -20 -138 -40
-21 -19 -47 -29 -58 -22 -11 7 -14 2 -7 -9 8 -12 -5 -28 -27 -35 -22 -7 -36
-20 -31 -29 6 -9 -12 -21 -39 -26 -45 -9 -54 -2 -48 38 1 7 -13 22 -31 31 -17
10 -26 28 -18 40 7 13 4 17 -9 9 -11 -8 -33 3 -48 24 -68 97 -144 114 -481
103 -173 -5 -317 -5 -320 0 -3 6 -79 5 -169 -1z m894 -3639 l0 -3440 -540 0
-540 0 0 3440 0 3440 540 0 540 0 0 -3440z m2710 3420 c1437 -140 2404 -1160
2583 -2727 153 -1346 -175 -2552 -893 -3274 -153 -154 -510 -439 -549 -439 -5
0 -52 -25 -105 -56 -120 -70 -412 -195 -517 -222 -307 -78 -421 -102 -570
-121 -305 -38 -1626 -20 -2154 30 l-125 12 0 3377 0 3376 125 15 c381 46 1835
65 2205 29z m-2433 -6847 c13 -15 16 -34 8 -43 -8 -9 -4 -10 10 -2 14 8 52 -4
85 -28 33 -24 60 -35 61 -26 0 9 11 3 25 -14 16 -20 65 -31 144 -33 66 -2 152
-6 190 -9 39 -2 88 2 110 10 39 15 39 15 1 -16 -49 -40 -26 -41 50 -2 73 38
81 39 99 10 8 -13 37 -25 65 -27 51 -3 29 -79 -25 -85 -11 -2 -31 -4 -45 -6
-17 -2 -16 -9 5 -22 26 -17 25 -19 -5 -20 -19 0 -35 10 -35 21 0 12 -9 16 -20
9 -11 -7 -20 -4 -20 6 0 24 -98 67 -121 53 -11 -6 -19 2 -19 18 0 20 -13 26
-42 18 -27 -7 -33 -15 -18 -25 15 -9 -1 -24 -43 -40 -80 -30 -131 -27 -192 12
-30 19 -45 21 -45 6 0 -12 -12 -18 -28 -12 -15 6 -35 3 -45 -6 -19 -19 -127
-3 -127 18 0 8 -40 13 -90 11 -49 -1 -90 5 -90 14 0 9 -13 11 -28 5 -51 -20
-61 37 -13 75 25 20 38 37 28 37 -9 0 8 21 38 47 30 26 48 53 41 60 -7 7 6 13
28 13 23 0 51 -12 63 -27z m1403 -223 c-27 -32 -111 -41 -128 -13 -18 29 11
43 84 43 59 0 65 -4 44 -30z m-2563 -172 c73 -26 103 -70 103 -155 0 -123 -71
-183 -219 -183 l-81 0 0 180 0 180 67 0 c37 0 96 -10 130 -22z m363 -8 c0 -22
-22 -30 -80 -30 -72 0 -80 -5 -80 -50 0 -44 9 -50 70 -50 39 0 70 -9 70 -20 0
-11 -31 -20 -70 -20 -61 0 -70 -6 -70 -50 0 -45 8 -50 80 -50 58 0 80 -8 80
-30 0 -23 -24 -30 -100 -30 l-100 0 0 180 0 180 100 0 c76 0 100 -7 100 -30z
m188 18 c18 -7 32 -29 32 -50 0 -32 -6 -35 -37 -15 -40 24 -103 12 -103 -21 0
-10 31 -38 68 -61 100 -61 104 -202 7 -201 -66 1 -115 28 -115 63 0 31 6 34
37 14 100 -62 129 18 33 92 -123 94 -62 233 78 179z m132 -170 c0 -136 -6
-179 -25 -173 -26 8 -47 275 -27 328 30 78 52 12 52 -155z m309 159 c80 -36
60 -61 -37 -46 -74 11 -95 6 -130 -29 -81 -81 -22 -202 98 -202 47 0 60 9 60
40 0 22 -10 38 -22 35 -13 -3 -27 6 -32 20 -6 17 11 25 52 25 102 0 94 -152
-8 -171 -137 -26 -230 45 -230 176 0 134 123 209 249 152z m171 8 c0 -8 50
-69 111 -135 l110 -120 -5 128 c-4 89 2 131 19 137 19 6 25 -37 25 -175 0
-217 -6 -219 -155 -43 l-105 123 0 -130 c0 -102 -6 -130 -30 -130 -24 0 -30
33 -30 180 0 147 6 180 30 180 17 0 30 -7 30 -15z m616 -9 c29 -29 31 -101 3
-129 -11 -11 -14 -36 -7 -56 13 -32 16 -32 32 -3 10 18 32 32 49 32 29 0 29
-5 1 -47 -28 -43 -28 -50 1 -80 42 -41 15 -69 -35 -37 -29 17 -51 18 -87 2
-106 -48 -186 83 -92 149 26 18 34 34 20 42 -33 21 -25 107 14 129 47 28 72
27 101 -2z m484 -6 c0 -22 -22 -30 -80 -30 -72 0 -80 -5 -80 -50 0 -44 9 -50
70 -50 88 0 92 -35 5 -44 -109 -10 -105 -96 4 -96 59 0 81 -8 81 -30 0 -23
-24 -30 -100 -30 l-100 0 0 180 0 180 100 0 c76 0 100 -7 100 -30z m181 -99
l109 -129 6 129 c10 220 64 177 64 -51 0 -222 -13 -225 -160 -45 l-110 135 -6
-135 c-9 -201 -44 -164 -44 45 0 215 1 215 141 51z m494 94 c5 -16 -13 -25
-53 -25 l-62 0 0 -150 c0 -120 -6 -150 -30 -150 -24 0 -30 30 -30 150 0 147
-1 150 -50 150 -32 0 -50 11 -50 31 0 40 262 34 275 -6z m190 7 c38 -29 47
-122 14 -143 -13 -8 -3 -36 26 -76 75 -99 80 -113 46 -113 -17 0 -53 36 -81
80 -28 44 -64 80 -80 80 -22 0 -30 -23 -30 -80 0 -58 -8 -80 -30 -80 -31 0
-47 317 -17 347 23 22 115 13 152 -15z m335 -2 c0 -21 -21 -30 -70 -30 -61 0
-70 -6 -70 -50 0 -44 9 -50 70 -50 39 0 70 -9 70 -20 0 -11 -31 -20 -70 -20
-61 0 -70 -6 -70 -50 0 -44 9 -50 70 -50 49 0 70 -9 70 -30 0 -23 -24 -30
-100 -30 l-100 0 0 180 0 180 100 0 c76 0 100 -7 100 -30z m295 -5 c5 -16 -13
-25 -53 -25 l-62 0 0 -150 c0 -120 -6 -150 -30 -150 -24 0 -30 30 -30 150 0
147 -1 150 -50 150 -32 0 -50 11 -50 31 0 40 262 34 275 -6z m85 -145 c0 -147
-6 -180 -30 -180 -31 0 -47 317 -17 347 36 36 47 -2 47 -167z m275 145 c6 -17
-17 -25 -73 -25 -74 0 -82 -5 -82 -50 0 -44 9 -50 70 -50 39 0 70 -9 70 -20 0
-11 -31 -20 -70 -20 -61 0 -70 -6 -70 -50 0 -45 8 -50 80 -50 58 0 80 -8 80
-30 0 -23 -24 -30 -100 -30 l-100 0 0 181 0 181 93 -6 c53 -3 98 -17 102 -31z
m201 -100 l125 -135 -5 128 c-4 89 2 131 19 137 19 6 25 -37 25 -175 0 -217
-6 -219 -155 -43 l-105 123 0 -130 c0 -102 -6 -130 -30 -130 -32 0 -47 360
-15 360 8 1 72 -60 141 -135z m404 -45 c0 -147 -6 -180 -30 -180 -24 0 -30 33
-30 180 0 147 6 180 30 180 24 0 30 -33 30 -180z m220 51 l110 -127 6 128 c10
219 64 175 64 -52 0 -221 -13 -225 -161 -51 l-109 129 -6 -130 c-9 -201 -51
-155 -48 53 1 93 3 171 3 174 4 23 48 -15 141 -124z m481 108 c68 -36 50 -80
-22 -53 -91 35 -169 -14 -169 -106 0 -92 78 -141 169 -106 72 27 90 -17 22
-53 -94 -51 -224 7 -250 112 -35 141 125 273 250 206z m150 -281 c21 -33 -26
-71 -53 -44 -23 23 -9 66 22 66 10 0 24 -10 31 -22z"/>
<path d="M4451 15255 c-63 -35 -133 -121 -115 -139 26 -26 83 3 71 36 -6 15
-1 28 11 28 12 0 20 10 17 22 -3 13 11 25 30 29 25 4 32 -6 27 -38 -4 -24 -17
-41 -29 -38 -12 2 -16 -9 -10 -25 7 -19 -1 -30 -22 -30 -19 0 -28 -9 -20 -21
7 -12 28 -17 46 -10 26 9 25 5 -4 -18 -20 -15 -31 -38 -24 -50 7 -11 4 -21 -8
-21 -11 0 -21 23 -21 50 0 51 -27 67 -50 30 -7 -11 -1 -21 14 -21 14 -1 5 -10
-20 -20 -30 -12 -61 -12 -84 1 -26 14 -40 13 -47 -5 -5 -14 -11 -16 -11 -5 -1
11 -42 18 -91 16 -77 -3 -89 2 -95 40 -3 26 -23 46 -46 50 -35 5 -36 3 -7 -15
18 -11 38 -42 44 -68 11 -42 22 -47 93 -41 44 4 80 -2 80 -12 0 -11 20 -17 45
-15 27 3 43 -5 40 -20 -3 -14 4 -25 15 -25 11 0 20 13 20 28 0 15 14 33 30 39
17 7 30 4 30 -6 0 -10 5 -34 12 -54 9 -27 7 -30 -7 -10 -16 21 -22 20 -32 -7
-7 -18 -22 -27 -33 -20 -11 7 -15 -1 -8 -17 12 -31 -22 -34 -67 -6 -14 9 -25
6 -25 -6 0 -11 -13 -21 -28 -21 -15 0 -33 -23 -40 -51 -8 -29 -22 -45 -35 -37
-14 9 -15 1 -2 -25 11 -20 13 -55 4 -77 -9 -22 -17 -29 -18 -17 0 13 -28 30
-61 37 -33 7 -60 20 -60 29 0 30 58 65 82 50 15 -10 19 -7 10 8 -9 14 -1 23
19 23 22 0 29 11 21 32 -7 17 -12 35 -12 40 0 4 -10 8 -22 8 -16 0 -15 -9 2
-30 20 -24 19 -30 -5 -30 -17 0 -42 -14 -56 -31 -14 -17 -36 -27 -49 -22 -16
6 -21 -7 -15 -38 6 -29 31 -54 67 -67 47 -16 83 -62 50 -62 -5 0 -25 -6 -44
-13 -27 -11 -32 -6 -22 19 7 18 4 38 -7 45 -16 10 -24 -7 -24 -51 0 -5 7 -30
14 -55 10 -32 5 -45 -16 -45 -19 0 -26 -13 -19 -39 8 -32 2 -36 -37 -28 -35 8
-40 5 -19 -9 15 -11 22 -34 16 -52 -18 -45 -4 -40 54 18 28 28 42 50 31 50
-10 0 -19 10 -19 21 0 12 8 16 18 10 11 -6 23 4 28 24 8 28 10 26 12 -8 2 -51
-46 -152 -65 -133 -7 7 -13 -2 -13 -19 0 -17 11 -36 25 -42 15 -6 11 -10 -10
-11 -19 -1 -35 7 -35 18 0 11 -7 20 -15 20 -8 0 -15 -34 -14 -75 1 -98 15 -95
88 20 33 52 56 95 51 95 -6 0 9 19 32 42 22 22 36 54 30 71 -6 16 -4 24 6 18
19 -11 129 144 129 183 0 13 12 29 28 35 15 6 23 19 16 29 -6 10 5 24 24 31
29 11 30 16 4 32 -25 16 -24 18 4 19 19 0 62 47 98 105 36 58 79 127 97 154
19 29 22 43 7 34 -15 -9 -25 -5 -25 12 0 39 89 119 111 100 10 -8 6 1 -9 20
-15 19 -36 29 -47 22 -10 -7 -25 -3 -32 9 -10 15 -25 14 -52 -1z m-208 -460
c-11 -11 -18 -30 -15 -42 3 -13 2 -17 -3 -9 -4 8 -25 4 -45 -9 -28 -17 -32
-30 -17 -49 14 -17 15 -26 2 -26 -29 0 -52 68 -26 76 11 4 21 20 21 35 0 17
12 23 31 16 17 -7 29 -4 27 6 -6 35 3 49 24 36 14 -9 15 -20 1 -34z"/>
<path d="M3571 15222 c11 -39 7 -46 -19 -36 -17 7 -32 4 -32 -7 0 -10 18 -19
40 -19 25 0 40 13 40 35 1 30 3 31 20 5 11 -16 19 -21 19 -10 0 37 -38 86 -39
50 -1 -27 -3 -27 -22 0 -16 23 -17 19 -7 -18z"/>
<path d="M4302 15244 c-1 -15 -13 -20 -27 -12 -14 8 -18 7 -10 -2 8 -9 5 -28
-7 -42 -12 -15 -14 -38 -5 -52 9 -14 18 -38 20 -53 6 -37 24 -53 42 -35 8 8 0
39 -17 69 -31 54 -14 101 37 105 8 1 20 7 25 13 6 6 0 5 -13 -2 -13 -7 -28 -2
-34 12 -8 19 -10 19 -11 -1z"/>
<path d="M3210 15200 c35 -39 35 -42 1 -67 -21 -15 -31 -41 -25 -64 8 -34 10
-33 12 6 1 31 15 45 42 45 22 0 40 9 40 20 0 26 -64 100 -88 100 -10 0 -2 -18
18 -40z"/>
<path d="M3760 15214 c-16 -13 -32 -33 -33 -44 -2 -12 -9 -43 -15 -70 -14 -58
30 -126 70 -110 17 6 29 44 31 94 l3 83 -30 -63 c-17 -35 -39 -58 -49 -52 -10
6 -11 21 -3 34 8 13 15 39 17 59 1 20 20 49 41 65 21 16 29 29 18 29 -11 0
-33 -11 -50 -25z"/>
<path d="M4134 15212 c-17 -43 7 -112 40 -112 15 0 23 -9 16 -20 -7 -11 -3
-20 8 -20 31 0 39 26 21 70 -11 27 -17 30 -18 10 -2 -24 -8 -22 -30 7 -16 20
-23 50 -17 65 5 15 6 28 0 28 -5 0 -15 -13 -20 -28z"/>
<path d="M4605 15137 c-41 -57 -156 -232 -255 -389 -182 -289 -773 -1213 -810
-1268 -153 -225 -500 -787 -500 -809 0 -7 21 2 47 19 25 16 53 23 61 15 9 -8
14 -6 11 5 -8 42 2 72 21 60 11 -7 20 2 20 19 0 17 18 42 40 56 22 13 40 44
40 67 0 25 20 51 50 64 35 16 45 33 36 57 -9 24 -6 29 14 17 20 -12 23 -3 16
38 -7 35 0 62 22 78 17 13 33 35 34 49 5 58 9 67 29 54 23 -14 81 51 67 75 -5
8 9 24 32 36 23 12 36 30 30 40 -6 9 -2 23 10 30 11 7 29 32 41 56 21 43 21
43 -12 4 -21 -25 -30 -29 -25 -10 5 17 27 38 49 48 33 15 129 135 138 172 1 6
9 25 17 44 9 19 9 45 0 58 -10 17 -4 21 18 12 19 -7 33 -6 31 2 -6 41 10 68
83 142 86 86 98 108 50 89 -42 -16 -37 14 12 73 35 42 40 43 30 10 -12 -39
-12 -39 18 -1 34 44 40 80 10 61 -11 -7 -20 -2 -20 11 0 14 17 19 40 13 22 -6
35 -2 29 8 -6 10 -1 18 12 18 13 0 19 16 14 37 -9 35 33 114 61 112 8 0 11 12
8 27 -4 16 3 22 15 15 12 -8 21 -7 19 3 -9 51 5 89 29 80 19 -7 24 3 19 33 -5
25 9 61 33 87 22 24 41 52 41 62 0 10 31 48 68 85 40 39 65 82 61 102 -3 20 2
41 12 48 11 6 19 0 19 -13 0 -38 27 -2 34 45 4 23 33 90 66 149 74 136 61 138
-35 5z"/>
<path d="M3344 15147 c-10 -18 -14 -52 -8 -75 10 -42 10 -42 -33 -4 -24 21
-49 32 -56 25 -8 -7 -4 -13 8 -13 12 0 28 -18 35 -41 17 -53 78 -11 63 44 -9
34 20 74 54 74 9 0 22 5 28 11 6 7 -7 12 -31 12 -23 0 -50 -15 -60 -33z"/>
<path d="M3480 15119 c0 -27 -10 -34 -35 -27 -23 8 -18 -3 15 -30 28 -22 64
-41 80 -41 19 0 13 10 -16 26 -25 14 -39 31 -31 39 7 8 37 -1 65 -19 51 -33
52 -33 17 7 -19 21 -30 44 -24 50 6 6 -8 16 -30 22 -31 8 -41 1 -41 -27z"/>
<path d="M4033 15147 c12 -5 18 -28 12 -51 -8 -29 -4 -38 12 -28 13 8 23 4 23
-8 0 -12 10 -16 21 -9 14 8 8 23 -15 40 -29 22 -30 28 -6 29 27 1 27 3 0 20
-16 11 -39 19 -50 18 -11 -1 -10 -5 3 -11z"/>
<path d="M5705 14476 c-403 -593 -808 -1190 -1149 -1693 -126 -186 -148 -207
-405 -392 -257 -184 -323 -249 -229 -225 29 8 38 3 31 -16 -7 -18 -1 -24 16
-18 15 6 23 26 18 44 -8 33 24 59 362 293 47 33 120 112 162 177 42 65 88 122
102 128 15 6 27 23 27 38 0 15 9 28 20 28 11 0 20 14 20 31 0 16 13 35 30 42
16 6 26 18 21 25 -5 8 12 39 38 69 33 39 51 47 59 29 6 -14 6 -5 0 21 -8 30 1
61 27 90 21 24 59 77 83 118 25 41 54 70 64 64 10 -6 18 7 18 29 0 22 8 45 18
51 10 6 36 46 59 89 49 96 105 163 124 151 8 -5 13 7 12 26 -2 19 8 33 21 30
14 -2 21 7 16 20 -5 14 44 100 110 191 66 92 120 172 120 178 0 7 21 40 46 74
26 34 53 78 60 98 8 20 23 31 34 24 11 -7 20 2 20 19 0 18 13 37 29 43 16 6
24 23 18 38 -5 14 7 38 27 53 20 15 49 50 64 77 16 28 38 68 50 89 12 22 33
52 47 67 14 15 48 67 77 115 28 49 60 89 70 89 10 0 18 13 18 28 0 16 7 32 15
35 20 9 89 160 78 171 -5 5 -207 -282 -448 -638z"/>
<path d="M3829 15078 c-7 -11 5 -34 27 -49 26 -19 37 -43 30 -69 -6 -23 -1
-40 13 -40 13 0 18 9 10 21 -7 11 -2 34 12 50 19 23 18 29 -6 29 -44 0 -60 56
-19 66 25 7 22 10 -10 12 -24 1 -50 -8 -57 -20z"/>
<path d="M3060 15037 c0 -9 11 -17 25 -17 17 -1 15 -7 -5 -20 -28 -18 25 -32
85 -22 8 1 16 -7 18 -18 1 -11 4 -29 7 -40 3 -11 6 -24 8 -30 1 -5 22 10 46
34 26 26 34 47 21 51 -13 4 -18 21 -12 36 16 40 -13 36 -45 -6 -16 -20 -27
-25 -27 -11 -1 14 -14 20 -31 13 -18 -7 -30 0 -30 18 0 15 -13 28 -30 28 -16
0 -30 -7 -30 -16z"/>
<path d="M3411 15006 c-11 -30 -16 -31 -32 -5 -15 24 -18 23 -19 -6 0 -19 14
-35 30 -35 17 0 30 -14 30 -31 0 -17 7 -27 16 -22 17 11 17 106 0 124 -6 6
-17 -5 -25 -25z"/>
<path d="M3633 15010 c7 -19 -1 -30 -22 -30 -27 0 -28 -5 -7 -28 14 -15 29
-20 32 -11 4 9 17 14 30 11 13 -3 17 -2 9 3 -8 5 -15 26 -15 47 0 21 -9 38
-19 38 -11 0 -15 -13 -8 -30z"/>
<path d="M3954 14959 c29 -37 26 -121 -3 -104 -12 7 -9 -2 6 -21 15 -18 36
-29 45 -23 34 21 18 103 -27 141 -24 21 -34 24 -21 7z"/>
<path d="M3820 14925 c1 -69 29 -89 87 -63 87 40 73 72 -17 38 -48 -18 -51
-16 -40 20 7 23 4 40 -9 40 -11 0 -21 -16 -21 -35z"/>
<path d="M3301 14905 c-1 -48 48 -63 67 -20 6 14 9 7 6 -15 -3 -30 7 -39 40
-35 33 3 41 -4 32 -27 -10 -28 -6 -29 31 -5 24 15 42 45 42 67 -2 39 -2 39
-17 1 -11 -27 -19 -31 -30 -14 -12 19 -22 19 -44 2 -23 -19 -28 -16 -28 17 0
55 -32 73 -50 29 -13 -32 -16 -32 -31 5 -15 38 -16 38 -18 -5z"/>
<path d="M6118 14842 c-14 -47 -40 -86 -61 -93 -20 -6 -37 -20 -37 -30 0 -28
35 -23 46 6 5 14 16 18 24 10 9 -8 5 -27 -8 -42 -18 -22 -16 -31 8 -40 19 -8
30 -3 27 12 -11 56 24 111 64 101 28 -8 39 -1 39 27 -1 27 -5 30 -17 11 -31
-49 -83 -6 -61 50 10 29 15 56 10 61 -5 5 -20 -28 -34 -73z"/>
<path d="M6205 14873 c-3 -34 1 -36 16 -13 14 23 18 16 19 -27 0 -51 4 -55 32
-31 20 17 24 29 10 34 -12 4 -22 19 -22 34 0 45 -52 49 -55 3z"/>
<path d="M3168 14863 c32 -36 33 -43 7 -43 -18 0 -35 -11 -40 -25 -11 -33 -75
17 -67 51 3 13 1 16 -4 7 -5 -10 -17 -5 -26 10 -10 15 -18 17 -18 6 0 -30 77
-109 106 -108 82 2 113 77 49 117 -45 28 -45 28 -7 -15z"/>
<path d="M6327 14820 c-20 -33 -47 -60 -61 -60 -14 0 -26 -15 -26 -32 0 -27 5
-28 30 -8 25 20 30 19 30 -8 0 -17 10 -32 21 -32 12 0 16 -9 9 -20 -7 -11 -3
-20 8 -20 29 0 46 35 24 49 -44 27 -19 131 26 109 42 -20 42 -20 2 12 -34 27
-36 34 -10 50 18 12 21 20 6 20 -13 0 -40 -27 -59 -60z"/>
<path d="M3675 14846 c-19 -5 -35 -17 -35 -27 0 -11 -7 -17 -15 -14 -8 3 -18
-4 -21 -14 -13 -37 28 -32 72 9 24 23 44 32 44 21 0 -11 14 -14 32 -8 29 12 1
51 -32 44 -5 -1 -26 -6 -45 -11z"/>
<path d="M3260 14809 c0 -13 19 -29 42 -35 23 -6 37 -20 30 -30 -6 -11 1 -30
17 -43 23 -19 26 -16 17 18 -7 29 -1 41 22 41 17 0 32 10 32 21 0 12 -10 15
-22 8 -12 -8 -30 -2 -39 12 -20 34 -99 40 -99 8z"/>
<path d="M3812 14789 c10 -41 5 -54 -30 -63 -23 -6 -42 -19 -42 -29 0 -11 15
-10 37 1 20 11 56 15 80 9 31 -8 43 -3 43 20 0 20 -11 28 -31 20 -17 -7 -29
-4 -27 6 7 43 -4 87 -22 87 -12 0 -15 -21 -8 -51z"/>
<path d="M3192 14748 c-27 -71 17 -92 79 -39 44 38 50 51 25 51 -18 0 -47 -14
-65 -31 -17 -18 -31 -24 -31 -14 0 9 11 28 24 41 16 16 17 24 2 24 -12 0 -27
-14 -34 -32z"/>
<path d="M6529 14705 c8 -15 1 -25 -18 -25 -17 0 -31 -12 -31 -27 0 -15 -31
-69 -70 -119 -38 -50 -70 -105 -70 -122 0 -16 -9 -35 -20 -42 -11 -7 -20 -22
-20 -35 0 -12 23 -1 50 25 37 34 44 52 26 63 -14 8 -18 21 -10 30 31 31 64
-32 38 -73 -13 -22 -16 -40 -5 -40 10 0 25 10 32 21 7 12 26 17 41 11 15 -6
28 -2 28 9 0 10 -14 19 -31 19 -24 0 -28 11 -18 45 28 90 29 104 2 48 -21 -45
-30 -51 -39 -26 -8 20 10 57 46 96 32 35 54 71 48 80 -20 33 38 16 63 -18 14
-19 30 -30 36 -25 5 6 -13 37 -41 70 -28 33 -44 49 -37 35z"/>
<path d="M3705 14680 c4 -16 28 -33 52 -36 28 -5 43 -21 44 -50 2 -43 2 -43
20 2 10 26 27 41 37 35 11 -6 24 -3 31 7 6 10 -4 24 -23 31 -18 7 -40 1 -49
-13 -12 -19 -16 -20 -17 -2 0 14 -14 20 -32 12 -18 -6 -41 1 -52 16 -16 23
-18 23 -11 -2z"/>
<path d="M6142 14665 c-2 -47 21 -54 88 -25 36 15 34 17 -13 19 -30 0 -58 12
-64 26 -5 14 -11 5 -11 -20z"/>
<path d="M3233 14646 c-56 -29 -96 -41 -149 -44 -15 -1 -21 -11 -15 -21 7 -11
25 -14 42 -8 16 6 29 2 29 -10 0 -12 20 -31 45 -43 41 -20 42 -19 10 6 -47 38
-45 44 33 90 62 37 69 37 78 7 5 -18 16 -49 24 -68 8 -21 5 -35 -8 -35 -12 0
-22 14 -22 30 0 21 -20 29 -65 28 -36 -2 -49 -7 -30 -12 19 -5 35 -20 35 -32
0 -15 9 -12 22 6 16 23 19 18 12 -25 -7 -45 -3 -51 19 -33 16 14 27 15 27 3 0
-11 -13 -30 -28 -43 -22 -18 -23 -34 -5 -72 26 -56 49 -64 65 -21 14 36 68 17
68 -23 0 -19 -12 -26 -30 -19 -16 7 -30 5 -30 -3 0 -9 -18 -17 -40 -18 -37 -3
-90 57 -69 79 6 5 -2 19 -16 31 -20 17 -26 13 -26 -17 0 -21 7 -39 15 -39 9 0
16 -10 16 -21 0 -34 57 -83 80 -69 29 18 25 -31 -5 -58 -14 -12 -22 -20 -17
-17 5 2 20 -5 33 -16 18 -15 29 -15 38 0 8 12 4 21 -9 21 -15 0 -14 13 2 45
22 40 25 41 37 9 9 -27 18 -15 34 45 12 47 14 81 3 81 -10 0 -12 10 -4 23 8
13 3 19 -14 13 -37 -13 -80 85 -52 119 13 18 10 37 -13 62 -40 44 -42 65 -6
51 45 -17 80 -111 49 -131 -18 -11 -19 -16 -2 -17 13 0 29 9 36 20 19 30 50
24 50 -10 0 -39 28 -38 61 1 19 23 20 36 2 54 -17 17 -23 17 -23 -1 0 -13 -10
-24 -22 -24 -13 0 -16 14 -8 35 18 44 35 124 19 91 -6 -13 -27 -18 -45 -11
-29 11 -30 8 -8 -19 19 -24 20 -36 3 -47 -13 -8 -32 -2 -42 13 -10 16 -25 38
-33 50 -24 39 -92 45 -151 14z"/>
<path d="M3672 14626 c-20 -21 -14 -69 8 -56 11 7 20 -2 20 -20 0 -18 -9 -27
-20 -20 -11 7 -20 3 -20 -9 0 -35 37 -23 60 19 22 41 -19 115 -48 86z"/>
<path d="M3867 14570 c7 -18 13 -42 13 -52 0 -10 14 -18 30 -18 44 0 36 46
-13 77 -38 24 -41 23 -30 -7z"/>
<path d="M6043 14545 c-24 -48 -8 -85 38 -85 28 0 34 9 25 35 -11 30 -9 31 17
10 34 -28 27 -124 -11 -150 -15 -10 -14 -14 3 -15 14 0 25 -13 25 -30 0 -16
-13 -30 -30 -30 -16 0 -30 -10 -30 -22 0 -14 18 -11 48 9 52 34 72 26 72 -31
0 -31 7 -34 40 -16 22 12 40 31 40 42 0 11 -10 14 -21 7 -34 -20 -80 55 -54
87 16 19 25 20 36 3 10 -17 18 -17 28 -1 7 12 3 22 -9 22 -12 0 -16 10 -9 22
8 12 -9 7 -36 -11 -49 -32 -50 -31 -50 18 0 54 25 69 42 26 8 -19 10 -19 11 1
1 15 11 21 22 14 11 -7 20 -4 20 7 0 24 -58 47 -81 32 -10 -6 -29 7 -42 28
-14 23 -37 34 -54 28 -19 -8 -24 -4 -15 12 8 12 10 23 4 23 -6 0 -19 -16 -29
-35z"/>
<path d="M6280 14563 c0 -11 9 -26 20 -33 11 -7 20 -21 20 -32 0 -11 -7 -16
-15 -11 -8 5 -15 -12 -15 -38 0 -70 33 -24 37 52 2 36 -8 69 -22 74 -14 4 -25
-1 -25 -12z"/>
<path d="M6747 14539 c-24 -9 -49 -26 -56 -38 -8 -12 -22 -16 -32 -10 -11 6
-19 4 -19 -5 0 -9 -26 -16 -57 -17 -47 0 -55 6 -48 40 9 38 7 37 -25 -5 -32
-44 -32 -48 12 -86 39 -34 42 -43 17 -60 -25 -16 -25 -22 2 -43 17 -14 37 -41
45 -60 16 -43 94 -47 94 -5 0 17 -13 30 -30 30 -16 0 -30 9 -30 20 0 11 9 20
20 20 11 0 20 15 20 33 0 31 -3 31 -37 0 -60 -55 -96 -39 -42 18 39 42 41 49
11 37 -27 -10 -35 -7 -28 14 6 15 25 25 44 22 18 -3 59 12 91 35 62 44 101 53
101 21 0 -10 -22 -25 -50 -32 -27 -7 -50 -25 -50 -40 0 -16 -13 -22 -35 -15
-28 9 -30 7 -6 -10 21 -15 45 -9 89 22 47 34 57 36 47 10 -7 -17 0 -42 15 -55
22 -18 25 -14 15 21 -9 38 -5 42 37 31 40 -10 39 -7 -7 14 -31 15 -50 32 -44
39 29 28 -21 70 -64 54z"/>
<path d="M3754 14512 c-8 -20 -2 -32 14 -32 15 0 33 -14 39 -31 17 -43 -75
-84 -115 -51 -22 19 -32 19 -43 0 -10 -16 -7 -19 9 -9 15 9 23 5 21 -12 -12
-84 3 -148 23 -99 10 26 14 53 8 59 -6 6 18 20 54 32 78 25 89 64 39 128 -31
41 -39 43 -49 15z"/>
<path d="M3601 14461 c-16 -10 -36 -14 -45 -8 -9 5 -16 0 -16 -12 0 -11 7 -21
15 -21 8 0 26 -24 39 -53 37 -78 4 -125 -83 -118 -39 3 -65 -3 -59 -13 6 -10
29 -12 52 -5 34 11 38 6 26 -30 -10 -31 -1 -54 30 -81 l43 -37 -47 -9 c-41 -8
-40 -9 9 -11 61 -3 81 68 25 90 -16 6 -30 20 -30 30 0 11 9 14 20 7 11 -7 15
0 9 15 -5 14 10 47 34 73 39 42 40 49 10 65 -41 24 -44 97 -3 97 17 0 30 9 30
20 0 25 -21 25 -59 1z"/>
<path d="M5919 14472 c-1 -1 -6 -24 -10 -52 -7 -42 -5 -45 12 -15 25 42 68 47
52 6 -7 -19 -1 -25 16 -19 42 16 23 75 -26 78 -24 2 -44 3 -44 2z"/>
<path d="M6728 14356 c3 -15 15 -26 27 -26 39 0 54 -32 24 -51 -22 -14 -22
-18 -3 -19 56 0 83 51 41 77 -21 13 -46 19 -56 14 -10 -6 -22 -2 -28 9 -5 12
-8 10 -5 -4z"/>
<path d="M3120 14344 c0 -9 11 -27 24 -40 18 -18 9 -29 -40 -46 -35 -12 -64
-31 -64 -42 0 -13 12 -11 29 3 16 14 39 19 50 11 12 -7 27 2 34 20 7 18 25 28
40 22 39 -15 34 -5 -23 44 -27 24 -50 37 -50 28z"/>
<path d="M6040 14299 c0 -12 -8 -16 -19 -10 -10 6 -32 -7 -48 -30 -28 -40 -30
-41 -50 -6 -11 20 -24 32 -30 27 -5 -6 12 -35 39 -66 l48 -57 19 47 19 46 14
-47 c12 -41 23 -46 81 -36 37 6 67 2 67 -8 0 -11 -9 -19 -20 -19 -11 0 -20
-13 -20 -29 0 -25 -12 -25 -91 -2 -60 18 -89 20 -84 6 4 -12 22 -25 41 -28 19
-4 47 -10 63 -13 44 -9 63 -34 26 -34 -43 0 -63 -36 -38 -67 25 -29 6 -61 -42
-69 -22 -4 -35 7 -35 30 -1 30 -4 31 -19 7 -13 -20 -11 -35 5 -46 17 -11 7
-31 -34 -67 -45 -40 -50 -50 -20 -45 26 5 37 -4 35 -28 -1 -19 6 -29 17 -23
10 7 14 25 7 41 -14 39 25 112 55 102 46 -16 95 70 57 100 -28 21 -24 22 22 6
30 -11 55 -13 56 -6 0 8 13 -2 29 -24 16 -21 36 -32 43 -25 28 28 69 -29 44
-60 -19 -23 -18 -33 4 -47 44 -28 67 -22 40 9 -24 30 -9 47 34 41 14 -2 35 -5
47 -6 13 -2 18 -21 12 -43 -7 -26 0 -40 18 -40 15 0 28 9 28 20 0 11 14 20 30
20 17 0 30 9 30 19 0 27 -77 65 -101 50 -11 -6 -19 -5 -17 5 10 60 -3 90 -31
67 -16 -14 -39 -19 -50 -12 -12 8 -21 3 -21 -9 0 -12 -10 -16 -21 -9 -12 7
-16 27 -10 44 9 24 6 26 -16 8 -40 -33 -137 18 -112 58 10 16 29 29 43 29 14
1 24 16 20 34 -3 18 4 39 15 46 12 7 21 2 21 -10 0 -30 118 -5 155 32 24 24
23 28 -2 28 -17 0 -36 -9 -43 -20 -7 -12 -21 -15 -31 -9 -11 6 -19 0 -19 -14
0 -19 -5 -20 -24 -1 -13 13 -39 24 -58 24 -18 0 -39 14 -45 30 -7 17 -22 30
-34 30 -12 0 -16 -8 -10 -19 19 -31 -29 -46 -61 -19 -19 16 -26 42 -19 72 7
25 7 46 1 46 -5 0 -10 -10 -10 -21z"/>
<path d="M6480 14266 c0 -21 -11 -26 -35 -17 -27 10 -30 8 -11 -10 14 -15 38
-18 60 -8 20 8 43 14 51 12 35 -7 11 33 -25 43 -27 7 -40 0 -40 -20z"/>
<path d="M6860 14257 c0 -28 37 -37 46 -12 7 19 15 19 34 2 19 -18 15 -26 -16
-36 -62 -19 -71 -66 -11 -60 41 5 45 1 25 -23 -19 -23 -19 -35 0 -54 20 -19
23 -18 18 6 -4 19 7 28 29 24 19 -3 35 4 35 16 0 12 -7 18 -16 13 -8 -6 -17
13 -20 41 -6 79 -124 157 -124 83z"/>
<path d="M5785 14247 c19 -5 35 -24 35 -41 0 -18 -11 -26 -29 -19 -19 7 -25 1
-18 -18 13 -33 47 -39 47 -9 0 11 9 20 20 20 31 0 24 -59 -11 -94 -39 -39 -21
-61 22 -26 60 51 31 189 -41 194 -33 2 -44 -1 -25 -7z"/>
<path d="M3195 14226 c-42 -11 -47 -46 -7 -46 16 0 32 -11 37 -24 6 -19 11
-19 23 0 8 13 5 24 -6 24 -11 0 -16 14 -9 30 6 17 8 29 4 28 -4 -2 -23 -7 -42
-12z"/>
<path d="M6705 14203 c3 -18 -7 -43 -23 -56 -36 -27 -2 -127 43 -127 17 1 16
7 -5 20 -25 16 -25 19 -1 20 20 0 18 8 -10 29 -38 28 -38 29 -1 57 24 18 32
38 22 54 -11 17 -8 21 7 12 13 -8 18 -35 12 -61 -9 -32 -2 -50 23 -59 48 -18
69 9 53 68 l-13 50 -15 -50 c-15 -47 -16 -46 -11 10 5 51 -2 61 -41 63 -34 2
-45 -6 -40 -30z"/>
<path d="M3685 14211 c8 -10 1 -33 -15 -52 -28 -30 -28 -36 2 -61 30 -25 32
-23 20 16 -10 31 -5 45 20 49 31 6 31 10 -4 36 -21 16 -31 22 -23 12z"/>
<path d="M3800 14199 c0 -12 -9 -16 -20 -9 -11 7 -20 4 -20 -6 0 -11 20 -26
45 -35 41 -14 39 -16 -20 -23 -36 -5 -65 -18 -65 -29 0 -11 18 -14 40 -7 24 8
40 4 40 -10 0 -12 -8 -17 -19 -11 -10 6 -43 -11 -73 -39 -29 -27 -44 -50 -32
-50 11 0 35 14 53 31 36 37 40 23 10 -32 -27 -52 -50 -49 -102 10 -24 27 -51
45 -61 38 -10 -6 -2 -24 18 -40 20 -17 25 -25 12 -18 -13 6 -29 -6 -36 -28
-11 -34 -19 -36 -66 -16 -74 32 -73 30 -44 65 29 35 62 40 55 8 -3 -13 9 -27
25 -32 24 -7 24 -5 3 10 -14 10 -26 26 -26 36 0 10 -18 25 -40 33 -32 12 -39
9 -30 -14 6 -16 2 -35 -9 -42 -12 -7 -16 -26 -10 -41 6 -15 4 -26 -4 -25 -36
8 -81 -29 -70 -57 11 -28 16 -27 39 5 25 34 28 34 67 -1 42 -38 57 -103 18
-79 -16 10 -16 3 -1 -26 15 -28 15 -45 -2 -62 -17 -17 -17 -23 0 -23 12 0 28
9 35 20 7 12 21 15 31 9 11 -6 19 -2 19 9 0 11 -8 25 -19 31 -10 7 -18 27 -17
46 1 19 -6 52 -15 73 -13 31 -9 36 17 26 20 -7 41 1 53 22 17 28 20 29 20 3 1
-17 -10 -42 -23 -55 -17 -17 -17 -24 -2 -24 13 0 30 22 39 49 12 35 25 45 44
33 34 -21 -7 -96 -62 -114 -19 -6 -35 -20 -35 -31 0 -10 9 -14 21 -6 11 7 33
2 48 -10 20 -17 36 -8 68 43 24 39 33 70 21 77 -20 12 10 48 52 62 11 4 19 18
17 32 -1 13 5 20 13 15 9 -5 21 4 28 21 8 21 3 27 -13 18 -14 -7 2 9 35 37 57
48 58 52 25 89 -19 21 -29 44 -22 52 8 7 -1 13 -20 13 -18 0 -33 -10 -33 -21z"/>
<path d="M6413 14151 c-30 -28 -67 -44 -83 -38 -17 6 -30 2 -30 -9 0 -30 73
-42 101 -17 19 18 22 13 14 -21 -11 -45 33 -81 56 -45 6 10 0 19 -13 19 -14 0
-19 6 -11 13 7 8 -2 30 -20 50 -18 21 -23 37 -11 37 12 0 27 -8 33 -18 6 -10
31 -14 56 -8 36 8 39 5 15 -12 -20 -15 -22 -21 -5 -22 14 0 25 -13 25 -30 0
-34 17 -37 59 -11 17 10 23 25 16 33 -8 8 -4 27 9 43 20 24 16 28 -25 25 -122
-11 -150 -3 -108 29 32 25 33 30 7 30 -18 1 -56 -21 -85 -48z"/>
<path d="M3075 14108 c-7 -7 -8 -24 -2 -38 5 -14 -1 -32 -14 -40 -17 -11 -16
-19 4 -32 39 -25 48 -22 50 17 1 19 6 49 11 65 5 17 6 23 1 15 -5 -8 -17 -15
-28 -15 -11 0 -14 9 -7 20 14 22 4 27 -15 8z"/>
<path d="M3240 14100 c0 -11 9 -20 20 -20 11 0 20 -19 20 -41 0 -23 9 -36 20
-29 11 7 20 2 20 -11 0 -18 7 -18 30 1 16 13 24 34 16 46 -8 13 0 16 21 8 21
-8 33 -3 33 17 0 27 -20 36 -55 24 -8 -3 -14 -21 -13 -41 2 -20 -7 -32 -20
-27 -12 4 -20 16 -18 27 2 10 -14 29 -35 42 -24 15 -39 16 -39 4z"/>
<path d="M5611 14076 c-9 -20 -28 -29 -48 -23 -26 8 -27 6 -6 -9 17 -12 20
-24 7 -32 -21 -12 -10 -86 14 -101 8 -5 26 10 40 33 22 36 22 40 -4 30 -45
-17 -56 7 -20 43 24 24 35 26 41 8 5 -14 20 -25 35 -25 14 0 36 -27 47 -60 12
-33 34 -66 51 -72 36 -14 19 -68 -21 -68 -15 0 -36 22 -47 50 -18 46 -80 53
-80 8 0 -9 14 -12 30 -5 20 8 30 -1 30 -29 0 -53 69 -69 109 -25 17 19 31 45
31 58 0 12 10 23 21 23 12 0 16 -9 9 -20 -20 -32 22 -23 50 10 26 31 27 31
-104 39 -19 1 -40 8 -47 15 -19 19 11 99 32 86 9 -6 12 -25 5 -42 -9 -24 0
-30 36 -25 29 4 50 22 54 47 5 38 4 38 -22 5 -29 -36 -65 -49 -45 -16 12 19
-21 47 -64 54 -14 2 -19 -6 -12 -18 9 -14 1 -17 -21 -8 -20 7 -39 13 -43 13
-4 0 -2 15 5 33 8 21 5 29 -9 20 -12 -7 -26 -2 -31 12 -6 17 -14 15 -23 -9z"/>
<path d="M6855 14085 c-18 -34 -13 -125 6 -125 12 0 16 9 9 20 -7 11 -5 20 4
20 10 0 19 23 21 50 4 46 -23 69 -40 35z"/>
<path d="M3176 14020 c5 -33 17 -60 28 -60 10 0 13 18 6 40 -14 43 20 57 37
15 6 -16 10 -13 11 8 2 29 -35 57 -76 57 -8 0 -11 -27 -6 -60z"/>
<path d="M6593 13990 c-17 -17 -39 -32 -47 -32 -9 -1 -20 -7 -26 -13 -5 -6 2
-5 16 3 19 12 23 1 15 -41 -6 -31 -6 -46 1 -32 6 14 20 20 29 14 10 -6 13 4 6
23 -9 21 0 44 23 61 21 14 32 32 26 38 -6 6 -25 -3 -43 -21z"/>
<path d="M6725 13946 c-36 -17 -65 -41 -65 -53 0 -13 -9 -9 -20 7 -17 26 -19
25 -20 -5 0 -38 50 -48 71 -13 8 13 27 6 51 -20 44 -47 48 -63 13 -55 -14 4
-18 3 -10 -2 28 -16 15 -41 -20 -38 -19 2 -42 21 -50 43 -11 31 -13 28 -8 -14
4 -30 -3 -59 -15 -64 -15 -6 -14 -9 2 -10 13 -1 29 7 36 18 19 32 50 23 37
-10 -14 -37 35 -40 70 -5 31 31 68 -17 52 -68 -6 -19 0 -40 14 -49 17 -10 20
-4 10 21 -10 26 -6 32 15 25 15 -6 34 -5 42 2 7 8 33 14 57 14 31 0 41 10 37
37 -4 22 2 32 15 24 11 -7 21 -5 21 6 0 10 -14 24 -31 31 -18 6 -26 3 -19 -8
7 -11 -2 -20 -19 -20 -51 0 -30 63 29 85 20 8 15 12 -15 13 -48 2 -82 -74 -54
-120 11 -17 5 -21 -17 -12 -24 9 -29 3 -20 -22 7 -19 -12 0 -41 42 -30 42 -48
87 -40 100 7 13 6 17 -3 9 -18 -16 -90 59 -90 93 0 12 9 9 19 -8 15 -24 24
-25 44 -5 45 45 -7 66 -78 31z"/>
<path d="M3234 13908 c6 -16 22 -28 36 -28 15 0 31 -11 36 -25 14 -41 33 -7
22 38 -8 28 -28 42 -58 42 -32 0 -43 -9 -36 -27z"/>
<path d="M7033 13927 c-25 -26 -13 -67 20 -67 19 0 49 -14 67 -30 29 -26 42
-27 82 -5 55 30 70 68 27 68 -16 0 -29 -12 -29 -26 0 -15 -13 -27 -30 -27 -16
0 -30 17 -30 38 0 48 -74 82 -107 49z"/>
<path d="M5519 13891 c26 -31 10 -79 -20 -60 -10 6 -13 -4 -5 -23 9 -25 5 -32
-16 -24 -16 6 -48 -15 -74 -47 -32 -39 -37 -53 -15 -45 17 7 31 20 31 30 0 10
18 18 39 18 24 0 52 24 70 59 40 76 39 121 -1 121 -27 0 -28 -6 -9 -29z"/>
<path d="M6891 13898 c10 -15 -2 -18 -33 -10 -27 6 -37 6 -23 0 14 -6 25 -23
25 -37 0 -14 15 -38 33 -53 29 -25 31 -23 18 20 -9 26 -8 42 3 36 9 -6 17 6
17 27 0 22 -12 39 -26 39 -15 0 -21 -10 -14 -22z"/>
<path d="M3131 13827 c-9 -35 -4 -59 13 -70 37 -23 56 -21 57 8 1 14 10 4 20
-22 11 -25 30 -43 44 -38 35 12 44 75 14 102 -19 18 -22 13 -14 -22 6 -25 3
-50 -7 -56 -17 -11 -26 26 -23 91 5 72 -86 78 -104 7z"/>
<path d="M6032 13809 c-17 -45 -15 -53 8 -39 11 7 20 -1 20 -18 0 -16 8 -34
17 -40 25 -16 20 54 -7 94 -23 32 -26 33 -38 3z"/>
<path d="M5547 13789 c-7 -18 -3 -41 9 -53 42 -42 3 -78 -69 -64 -57 11 -66 7
-55 -20 15 -38 41 -42 55 -7 8 20 10 19 11 -1 2 -19 12 -20 43 -3 31 16 49 16
70 -2 21 -17 29 -17 29 -1 0 40 41 23 59 -25 19 -51 59 -74 128 -72 42 2 42 2
3 19 -34 15 -35 17 -5 19 42 1 46 32 6 48 -17 7 -34 -4 -41 -27 -7 -24 -23
-34 -42 -26 -17 6 -25 24 -19 40 6 17 -9 46 -34 67 -40 33 -41 38 -9 38 20 1
31 10 24 21 -7 12 -22 15 -33 8 -11 -6 -25 7 -31 30 -6 23 -19 37 -28 31 -10
-7 -9 -28 2 -49 34 -64 22 -90 -20 -45 -22 24 -34 57 -28 74 7 17 7 31 0 31
-8 0 -19 -14 -25 -31z"/>
<path d="M6267 13785 c9 -14 -10 -20 -55 -16 -47 3 -66 -2 -59 -19 6 -17 37
-19 110 -8 101 16 154 38 92 38 -17 0 -47 6 -67 13 -22 9 -30 6 -21 -8z"/>
<path d="M6541 13759 c25 -47 66 -43 75 8 5 24 -7 33 -45 33 -47 0 -50 -4 -30
-41z"/>
<path d="M7100 13758 c0 -10 8 -18 18 -18 10 0 45 -25 78 -56 63 -59 189 -21
129 39 -15 15 -25 9 -34 -21 -21 -66 -64 -48 -54 22 2 8 -11 9 -27 3 -17 -6
-30 -2 -30 9 0 10 -18 24 -40 30 -22 6 -40 2 -40 -8z"/>
<path d="M3580 13710 c0 -32 -11 -50 -31 -50 -23 0 -28 -12 -18 -42 11 -37 8
-39 -30 -19 -23 13 -37 31 -32 40 20 31 -67 37 -93 6 -22 -27 -19 -29 22 -16
29 9 42 8 35 -4 -6 -11 -4 -47 6 -81 12 -43 11 -64 -5 -69 -13 -5 -23 -30 -24
-57 0 -34 -10 -46 -34 -42 -19 3 -44 -13 -56 -35 -14 -28 -15 -41 -1 -41 12 0
21 9 21 20 0 11 10 20 21 20 12 0 15 -11 7 -25 -28 -50 27 15 79 94 42 64 47
84 27 108 -20 25 -18 28 9 18 42 -15 112 76 71 92 -14 6 -10 11 10 11 39 2 75
59 62 97 -16 43 -46 27 -46 -25z"/>
<path d="M6381 13745 c-16 -6 -45 -30 -63 -52 -31 -38 -35 -39 -66 -8 -18 18
-46 28 -61 23 -40 -16 -56 -68 -20 -68 16 0 30 11 31 25 1 14 9 3 18 -25 9
-27 17 -36 18 -19 3 44 107 36 114 -10 3 -19 12 -41 20 -48 8 -7 9 3 2 22 -8
23 -3 35 17 35 16 0 29 9 29 20 0 11 -13 20 -30 20 -48 0 -35 39 20 60 28 10
50 24 50 30 0 13 -41 11 -79 -5z"/>
<path d="M5860 13700 c0 -11 9 -20 19 -20 11 0 14 -15 7 -33 -8 -22 -5 -29 9
-20 12 8 27 5 34 -5 6 -10 -3 -23 -19 -29 -43 -17 -37 -67 10 -79 23 -6 39
-26 39 -47 -2 -34 -3 -34 -19 3 -9 22 -18 29 -19 16 0 -13 -17 -28 -36 -35
-19 -6 -45 -33 -58 -61 -28 -60 -20 -63 33 -10 44 44 90 54 68 15 -7 -14 7 -6
32 18 59 56 43 158 -22 141 -33 -9 -36 -6 -17 17 13 16 31 24 41 18 10 -6 12
3 6 20 -7 17 -19 31 -28 31 -8 0 -20 18 -26 40 -10 41 -54 57 -54 20z"/>
<path d="M6476 13677 c-52 -54 -64 -125 -27 -156 22 -19 31 -19 31 -2 0 13 8
18 18 12 10 -6 13 8 7 32 -11 41 -12 41 -38 6 -20 -27 -27 -29 -26 -8 1 50 55
105 89 92 19 -8 27 -23 18 -38 -9 -16 -4 -15 14 3 22 21 22 29 3 36 -14 5 -21
17 -15 26 21 34 -42 31 -74 -3z"/>
<path d="M7160 13616 c0 -60 2 -62 29 -25 38 50 38 62 1 76 -23 9 -30 -3 -30
-51z"/>
<path d="M7340 13645 c-67 -26 -117 -145 -61 -145 11 0 15 14 8 30 -13 34 28
95 53 80 9 -5 21 4 27 20 7 17 10 29 7 28 -2 0 -17 -6 -34 -13z"/>
<path d="M6705 13587 c0 -29 15 -51 43 -59 23 -7 48 -22 55 -33 8 -12 16 -12
24 1 7 11 -16 31 -52 43 l-65 24 60 25 60 26 -62 9 c-55 8 -63 3 -63 -36z"/>
<path d="M6643 13577 c-15 -23 -38 -36 -55 -29 -18 7 -25 3 -17 -9 7 -11 -2
-43 -20 -70 -17 -27 -24 -49 -15 -49 10 0 28 23 41 52 15 33 35 48 53 41 16
-6 35 -1 42 11 9 13 5 17 -9 8 -30 -19 -30 13 1 44 13 13 19 28 14 33 -5 5
-21 -9 -35 -32z"/>
<path d="M6998 13604 c-7 -22 -38 -35 -101 -42 -7 -1 -18 -15 -24 -31 -7 -19
-1 -25 18 -18 16 6 29 22 29 34 1 17 5 17 15 0 20 -32 93 20 80 57 -7 21 -10
21 -17 0z"/>
<path d="M3190 13580 c-7 -12 2 -14 22 -6 27 10 32 5 22 -20 -13 -36 55 -88
74 -57 16 26 -8 42 -45 30 -26 -9 -27 -7 -5 9 15 11 21 30 13 42 -17 27 -64
29 -81 2z"/>
<path d="M5360 13595 c0 -9 10 -32 23 -53 25 -40 11 -102 -22 -102 -12 0 -21
13 -21 29 0 16 -9 34 -19 40 -22 14 -101 -30 -101 -55 0 -9 11 -9 25 -1 37 23
75 26 75 5 0 -10 -15 -18 -33 -18 -58 0 -19 -18 58 -26 47 -5 69 -1 61 12 -8
13 0 16 20 8 18 -7 39 -3 46 9 18 30 46 -20 37 -67 -4 -21 4 -36 17 -34 50 6
76 -3 64 -22 -7 -12 -20 -16 -28 -11 -8 5 -11 -18 -6 -50 5 -33 17 -65 27 -71
11 -6 13 10 6 38 -7 28 -3 56 9 63 25 15 30 92 7 89 -59 -10 -95 5 -55 22 32
14 33 17 7 19 -19 0 -46 28 -60 61 -27 60 -66 87 -44 30 20 -51 -7 -33 -51 35
-23 36 -41 58 -42 50z"/>
<path d="M6180 13585 c0 -14 -13 -25 -29 -25 -42 0 -56 -34 -31 -80 26 -49 60
-52 60 -5 -1 30 -3 31 -20 5 -17 -26 -19 -26 -20 2 0 18 18 40 39 50 30 13 35
26 21 48 -13 20 -19 22 -20 5z"/>
<path d="M7101 13556 c0 -30 -17 -63 -36 -74 -32 -19 -32 -21 -2 -21 19 -1 38
10 43 24 7 17 19 13 40 -15 34 -44 24 -81 -14 -56 -13 9 -8 1 11 -17 20 -17
29 -39 21 -48 -8 -8 -3 -9 11 -1 14 8 25 29 25 47 0 17 6 26 13 19 7 -7 29 -4
50 7 31 17 37 13 37 -23 0 -31 -10 -40 -36 -33 -25 6 -35 -2 -35 -28 0 -41 75
-76 87 -40 5 15 18 15 45 -2 29 -19 43 -19 62 0 18 18 30 16 50 -11 14 -19 26
-23 26 -10 1 13 -12 36 -29 53 -36 36 -54 167 -30 213 13 23 10 33 -9 33 -16
0 -23 -13 -17 -31 7 -25 3 -25 -20 4 -25 30 -31 31 -41 5 -7 -19 -1 -31 18
-31 22 0 26 -18 18 -75 -8 -55 -5 -67 10 -45 16 23 20 15 21 -36 0 -37 -7 -63
-15 -58 -8 4 -33 14 -54 22 -33 12 -35 17 -10 33 19 12 21 18 4 19 -14 0 -25
13 -25 28 0 16 11 33 25 38 14 5 18 16 10 25 -8 8 -37 5 -65 -7 -36 -17 -50
-17 -50 -1 0 15 -10 14 -30 -3 -25 -21 -36 -11 -68 63 -35 78 -39 81 -41 33z"/>
<path d="M3334 13510 c-31 -66 -74 -95 -74 -50 0 11 -13 20 -28 20 -16 0 -33
11 -39 25 -7 18 -20 14 -42 -14 -20 -25 -31 -29 -31 -11 0 14 -5 21 -12 15
-14 -15 19 -77 44 -82 10 -2 16 -10 13 -18 -6 -19 -9 -19 77 11 84 29 126 67
143 129 17 69 -14 54 -51 -25z"/>
<path d="M5600 13561 c0 -11 14 -15 30 -8 22 8 30 -3 30 -41 0 -29 -10 -52
-21 -52 -12 0 -16 9 -9 20 7 11 3 20 -9 20 -11 0 -21 -15 -21 -32 0 -22 12
-29 38 -23 31 8 37 0 35 -52 -2 -51 4 -62 33 -57 21 4 50 -4 66 -18 24 -19 27
-18 16 9 -12 32 -33 41 -81 35 -15 -2 -20 30 -16 92 6 93 -10 125 -66 126 -14
0 -25 -9 -25 -19z"/>
<path d="M6287 13550 c-6 -16 -21 -24 -32 -17 -12 8 -15 4 -7 -10 8 -13 4 -23
-8 -23 -12 0 -17 -9 -10 -20 7 -12 21 -15 32 -9 10 6 24 -2 30 -20 13 -32 48
-24 48 11 0 11 -8 15 -19 9 -10 -6 -24 -3 -31 9 -11 17 13 28 53 23 7 -1 8 16
3 38 -13 46 -43 51 -59 9z"/>
<path d="M5720 13524 c0 -32 45 -59 82 -49 36 9 34 13 -14 38 -61 31 -68 33
-68 11z"/>
<path d="M6036 13430 c-4 -40 -1 -77 8 -82 9 -6 16 0 16 12 0 12 9 17 19 10
11 -6 10 17 -3 54 -30 89 -30 89 -40 6z"/>
<path d="M6927 13470 c7 -18 0 -30 -16 -30 -15 0 -31 11 -36 25 -6 18 -16 17
-38 -5 -32 -32 -28 -80 6 -80 11 0 14 8 8 18 -6 10 16 21 49 26 32 5 62 -1 66
-12 4 -12 18 -2 31 23 20 37 19 42 -7 32 -16 -6 -30 -1 -30 11 0 12 -10 22
-22 22 -12 0 -17 -13 -11 -30z"/>
<path d="M6394 13452 c7 -12 26 -38 42 -57 34 -39 6 -49 -32 -11 -19 19 -24
16 -24 -13 0 -20 -16 -50 -35 -65 -31 -26 -31 -28 -2 -19 30 9 47 -16 52 -75
1 -10 13 -25 28 -34 14 -9 19 -23 10 -31 -20 -21 -78 17 -105 69 -20 40 -24
41 -67 10 -81 -56 -117 20 -45 94 l54 55 13 -53 c11 -45 13 -46 15 -8 2 51 34
78 49 41 6 -16 10 -13 11 8 1 18 -18 38 -42 44 -49 13 -96 -17 -96 -59 0 -16
-18 -28 -40 -28 -23 0 -40 13 -40 31 0 25 -5 26 -28 5 -22 -20 -22 -27 -3 -32
14 -3 36 -42 49 -85 21 -70 28 -77 63 -59 21 12 39 14 39 6 0 -9 10 -2 22 14
17 24 20 22 12 -14 -5 -24 1 -48 13 -52 17 -7 16 -20 -2 -51 -22 -37 -21 -43
8 -43 19 0 28 6 21 12 -7 7 -1 24 12 37 34 34 112 51 126 28 7 -11 24 -15 39
-9 15 6 33 1 40 -9 17 -28 49 -3 47 37 -1 21 -5 24 -11 9 -22 -55 -187 84
-187 158 0 61 122 45 135 -18 3 -14 -8 -25 -25 -25 -16 0 -30 -5 -30 -11 0 -7
14 -25 30 -42 29 -29 44 9 32 79 -2 10 22 14 53 10 44 -5 56 3 61 39 4 25 -2
45 -13 45 -11 0 -16 23 -11 50 5 28 0 50 -12 50 -11 0 -20 -18 -20 -40 0 -22
-11 -40 -25 -41 -14 0 -4 -12 22 -27 42 -23 44 -27 13 -39 -19 -8 -47 -3 -63
9 -15 13 -27 16 -27 8 0 -8 -13 -4 -30 10 -16 13 -24 34 -17 45 8 12 3 15 -10
7 -14 -9 -23 0 -23 23 0 21 -13 38 -29 38 -16 0 -24 -9 -17 -21z"/>
<path d="M5121 13409 c15 -18 15 -29 0 -38 -12 -8 -21 -24 -21 -36 0 -12 12
-6 27 14 17 23 37 31 53 21 17 -11 21 -8 12 7 -8 13 -5 23 6 23 11 0 25 -9 32
-20 7 -11 23 -20 36 -20 39 0 -53 54 -111 64 -43 8 -51 5 -34 -15z"/>
<path d="M3260 13381 c-49 -20 -98 -32 -107 -26 -9 5 -7 -10 6 -33 13 -24 32
-37 43 -31 12 7 15 18 9 25 -6 6 36 32 94 57 125 54 85 61 -45 8z"/>
<path d="M6895 13360 c-31 -29 -30 -32 6 -35 21 -1 39 6 39 17 0 10 22 15 50
10 27 -5 55 -1 61 9 6 11 4 20 -5 21 -92 9 -123 4 -151 -22z"/>
<path d="M5365 13338 c-7 -28 -22 -38 -48 -31 -20 5 -37 2 -37 -7 0 -8 18 -20
40 -26 27 -7 40 -27 40 -61 0 -39 8 -49 32 -40 22 9 24 17 8 27 -16 10 -13 19
11 28 40 15 40 16 58 -43 11 -37 7 -43 -23 -33 -26 9 -29 7 -10 -7 22 -16 22
-24 -2 -48 -40 -41 -60 -111 -34 -127 11 -7 17 -19 12 -27 -5 -9 -2 -48 7 -89
16 -69 -3 -105 -26 -49 -6 16 -16 18 -26 5 -34 -41 -87 -27 -87 22 0 33 -11
48 -35 48 -27 -1 -29 -4 -8 -18 20 -12 22 -27 8 -53 -19 -33 -21 -33 -33 6
-15 46 -74 69 -114 44 -34 -21 -59 -5 -45 30 6 16 24 23 42 16 20 -7 27 -4 18
10 -8 13 2 32 22 43 40 24 -3 70 -44 48 -12 -7 -10 0 4 16 21 22 34 22 65 2
64 -39 104 12 46 59 -28 24 -30 21 -16 -23 13 -42 11 -46 -13 -26 -43 36 -109
24 -112 -20 -2 -25 7 -34 26 -26 42 16 35 -23 -8 -47 -27 -14 -48 -12 -73 7
-32 23 -33 27 -3 38 18 7 33 24 33 38 -1 18 -6 17 -20 -4 -11 -16 -20 -23 -20
-14 0 9 -15 2 -33 -16 -34 -34 -12 -69 44 -70 11 0 20 -18 20 -40 0 -22 -8
-40 -17 -40 -10 0 -13 -15 -6 -33 11 -27 8 -28 -17 -8 -29 25 -33 62 -8 81 22
17 -75 77 -100 62 -14 -9 -29 -51 -34 -94 -5 -43 -3 -64 4 -48 30 69 102 80
97 15 -2 -26 -17 -45 -35 -45 -46 -1 -62 -23 -27 -37 17 -6 36 -3 43 8 7 12
532 19 1384 19 754 0 1367 4 1362 10 -6 5 -111 11 -235 13 -195 2 -223 7 -212
34 7 18 6 26 -1 18 -8 -7 -27 0 -44 17 -16 16 -35 24 -42 17 -7 -6 3 -21 22
-31 43 -25 46 -58 4 -58 -17 0 -26 9 -19 20 7 11 4 20 -7 20 -11 0 -25 -11
-31 -25 -6 -14 -7 -5 -1 20 9 35 5 42 -21 32 -18 -7 -28 -24 -22 -39 8 -22
-54 -27 -334 -27 -213 0 -333 7 -315 18 16 10 35 15 43 10 7 -5 18 9 24 31 12
48 -20 74 -53 41 -17 -18 -14 -20 17 -11 30 10 26 1 -17 -36 -64 -54 -146 -64
-188 -21 -33 32 -65 35 -65 7 0 -11 -8 -20 -17 -20 -10 0 -13 25 -9 55 7 43 4
48 -12 25 -12 -16 -22 -44 -22 -62 0 -17 -13 -31 -29 -31 -21 0 -24 9 -11 34
10 18 13 39 6 46 -7 7 -2 13 10 13 48 0 -2 56 -60 68 -73 14 -216 -24 -216
-59 0 -14 -12 -29 -27 -35 -14 -6 -26 2 -26 17 0 15 9 21 21 14 12 -7 9 4 -7
23 -18 22 -32 28 -37 14 -4 -12 -16 -17 -26 -11 -10 6 -18 2 -18 -10 0 -11
-13 -21 -30 -21 -32 0 -41 32 -12 43 10 4 10 27 0 54 -16 42 -21 43 -49 15
-17 -18 -26 -41 -19 -52 20 -33 -43 -45 -93 -19 -46 24 -46 24 -12 -15 25 -28
53 -37 95 -30 35 5 60 0 60 -13 0 -15 16 -16 51 -2 47 17 51 15 45 -24 -3 -24
-19 -48 -34 -53 -17 -6 -22 0 -14 13 9 15 -3 23 -32 23 -37 -1 -40 -4 -16 -20
23 -15 17 -19 -27 -20 -48 0 -54 5 -34 28 12 16 15 33 6 39 -10 6 -30 -7 -46
-28 -37 -51 -67 -50 -53 2 7 25 0 46 -18 52 -30 12 -35 92 -10 156 14 35 16
36 29 3 7 -20 8 -43 3 -52 -6 -10 -2 -23 8 -29 40 -25 45 35 6 87 -29 40 -34
64 -21 88 11 19 14 43 8 53 -7 10 -3 24 9 31 27 17 26 90 -2 90 -12 0 -18 -12
-12 -28 8 -20 -6 -26 -51 -24 -34 2 -66 14 -70 28 -5 13 4 21 18 17 15 -3 20
-3 12 2 -24 13 -17 61 10 72 19 7 18 10 -2 11 -15 1 -32 -17 -38 -40z m694
-483 c1 -8 -6 -14 -14 -13 -41 7 -65 -5 -65 -32 0 -16 -12 -30 -27 -30 -15 0
-24 18 -21 45 2 25 5 56 6 69 5 58 119 22 121 -39z m-144 -23 c5 -5 2 -20 -5
-33 -11 -17 -19 -16 -32 4 -10 16 -18 18 -18 5 0 -13 -22 -23 -50 -23 -59 0
-63 11 -16 46 32 23 98 24 121 1z"/>
<path d="M5946 13345 c-7 -19 -25 -42 -39 -51 -15 -9 -27 -29 -27 -45 0 -33
-32 -39 -50 -9 -7 11 -22 20 -33 20 -12 0 0 -18 26 -40 32 -28 36 -36 12 -28
-26 9 -35 2 -35 -29 0 -31 -9 -39 -35 -30 -26 8 -28 6 -9 -8 30 -22 121 -10
160 21 21 17 24 9 15 -38 -11 -52 -10 -54 8 -12 12 26 30 41 41 34 11 -7 15 1
8 19 -7 17 -34 31 -60 31 -26 0 -48 9 -48 20 0 11 9 20 19 20 11 0 15 14 8 30
-6 17 -1 30 11 30 12 0 22 -13 22 -29 0 -16 10 -35 22 -42 15 -10 18 1 9 33
-13 46 -12 47 18 9 17 -21 31 -29 31 -16 0 12 -14 37 -32 54 -26 26 -27 38 -8
62 18 21 19 29 2 29 -13 0 -29 -16 -36 -35z"/>
<path d="M7059 13315 c-22 -36 -45 -85 -51 -109 -6 -24 -25 -48 -42 -55 -25
-9 -26 -17 -6 -41 37 -44 60 -36 60 20 0 28 9 50 20 50 11 0 20 10 20 21 0 12
-11 15 -25 7 -20 -11 -20 -8 -1 12 20 22 30 22 56 0 17 -14 37 -20 44 -13 7 7
1 13 -13 13 -15 0 -20 13 -13 31 6 18 3 26 -8 19 -30 -19 -24 9 10 43 35 34
39 67 10 67 -11 0 -39 -29 -61 -65z"/>
<path d="M3233 13278 c-20 -23 -31 -54 -26 -69 6 -14 0 -30 -13 -35 -19 -7
-18 -18 0 -50 21 -35 19 -43 -10 -53 -21 -7 -36 -34 -38 -76 -4 -62 -1 -59 70
55 40 66 72 127 69 135 -3 8 4 15 14 15 40 0 61 72 21 74 -26 2 -40 -15 -49
-63 -6 -37 -25 -72 -42 -78 -37 -15 -37 2 1 40 17 17 25 38 19 48 -6 10 -1 36
11 59 28 51 18 51 -27 -2z"/>
<path d="M5633 13285 c-22 -37 -7 -121 20 -111 15 6 27 0 27 -12 0 -12 -9 -22
-20 -22 -11 0 -20 -9 -20 -19 0 -11 14 -14 32 -8 21 8 28 29 23 60 -7 36 -1
47 29 47 21 0 33 9 26 19 -7 12 -30 13 -61 1 -39 -15 -49 -13 -49 12 0 17 9
25 20 18 11 -7 20 -3 20 9 0 24 -33 28 -47 6z"/>
<path d="M6656 13265 c-17 -19 -36 -48 -44 -65 -8 -16 0 -12 17 10 31 38 70
20 71 -35 0 -8 22 -20 49 -27 55 -13 113 -68 72 -68 -13 0 -41 9 -62 21 -37
19 -44 13 -37 -34 1 -7 -11 -21 -25 -31 -18 -12 -10 -14 23 -4 28 8 70 13 95
12 73 -6 54 62 -33 117 -50 32 -75 61 -71 84 9 49 -21 60 -55 20z"/>
<path d="M3142 13263 c-1 -17 -15 -23 -37 -15 -32 11 -32 10 1 -16 21 -16 28
-33 17 -40 -24 -15 -24 -132 -1 -132 29 0 43 44 18 60 -19 11 -19 25 -1 59 13
23 20 58 15 77 -6 20 -10 23 -12 7z"/>
<path d="M6031 13207 c-8 -32 -4 -62 11 -75 18 -17 21 -13 12 13 -9 25 -2 35
25 35 26 0 38 -13 36 -40 -2 -22 -11 -40 -19 -40 -9 0 -16 -14 -16 -31 0 -17
-8 -26 -19 -20 -10 6 -25 1 -33 -12 -9 -15 -5 -18 12 -7 20 12 23 7 13 -22
-12 -36 -11 -36 14 -3 34 43 53 45 53 5 0 -16 -11 -31 -25 -32 -14 -2 2 -9 35
-16 58 -14 130 11 130 44 0 9 -16 13 -35 10 -24 -4 -33 5 -29 29 3 19 -4 35
-15 35 -12 0 -20 -7 -19 -15 10 -61 -7 -89 -23 -37 -14 46 -10 65 17 85 31 25
31 26 -6 13 -34 -11 -36 -9 -15 17 28 35 14 57 -38 57 -24 0 -32 10 -24 30 6
17 2 30 -9 30 -11 0 -26 -24 -33 -53z"/>
<path d="M5192 13190 c-13 -50 -70 -72 -65 -25 2 14 -5 27 -15 30 -10 3 -19
-22 -20 -55 -1 -33 5 -60 13 -60 8 0 15 8 15 17 0 9 11 17 25 19 93 8 144 22
151 42 4 12 18 16 31 9 13 -7 16 -6 8 4 -21 22 -96 27 -83 6 6 -10 1 -17 -11
-17 -41 0 -20 57 24 66 40 8 39 9 -8 11 -41 2 -56 -8 -65 -47z"/>
<path d="M5528 13170 c4 -22 15 -57 23 -78 12 -29 9 -34 -10 -23 -20 13 -20 7
-2 -27 26 -48 51 -57 34 -12 -7 18 0 30 18 30 16 0 29 10 29 21 0 12 -9 16
-20 9 -10 -6 -33 18 -50 54 -17 36 -27 48 -22 26z"/>
<path d="M7194 13167 c13 -5 19 -23 13 -39 -8 -21 -1 -25 26 -16 31 10 32 8 7
-10 -26 -20 -25 -27 9 -52 31 -24 33 -30 7 -30 -17 0 -37 15 -44 33 -7 18 -17
28 -23 23 -18 -19 15 -76 44 -76 17 0 23 -10 16 -22 -8 -12 -3 -29 10 -37 18
-11 15 -19 -8 -28 -21 -8 -28 -5 -20 9 10 15 -2 18 -33 9 -47 -13 -47 -12 -8
19 42 34 -71 36 -125 3 -12 -7 -26 -2 -32 12 -8 20 -10 20 -11 -1 -1 -14 11
-30 28 -37 16 -6 25 -19 19 -29 -6 -10 -1 -18 12 -18 13 0 18 14 12 30 -7 19
0 30 19 30 17 0 25 -9 18 -20 -7 -11 8 -21 34 -23 25 -1 66 -4 90 -7 32 -3 46
9 56 48 12 45 15 47 33 17 10 -19 28 -35 39 -35 11 0 42 -25 68 -55 27 -30 49
-45 49 -32 1 12 -13 28 -30 35 -17 6 -26 21 -19 32 7 11 20 16 29 10 9 -5 22
4 28 20 7 18 0 30 -15 30 -36 0 -62 67 -30 77 14 5 4 20 -24 35 -36 20 -40 27
-14 27 24 1 31 11 22 33 -10 27 -18 23 -44 -20 -17 -29 -38 -52 -47 -52 -8 0
-15 -10 -15 -22 0 -16 8 -16 29 1 23 19 34 12 60 -38 37 -70 -27 -96 -66 -27
-16 29 -24 30 -51 8 -43 -36 -45 14 -3 69 35 46 40 109 10 109 -12 0 -16 -8
-10 -18 13 -22 -7 -82 -28 -82 -9 0 -11 24 -5 53 6 35 2 48 -12 40 -12 -8 -27
-5 -34 7 -7 11 -23 19 -36 18 -19 -1 -19 -3 0 -11z"/>
<path d="M5671 13082 c-36 -14 -36 -16 8 -27 37 -10 44 -22 34 -60 -11 -43 -5
-47 61 -47 39 0 62 3 49 8 -13 4 -18 16 -12 26 6 10 -1 18 -17 18 -15 0 -44
18 -64 40 -20 22 -26 40 -14 40 12 0 27 -9 34 -20 7 -11 30 -20 52 -20 22 0
35 9 28 20 -7 11 -1 20 12 20 14 0 19 6 12 13 -7 7 -28 0 -47 -15 -26 -22 -35
-22 -42 -3 -9 28 -36 30 -94 7z"/>
<path d="M6427 13055 c9 -57 104 -67 104 -11 0 42 -14 45 -47 12 -19 -19 -24
-16 -24 10 0 19 -9 34 -20 34 -11 0 -17 -20 -13 -45z"/>
<path d="M6899 13061 c29 -53 27 -87 -4 -68 -42 27 -111 29 -126 5 -10 -15 0
-18 31 -8 33 11 41 8 29 -11 -10 -16 -7 -20 8 -11 37 23 107 -8 95 -41 -8 -19
-3 -24 12 -15 14 9 19 4 12 -15 -22 -56 32 -101 62 -51 22 36 22 39 1 19 -21
-20 -31 -10 -52 50 -34 96 -33 106 3 92 19 -7 30 0 30 19 0 20 -13 27 -40 20
-31 -8 -38 -3 -28 22 8 21 1 32 -21 32 -26 0 -28 -8 -12 -39z"/>
<path d="M5330 13040 c7 -11 3 -20 -9 -20 -11 0 -21 -19 -21 -41 0 -33 -9 -39
-43 -28 -28 9 -38 6 -28 -9 7 -12 0 -22 -18 -22 -17 0 -31 -9 -31 -20 0 -12
19 -10 49 3 39 18 59 16 99 -10 28 -18 55 -24 61 -14 7 10 2 24 -9 31 -11 7
-15 21 -9 31 6 11 2 19 -10 19 -11 0 -21 -10 -21 -23 0 -13 -5 -18 -12 -12 -7
7 2 40 18 74 27 53 27 61 1 61 -16 0 -24 -9 -17 -20z"/>
<path d="M6550 12993 c-26 -29 -26 -75 0 -68 11 3 19 16 17 30 -1 13 6 20 15
14 10 -6 18 -2 18 9 0 31 -28 40 -50 15z"/>
<path d="M6296 12905 c-5 -52 -7 -98 -4 -102 14 -20 80 40 82 75 4 51 -28 56
-40 7 -5 -19 -5 -1 -1 40 4 41 -1 75 -11 75 -10 0 -22 -43 -26 -95z"/>
<path d="M6480 12979 c0 -12 -9 -16 -20 -9 -28 18 -108 -10 -87 -30 26 -25
127 1 127 32 0 16 -4 28 -10 28 -5 0 -10 -10 -10 -21z"/>
<path d="M6700 12935 c0 -14 7 -35 15 -47 20 -30 111 3 100 36 -12 37 -55 43
-55 8 0 -18 -10 -32 -22 -32 -12 0 -17 14 -11 30 7 17 3 30 -8 30 -10 0 -19
-11 -19 -25z"/>
<path d="M6534 12867 c-8 -8 -14 -28 -14 -45 1 -24 5 -26 17 -6 12 19 30 20
71 5 75 -29 128 0 61 32 -27 13 -44 15 -38 5 16 -25 -38 -23 -63 2 -12 12 -27
15 -34 7z"/>
<path d="M6768 12837 c-19 -31 -3 -35 72 -18 39 10 57 19 40 20 -16 2 -46 7
-65 11 -19 3 -40 -2 -47 -13z"/>
<path d="M4745 12680 c-2 -36 1 -37 28 -10 17 17 38 26 47 20 10 -6 23 -2 30
10 7 12 -11 20 -45 20 -42 0 -57 -10 -60 -40z"/>
<path d="M4897 12644 c-35 -49 -150 -137 -334 -254 -155 -99 -282 -186 -282
-193 -4 -56 229 -4 279 62 22 29 140 103 140 87 0 -9 9 -3 19 13 10 15 33 30
52 33 19 3 43 17 52 32 9 14 17 19 17 10 0 -12 90 85 136 146 7 10 175 16 554
18 352 3 457 3 610 1 83 -1 222 -2 310 -1 88 0 205 0 260 -1 687 -8 874 -3
891 25 10 15 19 21 19 13 0 -19 80 49 80 69 0 9 -619 16 -1375 16 l-1375 -1
-53 -75z"/>
<path d="M4852 12665 c-9 -8 -26 -15 -39 -15 -12 0 -23 -13 -23 -28 0 -19 -24
-30 -65 -32 -68 -3 -118 -30 -56 -30 30 0 32 -5 10 -32 -42 -50 106 43 161
102 41 44 51 75 12 35z"/>
<path d="M4531 12521 c-8 -12 -4 -21 7 -21 11 0 15 -15 8 -34 -8 -21 -16 -25
-21 -10 -5 13 -16 24 -26 24 -10 0 -13 -13 -6 -30 8 -21 -2 -30 -31 -30 -25 0
-42 -13 -42 -32 0 -28 -5 -29 -35 -5 -32 25 -33 24 -5 -12 27 -35 27 -37 -5
-25 -23 8 -35 3 -35 -16 0 -16 -12 -24 -27 -19 -15 6 -26 -2 -26 -19 0 -17 9
-24 21 -17 139 84 292 190 292 204 0 31 -55 64 -69 42z"/>
<path d="M4187 12208 c4 -61 57 -137 81 -114 6 7 12 2 12 -12 0 -13 8 -20 17
-14 9 6 36 -7 59 -29 23 -21 47 -39 53 -39 30 0 268 -177 255 -190 -7 -9 -3
-10 11 -2 35 20 205 -101 205 -147 0 -43 60 -67 165 -65 41 1 75 -8 75 -20 0
-15 8 -15 25 0 31 25 535 24 535 -1 0 -10 11 -10 25 -1 14 9 487 17 1051 18
740 2 1033 9 1049 25 17 17 -336 23 -1409 23 l-1433 0 -60 75 c-36 46 -185
154 -380 275 -204 128 -324 214 -330 240 -5 22 -8 12 -6 -22z"/>
<path d="M4112 12163 c-7 -11 -1 -23 13 -28 20 -7 19 -16 -2 -42 -15 -18 -36
-28 -45 -22 -10 6 -18 2 -18 -9 0 -44 178 -145 215 -122 30 19 28 20 -13 9
-32 -9 -43 -6 -33 9 8 13 -2 22 -23 22 -30 1 -31 4 -6 20 23 15 18 19 -24 20
-51 0 -53 3 -32 62 21 61 -4 127 -32 81z"/>
<path d="M3800 12121 c0 -22 18 -49 41 -61 22 -12 35 -31 28 -41 -6 -10 -4
-19 6 -19 9 0 49 -31 89 -68 39 -37 89 -73 109 -80 20 -7 71 -45 113 -84 42
-40 81 -68 86 -63 19 19 130 -110 119 -139 -6 -15 -3 -23 6 -18 16 10 143
-148 143 -178 0 -7 14 -26 30 -43 17 -17 24 -40 17 -52 -7 -12 -4 -16 7 -9 20
13 166 -165 166 -203 0 -13 9 -23 20 -23 10 0 25 -22 32 -50 7 -27 19 -50 26
-50 8 0 36 -38 62 -85 27 -47 69 -106 94 -131 26 -26 41 -55 35 -66 -7 -10 0
-17 14 -13 14 3 26 -4 27 -15 2 -28 50 -114 83 -150 76 -81 105 -127 93 -146
-6 -11 -3 -14 9 -7 20 12 55 -40 48 -71 -1 -8 15 -24 37 -36 22 -12 40 -33 40
-48 0 -14 16 -41 36 -58 20 -18 49 -65 64 -104 15 -38 35 -70 44 -70 9 0 16
-13 16 -29 0 -15 19 -34 41 -41 25 -8 38 -25 31 -42 -6 -15 -3 -28 6 -28 10 0
22 -19 28 -42 7 -27 20 -37 36 -27 14 9 19 7 11 -5 -7 -12 19 -61 57 -109 38
-48 70 -98 70 -112 0 -14 9 -25 20 -25 11 0 20 -9 20 -20 0 -17 29 -56 110
-148 42 -48 84 -143 75 -170 -7 -18 -2 -22 14 -13 14 9 37 -2 55 -29 27 -38
137 -100 177 -100 31 0 -44 110 -1033 1534 -70 102 -285 411 -477 688 -379
547 -353 521 -796 825 -186 128 -185 127 -185 74z"/>
<path d="M4376 11933 c-14 -14 -37 -23 -49 -19 -13 5 -29 -1 -36 -13 -8 -12 0
-21 16 -21 16 0 34 -13 40 -30 7 -16 28 -29 47 -28 34 2 34 3 1 12 -19 5 -35
16 -35 26 0 9 18 12 40 6 22 -6 40 -1 40 11 0 12 -13 17 -30 10 -42 -16 -38
27 5 51 19 12 24 21 11 21 -13 1 -35 -11 -50 -26z"/>
<path d="M4494 11834 c-7 -19 -28 -34 -46 -34 -27 0 -28 -5 -8 -30 29 -35 69
-41 49 -8 -8 12 -3 29 11 38 14 8 21 27 16 42 -6 19 -12 16 -22 -8z"/>
<path d="M4552 11643 c-6 -10 13 -44 43 -75 l55 -58 7 48 c5 37 11 42 24 20
14 -22 22 -23 42 -3 20 20 17 26 -14 28 -21 2 -49 4 -61 5 -13 2 -36 14 -54
28 -17 15 -35 18 -42 7z"/>
<path d="M5610 11500 c-8 -13 -6 -32 4 -42 41 -41 181 -38 155 3 -6 10 -33 9
-60 -1 -27 -11 -50 -15 -51 -10 -2 6 -4 18 -5 28 -5 33 -29 45 -43 22z"/>
<path d="M7373 11461 c9 -46 6 -63 -8 -54 -12 8 -27 5 -34 -5 -6 -10 4 -23 21
-30 21 -8 29 -27 22 -52 -6 -22 -2 -45 7 -51 9 -5 12 -23 6 -39 -6 -16 9 -56
33 -90 46 -65 26 -134 -33 -112 -31 12 -34 -6 -9 -45 13 -21 19 -19 29 7 8 21
26 29 44 22 19 -7 26 -3 18 10 -8 12 1 18 21 14 37 -6 98 65 120 140 13 45 11
45 -47 -10 -34 -31 -52 -59 -42 -63 11 -3 14 -14 8 -24 -6 -10 -28 -2 -50 16
-40 35 -55 77 -19 55 11 -7 20 7 20 30 0 32 11 41 43 36 24 -3 46 3 50 15 16
45 -98 15 -124 -33 -24 -44 -27 -45 -40 -11 -9 21 -5 43 8 51 18 11 16 31 -7
76 -17 34 -24 77 -17 97 13 34 15 34 29 -2 14 -35 15 -36 17 -3 0 20 -17 55
-39 79 l-41 43 14 -67z"/>
<path d="M5200 11486 c0 -14 27 -39 61 -56 33 -18 56 -39 50 -49 -6 -9 2 -22
18 -28 17 -6 35 -3 42 8 6 10 2 19 -10 19 -11 0 -21 14 -21 31 0 17 -9 26 -20
19 -11 -7 -20 1 -20 18 0 20 -11 26 -32 18 -18 -6 -40 1 -50 16 -12 19 -17 20
-18 4z"/>
<path d="M5463 11482 c-14 -9 -28 -24 -30 -34 -2 -10 -8 -16 -14 -14 -6 2 -12
-14 -14 -35 -3 -51 29 -50 45 1 7 22 20 40 28 40 8 0 15 14 15 30 0 17 0 30
-1 30 -1 0 -14 -8 -29 -18z"/>
<path d="M6563 11456 c-2 -29 -13 -60 -25 -67 -15 -10 -18 0 -9 28 10 32 5 43
-18 43 -23 0 -29 -14 -22 -51 6 -34 1 -49 -15 -43 -13 4 -22 25 -19 46 6 36 5
36 -16 1 -13 -20 -17 -42 -9 -50 23 -23 146 -17 137 7 -11 30 82 79 121 64 17
-7 36 -4 43 7 6 10 22 19 35 19 16 -1 15 -6 -3 -18 -19 -12 -21 -21 -5 -31 12
-7 22 -4 22 6 0 11 16 24 35 28 24 6 12 15 -35 29 -38 11 -79 15 -90 9 -11 -7
-33 -14 -48 -16 -15 -2 -35 -15 -43 -29 -10 -16 -18 -8 -24 24 -9 46 -10 46
-12 -6z"/>
<path d="M4810 11433 c2 -24 -6 -50 -18 -58 -20 -13 16 -54 48 -55 24 0 18
137 -7 146 -17 7 -25 -5 -23 -33z"/>
<path d="M6160 11458 c0 -12 14 -17 31 -10 18 6 49 3 70 -9 23 -12 39 -13 39
-2 0 10 -14 24 -32 31 -50 19 -108 14 -108 -10z"/>
<path d="M7075 11417 c-19 -20 -35 -50 -35 -65 0 -16 -10 -32 -23 -36 -44 -15
-35 -78 13 -96 34 -13 44 -29 36 -59 -12 -47 -28 -51 -62 -17 -18 18 -24 18
-24 1 0 -38 70 -67 97 -40 29 29 29 18 0 -67 -13 -37 -33 -75 -45 -83 -15 -10
-14 -14 2 -15 28 0 77 79 70 113 -3 14 11 19 36 13 22 -6 40 -19 40 -30 0 -10
-9 -13 -20 -6 -11 7 -20 -2 -20 -19 0 -45 53 -38 66 9 8 30 -2 43 -38 52 -50
13 -67 48 -23 48 18 1 18 5 -2 18 -32 20 49 116 90 107 33 -8 51 56 25 88 -18
22 -13 36 23 67 25 22 41 45 35 50 -14 15 -96 -60 -96 -89 0 -13 -11 -17 -25
-9 -15 8 -18 7 -8 -4 9 -10 26 -18 38 -18 12 0 26 -13 31 -28 5 -15 0 -22 -11
-15 -11 7 -32 -1 -45 -17 -21 -25 -31 -26 -58 -5 -28 22 -29 21 -4 -10 32 -41
18 -65 -28 -48 -44 17 -61 74 -28 95 15 9 20 18 11 18 -10 0 -7 14 7 30 22 26
20 29 -12 17 -37 -13 -37 -13 0 30 47 53 36 71 -13 20z"/>
<path d="M2944 11430 c42 -100 79 -169 95 -179 11 -7 14 -27 7 -45 -8 -20 -5
-28 8 -19 26 15 95 -83 91 -131 -1 -20 8 -30 23 -24 16 6 37 -16 53 -56 15
-36 38 -73 53 -82 14 -9 26 -34 26 -55 0 -21 11 -39 25 -39 33 0 104 -130 86
-158 -7 -12 0 -22 17 -22 30 0 166 -177 157 -205 -3 -8 3 -15 13 -15 35 0 102
-128 76 -144 -17 -11 -15 -15 7 -16 34 0 84 -52 126 -134 16 -31 48 -78 71
-104 23 -26 42 -60 42 -75 0 -15 10 -27 22 -27 13 0 18 -18 12 -40 -7 -27 0
-40 19 -40 16 0 23 -10 16 -21 -7 -12 6 -27 30 -33 26 -7 39 -22 33 -39 -6
-15 2 -27 18 -27 16 0 38 -17 49 -39 27 -50 27 -67 -2 -49 -15 9 -18 5 -9 -9
8 -13 23 -19 32 -13 10 6 77 -79 149 -189 72 -109 141 -205 152 -211 11 -7 14
-21 8 -31 -6 -11 -2 -19 9 -19 21 0 82 -114 90 -168 2 -17 12 -38 21 -46 10
-9 11 -5 3 9 -8 14 -5 25 6 25 11 0 30 -18 42 -40 12 -22 17 -40 11 -40 -6 0
5 -17 24 -39 62 -68 85 -99 86 -115 0 -22 140 -171 150 -161 5 4 -35 70 -87
146 -53 77 -266 391 -473 699 -1348 1998 -1427 2113 -1387 2020z"/>
<path d="M4710 11407 c22 -16 36 -33 30 -37 -5 -5 6 -27 25 -50 19 -22 35 -48
35 -58 0 -35 55 -65 66 -36 6 15 -16 49 -48 75 -36 30 -54 61 -47 81 7 24 -5
36 -45 44 -52 10 -53 9 -16 -19z"/>
<path d="M6891 11421 c-7 -11 -28 -13 -47 -6 -31 11 -31 9 -4 -25 17 -21 21
-32 10 -26 -28 17 -97 -37 -81 -63 7 -11 24 -21 37 -21 16 1 16 6 -3 18 -21
13 -20 19 5 29 18 6 32 2 32 -11 0 -12 7 -16 15 -8 14 15 16 22 23 73 1 12 11
16 22 9 11 -7 20 2 20 19 0 35 -12 40 -29 12z"/>
<path d="M5667 11396 c-5 -9 0 -32 11 -51 20 -33 21 -33 21 0 1 19 15 35 32
35 17 0 27 -7 21 -17 -6 -9 3 -16 19 -16 16 0 29 7 29 16 0 10 20 17 43 17 24
0 39 5 33 10 -17 17 -198 22 -209 6z"/>
<path d="M6060 11403 c0 -16 -12 -22 -30 -16 -16 7 -30 3 -30 -8 0 -17 29 -27
65 -21 8 1 15 -18 15 -43 -1 -36 -4 -39 -20 -15 -17 26 -19 25 -20 -5 0 -39
-16 -43 -60 -15 -20 13 -22 19 -5 20 14 0 25 9 25 20 0 13 -14 12 -37 -3 -42
-26 -47 -121 -7 -129 14 -3 16 0 5 5 -34 17 -24 38 19 42 23 1 36 -6 29 -16
-6 -11 -2 -19 10 -19 11 0 21 14 21 31 0 21 12 28 36 20 30 -9 36 1 36 60 0
41 13 80 29 90 24 15 23 18 -6 19 -19 0 -35 -11 -35 -25 -1 -17 -7 -15 -20 5
-15 23 -19 24 -20 3z"/>
<path d="M6692 11348 c-8 -20 -25 -27 -45 -20 -26 10 -28 7 -10 -14 18 -22 9
-28 -47 -30 -39 -2 -70 7 -70 19 0 15 -8 16 -25 2 -14 -12 -43 -25 -65 -31
-36 -8 -36 -10 5 -12 46 -2 70 -102 25 -102 -11 0 -20 11 -20 25 -1 18 -5 18
-18 -2 -22 -35 -51 6 -30 42 11 20 8 20 -13 0 -21 -20 -19 -32 12 -66 56 -62
112 -89 95 -47 -7 21 1 40 23 53 29 16 31 23 8 39 -20 15 -18 17 10 8 28 -9
34 -5 26 18 -11 28 17 40 80 32 13 -2 30 6 37 17 20 34 41 24 41 -18 0 -31
-12 -38 -65 -33 -85 6 -89 -40 -5 -52 73 -11 82 1 89 116 5 88 -15 117 -38 56z"/>
<path d="M5872 11337 c10 -16 4 -20 -20 -11 -19 8 -29 6 -23 -4 6 -10 -5 -24
-24 -32 -31 -12 -29 -16 11 -32 26 -10 42 -26 35 -36 -6 -10 2 -23 17 -28 19
-8 24 1 17 27 -5 22 -18 39 -27 39 -10 0 -18 9 -18 19 0 11 12 15 26 10 15 -6
27 6 28 31 2 22 -5 40 -16 40 -11 0 -14 -11 -6 -23z"/>
<path d="M4886 11272 c5 -38 -1 -79 -12 -90 -16 -16 -13 -22 10 -22 17 0 30
-15 29 -33 -2 -18 7 -36 19 -41 15 -5 19 11 13 43 -5 28 -18 51 -28 51 -10 0
-4 27 13 61 34 65 26 99 -23 99 -23 0 -28 -16 -21 -68z"/>
<path d="M5040 11312 c0 -15 -15 -33 -33 -40 -30 -12 -30 -16 1 -50 30 -33 31
-40 3 -68 -25 -25 -25 -32 -2 -41 15 -6 33 2 39 18 6 16 29 29 51 29 37 0 53
32 43 87 -2 10 10 13 27 6 34 -13 43 17 11 37 -12 7 -15 23 -7 34 8 13 4 16
-10 8 -13 -8 -23 -27 -23 -43 0 -16 -11 -29 -25 -29 -17 -1 -15 -7 5 -20 22
-14 23 -19 4 -20 -15 0 -21 -9 -14 -20 21 -33 -8 -22 -49 19 -30 30 -33 43
-13 59 14 12 32 15 40 7 8 -7 8 2 1 21 -16 41 -49 45 -49 6z"/>
<path d="M7301 11280 c-1 -38 -15 -96 -31 -127 -35 -68 -36 -73 -10 -73 11 0
20 14 20 31 0 16 12 35 26 40 17 7 24 34 19 75 -6 49 -3 57 13 34 12 -16 22
-20 22 -9 0 12 -13 39 -29 60 -28 37 -30 35 -30 -31z"/>
<path d="M5305 11285 c3 -42 55 -67 55 -27 0 25 137 23 153 -2 18 -30 -39 -59
-58 -30 -12 17 -16 15 -13 -6 8 -83 -4 -144 -27 -135 -16 6 -25 -8 -25 -38 0
-37 5 -41 20 -21 11 15 31 24 44 19 16 -5 21 11 16 49 -8 53 -8 54 14 11 12
-25 31 -45 41 -45 11 0 14 -16 7 -35 -11 -32 -10 -32 13 -3 50 64 111 65 163
4 28 -32 56 -48 65 -38 9 9 6 21 -8 26 -34 13 -32 39 4 39 16 0 25 -7 19 -16
-6 -9 -1 -17 11 -17 11 0 21 9 21 19 0 11 14 15 30 8 17 -6 30 -20 30 -30 0
-11 -8 -15 -17 -9 -10 6 -34 -7 -53 -28 -46 -51 -17 -51 60 0 76 51 79 50 107
-12 21 -45 20 -51 -6 -41 -19 7 -31 1 -31 -18 0 -16 -9 -29 -20 -29 -11 0 -20
18 -20 40 0 41 -29 54 -49 22 -6 -10 0 -23 14 -29 15 -6 10 -10 -11 -11 -20
-1 -31 -11 -24 -22 13 -20 -12 -27 -75 -21 -19 2 -35 -5 -35 -16 0 -11 23 -17
52 -14 36 4 56 -6 66 -35 13 -36 17 -32 29 27 10 49 19 61 31 42 12 -19 21
-21 31 -5 24 39 132 85 170 72 52 -16 70 -69 20 -55 -22 5 -39 17 -39 27 0 9
-14 11 -31 5 -38 -15 -23 -32 35 -41 24 -4 54 -16 67 -27 13 -11 39 -14 56 -7
18 7 33 2 33 -10 0 -27 53 -29 70 -2 7 11 -1 14 -19 8 -22 -9 -28 -4 -20 17 6
17 -3 35 -21 42 -18 7 -27 5 -21 -5 6 -10 -3 -23 -20 -30 -17 -6 -26 -3 -19 8
6 10 -6 34 -28 53 -22 19 -35 41 -30 50 6 9 -5 11 -23 4 -29 -11 -30 -7 -11
29 30 57 28 84 -9 84 -17 0 -26 -9 -19 -20 7 -11 3 -20 -8 -20 -11 0 -25 9
-32 20 -7 12 -23 14 -36 6 -40 -25 -79 -25 -123 0 -47 26 -151 32 -151 8 0 -8
-13 -4 -28 10 -36 33 -18 62 30 50 21 -6 33 -3 28 6 -6 10 8 23 30 30 22 7 40
20 40 29 0 27 -51 39 -82 19 -43 -27 -58 -21 -44 17 13 37 10 35 -31 -18 -22
-30 -19 -33 26 -28 69 7 65 -15 -8 -42 -50 -19 -61 -18 -69 10 -6 18 -8 8 -4
-22 4 -30 3 -55 -1 -55 -14 0 -71 152 -71 193 -1 42 -122 51 -182 13 -10 -6
-26 1 -35 16 -12 20 -16 15 -14 -17z m754 -264 c31 -20 -3 -81 -45 -81 -14 0
-14 8 2 24 34 34 30 57 -9 42 -23 -9 -29 -5 -19 11 17 28 32 29 71 4z"/>
<path d="M6929 11281 c6 -10 3 -24 -7 -30 -11 -6 -25 -3 -32 9 -7 11 -21 20
-32 20 -11 0 -15 -9 -8 -21 8 -13 -6 -17 -40 -11 -35 7 -50 2 -45 -14 5 -13
32 -25 61 -26 30 -1 47 7 41 18 -7 10 0 15 15 9 15 -5 26 -20 23 -32 -7 -30
49 -30 67 0 9 14 5 18 -9 9 -13 -8 -23 -5 -23 6 0 11 9 25 20 32 24 15 8 50
-22 50 -11 0 -15 -8 -9 -19z"/>
<path d="M5373 11247 c-7 -8 -13 -32 -13 -54 0 -40 -1 -40 -28 -2 -27 36 -28
35 -25 -16 3 -63 2 -62 54 -34 29 15 39 14 39 -4 0 -13 6 -18 13 -11 7 7 1 27
-13 44 -17 20 -18 30 -2 30 12 0 22 14 22 30 0 31 -24 40 -47 17z"/>
<path d="M6107 11199 c-12 -12 -40 -22 -64 -24 -43 -3 -62 -35 -22 -35 12 0
15 -10 7 -23 -9 -15 -5 -18 10 -8 13 8 46 0 72 -17 64 -42 77 -40 64 8 -7 26
0 40 18 40 36 0 36 15 -1 51 -34 34 -56 36 -84 8z"/>
<path d="M6833 11124 c-26 -29 -27 -42 -8 -63 20 -21 20 -24 0 -13 -14 8 -25
5 -25 -7 0 -11 14 -21 32 -21 20 0 28 -11 21 -30 -7 -18 -1 -30 15 -30 23 0
23 13 2 75 -29 81 -15 142 14 64 23 -61 24 -62 63 -47 47 18 41 55 -6 42 -22
-5 -39 -4 -38 3 9 69 -21 81 -70 27z"/>
<path d="M6635 11126 c-19 -5 -35 -18 -35 -29 0 -10 8 -14 18 -8 27 16 37 -54
13 -82 -14 -15 -37 -16 -69 -4 -40 15 -44 13 -25 -9 12 -15 17 -34 9 -41 -7
-7 -2 -13 11 -13 13 0 23 8 23 19 0 10 18 15 40 11 22 -4 40 -1 41 6 0 8 5 48
11 89 6 41 8 74 5 73 -4 -2 -23 -7 -42 -12z"/>
<path d="M5130 11088 c-32 -24 -33 -28 -5 -28 28 0 30 -9 10 -64 -12 -36 -26
-54 -30 -42 -4 13 -23 18 -41 11 -27 -10 -30 -7 -11 16 13 17 16 45 6 69 -13
32 -16 34 -18 6 -1 -23 -14 -31 -42 -26 -22 4 -35 -1 -28 -11 6 -11 21 -14 32
-7 11 7 17 -4 13 -23 -9 -54 98 -85 132 -38 29 40 41 27 61 -66 9 -42 6 -65
-7 -65 -12 0 -22 25 -22 55 0 30 -7 46 -15 35 -18 -24 -65 -25 -102 -2 -14 9
-5 -16 20 -56 29 -44 58 -68 75 -61 31 11 62 -24 61 -71 0 -23 -7 -21 -30 9
-16 21 -29 30 -29 20 1 -29 79 -122 80 -95 0 15 14 20 35 12 19 -7 29 -6 21 3
-7 8 -6 36 4 62 16 41 13 45 -31 37 -48 -9 -70 22 -26 36 17 6 17 19 0 51 -28
51 -31 132 -4 116 10 -6 25 -1 33 12 9 14 6 18 -9 9 -23 -14 -66 64 -51 91 16
27 -46 31 -82 5z"/>
<path d="M6270 11089 c33 -14 73 -22 90 -19 38 7 88 -43 60 -60 -11 -7 -20
-22 -20 -34 0 -14 10 -13 28 3 23 18 31 16 38 -13 5 -20 8 -7 6 28 -2 73 -90
126 -202 122 l-60 -2 60 -25z"/>
<path d="M5280 11075 c0 -18 9 -38 20 -45 12 -8 8 -35 -12 -73 -17 -33 -26
-66 -19 -72 6 -7 11 -1 11 11 0 13 11 20 25 17 14 -4 18 -3 10 2 -8 5 -15 17
-15 28 0 11 9 14 20 7 31 -19 22 75 -11 119 -24 32 -29 33 -29 6z"/>
<path d="M7340 11060 c-16 -10 -48 -14 -70 -8 -29 8 -32 5 -13 -8 36 -25 -79
-109 -125 -92 -21 8 -32 1 -32 -21 0 -18 -9 -28 -20 -21 -42 26 6 -49 50 -78
42 -28 47 -27 56 9 6 21 2 39 -8 39 -10 0 -18 -9 -18 -19 0 -11 -14 -14 -32
-8 -28 11 -28 15 1 44 39 40 98 11 107 -52 3 -23 24 -45 45 -51 48 -13 52 17
5 35 -20 7 -27 19 -15 27 26 19 34 64 11 64 -10 0 -23 -11 -29 -25 -6 -15 -10
-11 -11 10 -1 19 8 35 19 35 12 0 17 8 11 17 -6 10 11 13 39 8 53 -10 64 12
25 51 -24 24 -3 34 59 25 14 -1 25 7 25 18 0 26 -40 27 -80 1z"/>
<path d="M6275 11024 c-31 -4 -50 -15 -44 -25 16 -27 89 -24 89 3 0 16 9 15
30 -2 24 -20 30 -19 30 4 0 30 -9 32 -105 20z"/>
<path d="M6944 11023 c-22 -14 -21 -24 6 -50 25 -25 26 -33 6 -33 -15 0 -29
-18 -31 -40 -1 -23 4 -37 11 -33 8 5 30 -22 49 -59 22 -44 26 -68 11 -68 -12
0 -17 -6 -10 -13 8 -7 4 -25 -9 -40 -30 -37 -1 -34 36 3 19 19 25 45 15 75 -7
25 -10 46 -6 48 4 1 -8 21 -28 43 -23 25 -29 45 -16 53 20 12 22 131 2 131 -5
0 -22 -8 -36 -17z"/>
<path d="M5588 11004 c7 -12 -3 -31 -23 -42 -19 -12 -24 -21 -11 -21 13 -1 29
8 36 19 23 37 55 21 44 -22 -6 -23 -6 -37 1 -30 6 6 23 2 38 -11 19 -15 27
-16 27 0 0 12 14 17 30 10 17 -6 30 -1 30 11 0 12 -14 22 -31 22 -17 0 -26 9
-19 20 7 11 2 20 -11 20 -13 0 -18 -13 -12 -30 18 -47 -15 -35 -37 14 -11 24
-33 47 -48 52 -16 5 -22 0 -14 -12z"/>
<path d="M5409 10962 c7 -12 0 -22 -18 -22 -17 0 -31 -13 -31 -30 0 -39 52
-39 67 0 6 16 24 24 40 18 16 -6 36 0 44 14 10 15 7 19 -7 10 -13 -8 -42 -4
-66 9 -30 16 -39 16 -29 1z"/>
<path d="M6680 10947 c0 -15 9 -27 20 -27 11 0 20 -10 20 -21 0 -12 -10 -15
-21 -8 -40 24 -135 31 -148 10 -8 -13 0 -16 21 -7 23 8 30 5 20 -10 -10 -17 4
-20 47 -11 54 11 61 7 61 -34 0 -45 -1 -46 -30 -8 -28 36 -29 36 -17 2 8 -22
1 -45 -15 -56 -21 -15 -18 -17 12 -9 22 6 69 13 104 16 35 2 59 12 53 21 -6 9
-28 11 -49 5 -29 -10 -35 -5 -25 20 6 17 17 27 23 21 6 -6 23 0 38 12 21 18
24 16 14 -10 -7 -18 -3 -33 8 -33 39 0 38 51 -2 90 -22 22 -34 29 -27 16 19
-32 -28 -57 -47 -25 -9 14 -12 36 -7 49 5 13 -5 23 -22 23 -17 0 -31 -12 -31
-26z"/>
<path d="M6240 10949 c0 -18 86 -108 104 -109 8 0 9 16 2 35 -12 31 -9 32 21
7 30 -24 32 -23 21 7 -9 21 -28 31 -51 24 -21 -5 -51 4 -67 20 -17 17 -30 24
-30 16z"/>
<path d="M6500 10925 c0 -12 -18 -17 -40 -11 -33 9 -39 2 -35 -36 4 -37 -5
-48 -41 -50 -25 -1 -50 -8 -57 -14 -21 -21 17 -57 48 -45 17 7 51 -2 77 -18
28 -19 51 -23 58 -11 16 26 50 26 50 -1 0 -12 -9 -16 -20 -9 -11 7 -20 3 -20
-8 0 -34 40 -47 70 -22 25 21 25 28 -1 53 -16 17 -30 49 -30 73 -2 36 -4 38
-15 10 -15 -36 -36 -29 -82 29 -24 31 -24 34 3 24 32 -12 69 24 47 46 -7 6
-12 2 -12 -10z"/>
<path d="M7355 10904 c-33 -6 -52 -67 -20 -62 45 8 68 -5 58 -32 -7 -16 -3
-30 8 -30 10 0 19 14 19 30 0 17 10 30 21 30 12 0 16 -9 9 -20 -7 -11 -3 -20
9 -20 33 0 25 36 -14 58 -19 12 -24 21 -10 21 14 1 25 9 25 20 0 18 -34 20
-105 5z"/>
<path d="M5448 10885 c-25 -16 -14 -145 12 -145 9 0 12 -18 6 -40 -6 -22 -18
-35 -27 -29 -9 5 -21 2 -27 -8 -6 -10 -31 -16 -57 -14 -73 6 -122 -26 -94 -60
13 -16 39 -29 56 -28 28 0 28 4 -4 28 -35 26 -33 28 22 27 33 -1 70 4 82 12
28 18 29 1 3 -48 -13 -25 -13 -42 0 -50 11 -7 20 2 20 19 0 17 9 31 19 31 11
0 14 15 7 33 -8 21 -5 29 8 20 13 -8 25 14 30 57 4 38 -1 72 -13 76 -11 4 -18
36 -15 71 5 69 5 69 -28 48z"/>
<path d="M3144 10857 c-37 -11 -60 -27 -52 -39 9 -15 19 -15 34 0 12 12 40 22
63 22 30 -1 34 -5 14 -18 -21 -13 -20 -19 7 -29 59 -23 68 -4 25 51 -20 24
-39 27 -91 13z"/>
<path d="M5514 10833 c-19 -49 -18 -54 10 -48 15 3 24 -20 24 -59 0 -50 6 -60
26 -43 30 25 34 1 8 -41 -11 -17 -28 -21 -45 -11 -23 14 -23 11 0 -17 23 -28
31 -29 55 -5 38 38 35 91 -7 125 -33 26 -32 27 5 17 22 -5 54 -1 70 9 17 11
22 20 13 20 -10 0 -10 11 0 26 9 14 3 11 -14 -7 -36 -38 -113 -14 -124 39 -5
27 -8 27 -21 -5z"/>
<path d="M5988 10765 c6 -41 11 -82 11 -91 1 -9 10 -11 21 -4 11 7 15 34 8 61
-18 72 3 60 60 -35 37 -62 44 -91 28 -110 -15 -19 -6 -18 35 3 31 16 62 26 68
21 7 -4 12 10 12 31 0 22 -7 39 -15 39 -9 0 -16 -12 -16 -27 0 -14 -14 -26
-31 -26 -16 0 -27 9 -23 21 4 12 -10 39 -30 61 -36 39 -36 40 3 55 45 16 56
40 16 35 -54 -8 -77 2 -63 26 11 20 8 20 -13 0 -32 -30 -67 -33 -49 -5 7 11 2
20 -10 20 -15 0 -20 -26 -12 -75z"/>
<path d="M6908 10795 c2 -33 -9 -45 -41 -45 -24 0 -51 -7 -60 -16 -8 -9 -1
-11 17 -4 40 16 57 -11 66 -104 4 -43 0 -62 -9 -47 -27 43 -57 6 -51 -64 3
-36 -4 -76 -15 -90 -15 -19 -13 -23 10 -14 17 6 36 38 42 70 7 36 25 59 45 59
18 0 28 11 22 25 -43 106 -43 105 -10 74 18 -16 28 -35 24 -42 -4 -7 11 -17
35 -23 42 -11 -20 81 -69 103 -9 4 -3 17 14 30 19 15 26 42 18 78 -13 66 -40
73 -38 10z"/>
<path d="M7083 10790 c-2 -16 -6 -48 -8 -70 -2 -22 -11 -40 -19 -40 -9 0 -16
-10 -16 -23 0 -14 14 -10 36 10 28 25 42 27 60 9 19 -19 24 -17 24 5 1 25 4
25 21 -1 18 -25 20 -23 15 10 -4 24 -25 43 -52 47 -35 4 -43 15 -34 45 7 21 5
38 -5 38 -10 0 -20 -13 -22 -30z"/>
<path d="M3174 10726 c13 -32 -9 -33 -92 -4 -35 13 -69 18 -75 12 -6 -6 27
-22 74 -34 76 -21 89 -19 125 17 l41 41 -41 -3 c-25 -2 -38 -13 -32 -29z"/>
<path d="M5665 10710 c-14 -16 -25 -40 -25 -54 1 -18 5 -19 15 -4 8 12 31 20
51 17 24 -4 34 5 30 26 -8 43 -41 50 -71 15z"/>
<path d="M6309 10666 c0 -36 8 -66 17 -66 9 0 9 -11 0 -25 -31 -49 -20 -110
18 -100 43 11 44 4 10 -58 -28 -52 -54 -63 -148 -62 -47 1 -60 -6 -52 -28 6
-16 22 -25 36 -20 14 6 24 -4 23 -21 -2 -18 7 -35 19 -40 13 -4 21 12 18 39
-6 55 59 72 79 21 8 -20 2 -27 -16 -20 -19 7 -27 -8 -29 -53 -1 -59 0 -60 22
-21 13 23 38 38 54 34 24 -7 25 -5 3 10 -27 19 23 56 63 47 10 -2 11 5 4 17
-28 45 48 16 78 -30 18 -27 50 -50 71 -50 21 0 54 -20 72 -45 22 -29 30 -33
22 -11 -15 45 38 98 81 82 22 -9 28 -5 18 11 -8 12 -31 23 -52 23 -21 0 -43 9
-50 20 -7 11 -32 19 -56 18 -39 -2 -38 -5 11 -24 30 -12 55 -28 55 -37 0 -26
-37 -38 -50 -17 -7 11 -22 15 -32 9 -30 -19 -77 30 -65 67 9 29 7 29 -10 5
-18 -26 -23 -25 -34 5 -18 46 -63 43 -89 -6 -25 -47 -60 -53 -60 -10 0 17 9
30 19 30 11 0 15 14 8 30 -7 19 1 30 22 30 27 0 29 7 10 42 -16 30 -16 39 -1
29 12 -7 22 -3 22 9 0 13 11 16 25 7 14 -9 8 10 -12 42 -33 49 -33 55 -5 45
21 -8 32 -2 32 18 0 17 -9 25 -20 18 -11 -7 -20 1 -20 18 0 19 -11 26 -30 19
-16 -6 -25 -19 -19 -29 6 -10 2 -18 -10 -18 -11 0 -21 19 -21 41 0 23 7 37 16
32 9 -6 28 -3 42 6 18 11 7 19 -32 24 -55 8 -59 5 -57 -57z"/>
<path d="M5792 10687 c-11 -27 -8 -29 18 -7 17 14 37 19 45 12 8 -8 5 -20 -6
-28 -10 -8 -19 -32 -18 -54 0 -22 -13 -50 -28 -62 -24 -18 -22 -24 14 -33 24
-6 38 -4 33 6 -6 9 7 15 29 14 27 -2 33 -10 20 -27 -13 -15 -9 -31 11 -48 22
-18 25 -32 9 -51 -14 -18 -15 -29 0 -38 12 -8 21 -3 21 9 0 12 10 16 22 9 16
-10 16 -3 1 26 -12 22 -15 47 -7 56 8 8 3 9 -10 2 -13 -8 -29 -5 -36 7 -7 11
1 20 16 20 16 0 34 19 40 41 10 37 4 40 -48 29 -52 -12 -58 -8 -58 38 0 61 6
63 50 19 28 -28 36 -29 52 -5 12 20 17 21 18 3 0 -14 20 -24 45 -24 l45 2 -44
21 c-24 12 -48 36 -53 54 -7 27 -9 27 -11 -3 -3 -46 -27 -44 -57 5 -31 48 -96
53 -113 7z"/>
<path d="M7340 10690 c-21 -25 -18 -30 19 -30 24 0 38 -9 31 -20 -7 -11 -3
-20 7 -20 11 0 24 -11 29 -25 4 -14 5 -5 1 19 -6 36 0 42 28 32 29 -11 31 -9
10 17 -13 17 -19 37 -11 44 7 7 -10 13 -38 13 -28 0 -62 -13 -76 -30z"/>
<path d="M3231 10663 c-6 -20 -32 -48 -57 -61 -25 -13 -47 -44 -48 -68 -1 -24
2 -33 8 -19 5 14 18 20 29 13 24 -15 75 50 76 96 1 19 17 43 36 54 32 19 32
21 1 21 -18 1 -39 -16 -45 -36z"/>
<path d="M6667 10671 c9 -24 2 -38 -25 -45 -47 -12 -72 -86 -29 -86 16 0 47 9
68 21 32 17 39 14 39 -18 0 -39 71 -73 90 -43 5 8 -9 20 -31 26 -47 12 -18 85
40 101 19 5 13 9 -13 11 -24 1 -76 -17 -115 -40 -39 -23 -71 -33 -71 -21 0 11
18 26 40 33 44 14 53 59 17 82 -16 10 -20 3 -10 -21z"/>
<path d="M3285 10637 c-17 -17 -17 -34 0 -65 31 -58 38 -136 11 -119 -13 8
-16 4 -8 -10 8 -13 6 -23 -5 -23 -11 0 -24 11 -30 25 -6 16 -10 12 -11 -8 -1
-19 -13 -38 -27 -43 -14 -5 -19 -15 -11 -23 29 -31 139 57 130 104 -5 25 -1
45 8 45 9 0 12 13 5 30 -6 16 -21 24 -32 17 -13 -8 -17 6 -11 40 12 61 12 61
-19 30z"/>
<path d="M7280 10638 c0 -11 -8 -15 -19 -9 -10 6 -24 3 -31 -9 -7 -11 -21 -20
-32 -20 -11 0 -16 7 -11 16 6 9 -9 17 -33 18 -24 1 -33 -2 -19 -8 14 -5 25
-29 24 -53 0 -40 -2 -40 -27 -8 -14 19 -32 29 -39 21 -7 -7 -13 -1 -13 14 0
43 -28 3 -35 -51 -5 -36 3 -49 29 -49 31 1 32 4 6 22 -22 15 -13 17 35 8 50
-10 65 -6 65 17 0 20 13 26 43 18 34 -9 41 -4 32 20 -9 24 -1 30 36 26 54 -6
66 18 19 36 -16 7 -30 2 -30 -9z"/>
<path d="M5740 10619 c0 -12 -7 -17 -16 -12 -29 18 -23 -71 7 -101 35 -35 37
-19 7 38 -19 36 -18 40 11 29 21 -8 28 -5 19 9 -7 13 -1 30 14 40 22 14 21 17
-7 18 -19 0 -35 -10 -35 -21z"/>
<path d="M6025 10564 c-25 -4 -45 -16 -45 -27 0 -11 17 -14 38 -8 40 13 49
-109 13 -167 -7 -12 -6 -22 3 -22 9 0 28 18 41 40 17 26 18 40 4 40 -12 0 -16
9 -9 20 7 12 21 15 31 9 11 -6 19 3 19 20 0 62 91 10 105 -59 5 -25 11 -12 17
34 9 70 7 74 -36 63 -35 -9 -46 -3 -46 25 0 33 -2 33 -29 -3 -28 -39 -28 -39
-45 1 -11 27 -31 38 -61 34z"/>
<path d="M6487 10550 c0 -16 7 -30 16 -30 9 0 11 -13 5 -29 -8 -20 1 -28 29
-26 22 2 35 12 28 23 -6 11 3 13 22 6 18 -7 33 -4 33 7 0 10 -18 19 -41 19
-22 0 -45 14 -52 30 -6 17 -18 30 -26 30 -8 0 -14 -13 -14 -30z"/>
<path d="M5560 10526 c0 -61 -37 -77 -72 -33 -28 35 -29 34 -9 -7 14 -29 14
-48 1 -56 -11 -7 -20 -3 -20 9 0 11 -25 20 -55 19 -37 -2 -43 -6 -19 -12 21
-5 32 -21 26 -37 -9 -26 57 -63 95 -52 9 2 13 -7 7 -21 -5 -14 -20 -24 -32
-21 -18 4 -18 -5 -2 -35 12 -22 27 -40 34 -40 7 0 7 6 0 13 -21 21 26 89 52
75 13 -8 9 2 -9 21 -43 46 4 156 59 138 26 -8 28 -6 7 9 -15 10 -36 32 -45 47
-13 20 -17 16 -18 -17z"/>
<path d="M6980 10521 c0 -10 9 -24 20 -31 12 -8 10 -22 -5 -39 -14 -15 -32
-23 -40 -18 -8 5 -15 0 -15 -12 0 -33 74 -25 88 10 6 18 3 49 -9 70 -22 42
-39 51 -39 20z"/>
<path d="M7289 10476 c0 -29 4 -30 30 -8 17 15 55 25 85 24 30 -2 49 2 43 7
-29 29 -158 10 -158 -23z"/>
<path d="M7104 10483 c-14 -9 -27 -38 -29 -65 -1 -26 -11 -59 -21 -73 -11 -14
-14 -32 -7 -39 7 -6 25 18 40 54 17 41 31 55 37 38 6 -15 9 1 8 37 -1 36 -2
65 -2 65 0 0 -12 -8 -26 -17z"/>
<path d="M6655 10466 c-37 -9 -50 -66 -15 -66 11 0 20 9 20 20 0 11 9 20 19
20 11 0 15 -16 9 -35 -10 -30 -7 -29 20 4 54 66 39 81 -53 57z"/>
<path d="M6122 10395 c-16 -25 -25 -46 -20 -48 4 -1 -8 -21 -28 -43 -23 -24
-29 -45 -16 -53 16 -10 67 52 72 89 1 6 13 30 26 55 14 25 18 45 10 45 -9 0
-29 -20 -44 -45z"/>
<path d="M6750 10420 c-6 -10 2 -44 18 -75 20 -36 31 -44 31 -22 1 19 12 38
26 44 14 5 4 11 -22 11 -34 2 -44 11 -36 32 13 34 2 41 -17 10z"/>
<path d="M7171 10362 c-7 -21 -25 -43 -41 -49 -51 -20 -93 -150 -65 -200 24
-41 28 -54 33 -108 1 -14 12 -25 23 -25 12 0 16 9 9 20 -7 11 1 20 16 20 18 0
29 20 29 52 0 35 -5 44 -16 26 -9 -14 -12 -33 -6 -42 5 -9 1 -16 -9 -16 -17 0
-35 40 -39 88 -1 10 -14 25 -28 34 -21 13 -18 17 9 18 20 0 31 9 24 20 -7 11
1 20 18 20 16 0 35 -9 42 -20 7 -11 3 -20 -9 -20 -11 0 -21 -9 -21 -19 0 -11
14 -14 31 -8 46 18 26 73 -31 89 -28 8 -35 15 -17 16 18 1 37 21 43 43 9 36
16 38 50 17 23 -14 36 -39 30 -57 -6 -22 0 -19 22 8 43 53 40 76 -8 61 -28 -9
-40 -4 -40 17 0 47 -36 58 -49 15z"/>
<path d="M3314 10352 c-8 -20 2 -42 27 -57 46 -29 53 -65 9 -48 -16 7 -30 3
-30 -8 0 -10 -13 -19 -30 -19 -16 0 -30 15 -30 32 0 24 -12 29 -45 21 -32 -9
-55 1 -80 32 -25 32 -32 34 -23 10 10 -28 1 -35 -45 -36 -56 -1 -56 -2 13 -27
41 -14 84 -18 104 -8 49 24 62 20 48 -15 -6 -18 -3 -26 8 -19 11 7 20 -2 20
-19 0 -17 -8 -31 -18 -31 -10 0 -14 -18 -8 -40 6 -22 22 -40 36 -40 14 0 31
-15 38 -33 18 -47 38 -18 22 31 -7 23 -28 43 -46 44 -19 0 -24 5 -10 11 13 5
19 21 14 36 -6 14 4 31 21 38 17 7 31 1 32 -13 0 -14 11 -9 27 11 35 47 59 44
46 -5 -6 -22 -2 -40 8 -40 10 0 18 19 18 41 0 26 8 36 23 27 15 -9 18 -5 9 9
-8 13 -22 19 -32 13 -9 -6 -23 8 -30 31 -8 23 -19 37 -26 30 -6 -7 -22 7 -35
31 -20 37 -25 38 -35 10z"/>
<path d="M3486 10325 c1 -36 9 -65 18 -65 8 0 10 -13 3 -30 -6 -16 -1 -30 11
-30 12 0 22 -9 22 -19 0 -11 -13 -15 -30 -8 -16 6 -30 1 -30 -12 0 -13 11 -17
23 -9 16 10 20 4 11 -18 -7 -18 -4 -38 7 -45 19 -11 29 43 22 118 -2 26 6 34
28 26 17 -7 35 1 42 18 16 41 -11 65 -32 30 -21 -33 -70 7 -87 70 -5 22 -9 10
-8 -26z"/>
<path d="M6965 10350 c-30 -22 -44 -24 -50 -6 -5 16 -22 13 -56 -12 -45 -33
-46 -35 -6 -23 24 7 49 3 56 -8 8 -12 -5 -21 -30 -21 -33 0 -41 -9 -34 -39 7
-25 2 -35 -15 -28 -14 5 -30 -4 -36 -20 -9 -23 3 -30 47 -29 33 1 59 11 59 21
0 11 14 14 30 8 17 -7 30 -3 30 8 0 10 -18 19 -40 19 -22 0 -40 9 -40 20 0 11
18 20 40 20 22 0 40 10 40 23 0 12 16 34 35 48 50 37 21 54 -30 19z"/>
<path d="M5987 10335 c7 -19 3 -35 -8 -35 -11 0 -31 -25 -44 -55 -13 -30 -33
-62 -45 -70 -13 -9 -11 -14 4 -15 15 0 20 -14 12 -33 -11 -28 -6 -27 26 5 22
21 33 41 24 45 -31 13 -15 61 24 73 44 14 50 45 18 90 -18 25 -20 25 -11 -5z"/>
<path d="M5685 10291 c4 -27 13 -56 21 -64 8 -7 0 -35 -16 -60 -44 -67 29 -54
113 19 34 30 69 54 80 54 10 0 3 23 -15 51 -39 59 -62 52 -29 -9 12 -23 19
-42 15 -42 -25 0 -134 66 -134 81 0 11 -9 19 -21 19 -11 0 -17 -22 -14 -49z
m127 -54 c9 -14 5 -18 -9 -9 -14 9 -23 2 -23 -17 0 -17 -14 -31 -31 -31 -18 0
-25 10 -18 22 8 12 2 30 -13 40 -20 12 -13 17 26 18 29 0 60 -10 68 -23z"/>
<path d="M5590 10260 c-8 -24 -8 -48 -2 -55 7 -6 12 -1 12 12 0 13 14 23 32
23 17 0 28 11 23 24 -14 42 -51 39 -65 -4z"/>
<path d="M6116 10225 c-32 -30 -30 -35 28 -70 82 -50 135 9 67 76 -35 36 -52
34 -95 -6z"/>
<path d="M3040 10219 c0 -10 10 -19 22 -19 12 0 17 -14 10 -31 -6 -17 -4 -26
5 -21 10 6 27 -11 40 -39 12 -27 36 -49 52 -49 17 0 42 -18 56 -40 30 -49 53
-52 46 -5 -3 19 -16 35 -30 35 -13 0 -36 16 -51 36 -19 27 -28 29 -35 10 -5
-14 -21 7 -36 48 -24 69 -79 120 -79 75z"/>
<path d="M6492 10209 c-17 -46 -16 -49 26 -49 21 0 43 -11 49 -25 6 -15 11
-16 11 -3 4 45 -72 112 -86 77z"/>
<path d="M6330 10180 c-7 -22 -30 -40 -52 -40 -22 0 -44 -13 -51 -30 -6 -16
-19 -25 -29 -19 -10 6 -18 3 -18 -8 0 -11 11 -24 25 -30 14 -5 5 -11 -20 -11
-32 -2 -48 13 -57 50 -10 38 -18 45 -30 25 -25 -39 -22 -62 5 -45 16 10 20 1
13 -26 -9 -33 -1 -40 47 -38 50 2 65 14 61 53 -1 7 25 27 57 47 62 36 97 -22
36 -60 -14 -8 -18 -5 -10 8 8 11 4 27 -9 35 -14 9 -19 0 -15 -23 17 -88 70
-52 74 51 5 105 -5 129 -27 61z"/>
<path d="M6922 10144 c-1 -14 11 -30 28 -37 16 -6 24 -20 18 -30 -7 -11 -24
-15 -39 -9 -15 6 -33 2 -40 -9 -6 -10 5 -19 25 -19 30 -1 31 -4 6 -20 -22 -14
-23 -19 -4 -20 15 0 21 -9 14 -20 -7 -11 -1 -20 14 -20 63 -1 88 -37 46 -69
-22 -16 -29 -30 -16 -30 13 -1 29 7 35 17 5 9 51 13 101 7 58 -7 90 -2 90 12
0 12 -14 17 -30 10 -74 -28 -125 9 -117 84 5 43 1 67 -11 60 -11 -6 -16 -36
-12 -66 5 -30 3 -44 -3 -30 -6 14 -17 21 -25 16 -7 -4 -13 15 -13 44 1 28 12
55 26 60 18 6 17 16 -5 38 -16 16 -38 24 -48 18 -10 -6 -23 0 -29 14 -8 20
-10 20 -11 -1z"/>
<path d="M5621 10108 c-1 -23 21 -66 48 -95 27 -29 44 -53 39 -53 -6 0 19 -41
54 -90 64 -89 126 -111 172 -61 9 9 -13 11 -49 4 -56 -10 -66 -6 -77 37 -6 26
-25 59 -40 72 -38 31 -35 49 7 52 24 2 36 -13 38 -48 2 -28 15 -59 30 -68 46
-30 58 -20 24 20 -18 22 -36 64 -39 95 -4 31 -19 65 -34 77 -15 11 -24 34 -19
50 5 19 2 22 -8 8 -10 -12 -30 -27 -47 -33 -25 -10 -25 -12 3 -13 37 -2 95
-62 59 -62 -12 0 -22 9 -22 21 0 14 -12 14 -38 0 -33 -17 -42 -10 -69 54 -22
53 -31 63 -32 33z"/>
<path d="M6425 10126 c-25 -5 -45 -18 -45 -30 0 -11 11 -16 25 -10 14 6 40 16
57 23 42 17 67 -44 35 -83 -19 -22 -18 -27 4 -22 16 3 31 -13 35 -39 5 -35 12
-39 32 -20 21 19 18 31 -16 59 l-42 35 55 0 c56 1 69 -31 58 -149 -4 -39 -4
-39 25 0 16 22 21 44 12 50 -9 6 -19 37 -23 70 -6 49 -18 62 -67 70 -33 6 -57
19 -54 30 7 23 -26 29 -91 16z"/>
<path d="M6718 10105 c-2 -19 -2 -42 0 -50 1 -8 -9 -15 -22 -15 -18 0 -18 -6
-2 -22 26 -26 73 -5 55 23 -6 11 3 19 21 19 21 0 27 -9 17 -25 -10 -17 -4 -16
19 2 37 30 47 53 14 33 -11 -7 -20 -5 -20 4 0 38 -80 68 -82 31z"/>
<path d="M3424 10096 c-30 -30 -31 -69 -1 -88 16 -10 20 -4 11 18 -17 45 9 56
54 23 30 -22 33 -34 14 -57 -16 -19 -17 -33 -3 -41 12 -8 21 2 21 20 0 25 13
31 50 24 28 -5 50 -2 50 8 0 9 -17 17 -39 17 -21 0 -56 23 -77 50 -46 58 -48
58 -80 26z"/>
<path d="M5835 10075 c-10 -31 5 -95 22 -95 46 1 66 37 44 77 -25 48 -53 56
-66 18z"/>
<path d="M3704 10042 c9 -47 96 -55 94 -8 0 21 -5 25 -11 11 -6 -14 -20 -25
-31 -25 -11 0 -16 12 -10 27 6 14 -3 26 -19 26 -16 0 -26 -14 -23 -31z"/>
<path d="M5920 10062 c0 -10 11 -23 25 -29 17 -7 10 -23 -22 -52 -26 -22 -38
-41 -27 -41 19 0 84 54 84 70 0 4 -5 21 -12 38 -13 34 -48 44 -48 14z"/>
<path d="M3320 9999 c-52 -56 -160 -96 -160 -59 0 11 8 20 18 20 10 0 17 13
14 29 -6 43 -32 63 -32 26 0 -17 -11 -35 -25 -40 -19 -7 -19 -16 2 -42 24 -28
24 -33 0 -33 -15 -1 -48 -23 -74 -50 -26 -28 -38 -50 -26 -50 12 0 40 20 62
44 23 24 41 37 41 28 0 -8 14 -1 31 17 42 41 69 39 71 -4 1 -28 3 -29 13 -5
26 70 100 125 121 89 26 -48 42 -7 16 42 -22 41 -23 41 -72 -12z"/>
<path d="M6382 10046 c-3 -38 -84 -75 -102 -47 -9 15 -23 1 -39 -37 -14 -34
-35 -56 -47 -48 -13 8 -16 0 -8 -20 7 -18 4 -38 -6 -44 -9 -6 -20 19 -24 54
-4 46 -17 67 -41 69 -25 2 -27 0 -5 -7 39 -12 38 -38 -2 -54 -44 -17 -48 -16
-48 14 0 61 -45 73 -85 23 -21 -27 -47 -44 -59 -37 -12 8 -11 -4 3 -30 24 -45
46 -58 30 -17 -6 16 12 27 52 29 41 3 59 -3 53 -20 -4 -13 -25 -21 -46 -17
-36 7 -36 5 2 -37 l40 -45 6 43 c5 28 21 42 50 42 36 -1 38 -4 14 -20 -24 -16
-22 -19 14 -20 51 0 101 -71 61 -86 -14 -5 -19 -15 -11 -24 8 -8 29 0 46 18
18 17 23 32 11 32 -11 0 -21 10 -21 22 0 13 17 18 37 13 22 -6 36 1 36 18 0
33 -37 35 -69 3 -19 -19 -24 -18 -24 2 0 14 19 31 42 37 29 7 34 15 17 26 -29
17 -11 79 23 79 12 0 17 -13 11 -29 -14 -38 63 -63 94 -31 18 18 14 22 -16 17
-25 -4 -42 6 -47 27 -4 24 6 33 35 31 22 -2 41 -12 41 -23 0 -10 4 -14 9 -9 5
5 2 36 -8 68 -10 32 -18 48 -19 35z"/>
<path d="M3432 9919 c-14 -61 -17 -64 -34 -29 -15 33 -17 34 -13 4 3 -20 10
-33 17 -30 6 3 26 -6 43 -20 21 -18 36 -19 44 -5 8 12 -1 27 -19 34 -19 7 -25
18 -14 25 10 7 12 30 5 51 -12 32 -17 27 -29 -30z"/>
<path d="M3733 9935 c9 -14 13 -41 10 -60 -4 -24 4 -31 26 -23 37 15 38 27 3
73 -30 40 -63 48 -39 10z"/>
<path d="M6698 9915 c-2 -14 -1 -37 1 -52 2 -15 -6 -21 -18 -14 -11 7 -21 3
-21 -9 0 -37 48 -11 59 31 18 65 54 51 52 -20 -2 -47 5 -63 24 -56 17 6 21 -1
13 -23 -7 -18 -2 -32 11 -32 13 0 18 8 12 19 -6 10 -3 24 9 31 16 10 29 -36
24 -91 -1 -6 23 -12 52 -15 30 -2 44 3 32 11 -22 15 -68 92 -68 113 0 6 13 6
29 0 16 -6 24 -23 18 -38 -5 -14 1 -33 15 -41 17 -11 21 -6 12 17 -7 20 1 41
22 53 29 17 26 20 -20 20 -29 1 -59 10 -66 21 -7 11 -3 20 9 20 36 0 23 55
-15 65 -30 8 -35 -1 -28 -48 6 -43 0 -57 -24 -57 -37 0 -43 31 -9 52 16 10 12
22 -14 41 -46 34 -108 35 -111 2z"/>
<path d="M3292 9887 c-18 -46 -14 -61 8 -27 37 57 23 -26 -18 -107 -35 -67
-41 -71 -60 -39 -11 20 -21 27 -21 15 -1 -12 10 -32 23 -45 19 -19 19 -24 0
-24 -13 0 -24 -10 -24 -22 0 -17 7 -17 26 -1 14 12 48 16 75 9 47 -12 48 -11
14 27 -38 43 -47 77 -16 58 10 -7 29 6 41 29 12 23 31 36 41 29 10 -6 19 -2
19 10 0 11 -14 21 -32 21 -18 0 -28 11 -23 25 6 14 -2 36 -16 49 -20 19 -28
18 -37 -7z"/>
<path d="M3520 9878 c0 -60 22 -96 52 -85 15 6 28 20 28 31 0 11 -13 15 -30 9
-17 -7 -30 -1 -30 15 0 15 19 26 43 24 24 -1 47 8 51 20 4 12 -19 21 -53 21
-45 0 -61 -9 -61 -35z"/>
<path d="M6441 9884 c-25 -27 -24 -29 15 -19 24 6 44 3 44 -7 0 -10 -10 -18
-21 -18 -12 0 -16 -9 -9 -20 7 -12 31 -7 61 13 27 17 49 22 49 11 0 -11 -11
-25 -25 -31 -14 -5 -5 -11 20 -11 79 -3 48 60 -45 92 -48 16 -67 14 -89 -10z"/>
<path d="M3620 9841 c0 -10 9 -24 20 -31 12 -7 15 -21 9 -31 -6 -11 -1 -19 12
-19 14 0 19 17 13 42 -10 39 -9 39 24 10 19 -18 43 -32 52 -32 10 0 -2 18 -25
40 -45 42 -105 54 -105 21z"/>
<path d="M3793 9846 c-19 -19 -16 -86 5 -86 38 0 63 54 35 77 -14 13 -33 17
-40 9z"/>
<path d="M3420 9794 c0 -18 -14 -34 -31 -34 -24 0 -26 -8 -9 -40 12 -23 16
-52 9 -65 -6 -14 2 -8 19 14 42 51 59 30 20 -26 -17 -24 -39 -38 -49 -32 -11
6 -19 -2 -19 -18 0 -16 14 -34 30 -40 20 -8 30 1 30 28 0 21 9 39 20 39 11 0
20 14 20 30 0 17 8 30 18 30 27 0 16 43 -23 100 -27 38 -35 41 -35 14z"/>
<path d="M6065 9760 c-12 -28 -12 -53 -2 -57 9 -3 13 -14 7 -22 -5 -9 4 -28
20 -41 34 -29 41 56 11 130 -16 38 -18 38 -36 -10z"/>
<path d="M6305 9769 c-36 -39 -32 -44 35 -41 36 1 60 13 60 29 0 16 -12 23
-29 16 -15 -6 -31 -3 -35 6 -3 9 -17 5 -31 -10z"/>
<path d="M3600 9752 c0 -15 14 -33 32 -40 18 -7 27 -25 21 -42 -7 -17 -3 -30
8 -30 10 0 19 -13 19 -30 0 -16 14 -30 30 -30 17 0 30 -10 30 -23 0 -13 6 -18
14 -10 7 7 -7 32 -30 54 -38 35 -52 72 -48 120 1 6 -16 22 -37 35 -32 20 -39
19 -39 -4z"/>
<path d="M6420 9759 c0 -11 20 -19 45 -20 43 0 44 -1 7 -29 -21 -16 -46 -24
-55 -18 -9 6 -17 -4 -17 -21 0 -17 9 -31 20 -31 11 0 20 8 20 18 0 31 78 39
102 10 32 -39 65 -35 49 6 -11 30 -8 30 28 -3 22 -20 35 -44 29 -54 -6 -9 0
-17 12 -17 14 0 17 -26 9 -75 -6 -41 -5 -65 5 -53 9 13 51 20 93 17 71 -5 74
-3 36 23 -23 16 -52 26 -66 23 -13 -3 -28 11 -32 30 -4 19 2 35 15 35 12 0 17
-9 10 -20 -7 -11 -4 -20 7 -20 71 0 -7 124 -81 129 -8 1 -33 17 -55 36 -22 18
-54 29 -71 22 -16 -6 -30 -3 -30 7 0 9 -18 19 -40 21 -22 1 -40 -6 -40 -16z"/>
<path d="M6605 9748 c6 -6 24 -13 39 -15 46 -7 157 -95 145 -115 -6 -10 -2
-18 10 -18 11 0 21 -15 21 -34 0 -29 4 -29 29 5 15 22 20 42 10 46 -11 3 -19
19 -19 35 0 15 -7 27 -15 26 -37 -6 -65 4 -65 23 0 12 10 15 23 7 15 -9 18 -5
8 10 -10 17 -22 18 -40 2 -20 -15 -29 -13 -38 9 -7 17 -36 31 -66 31 -29 0
-48 -5 -42 -12z"/>
<path d="M3525 9670 c5 -27 2 -50 -8 -50 -9 0 -17 -16 -17 -34 0 -28 6 -26 32
11 18 25 27 51 20 57 -6 7 -2 24 11 39 17 21 14 27 -13 27 -26 0 -32 -12 -25
-50z"/>
<path d="M3871 9702 c-6 -11 2 -32 18 -48 16 -16 26 -33 22 -37 -4 -4 7 -20
24 -36 28 -26 30 -24 20 15 -6 24 -3 49 7 55 35 22 18 45 -25 34 -30 -8 -39
-4 -29 12 8 13 5 23 -6 23 -11 0 -25 -8 -31 -18z"/>
<path d="M3583 9629 c-15 -33 -16 -47 -2 -39 13 9 16 -5 8 -38 -10 -40 -6 -52
19 -52 18 0 32 8 32 19 0 10 16 22 35 27 28 7 26 10 -8 12 -47 2 -72 45 -54
92 19 51 -5 33 -30 -21z"/>
<path d="M3770 9639 c4 -55 70 -124 70 -73 0 19 -15 34 -35 34 -29 1 -30 4 -6
19 20 12 35 11 44 -4 8 -13 21 -17 29 -9 16 16 -48 72 -84 73 -12 1 -20 -17
-18 -40z"/>
<path d="M4001 9651 c-14 -17 -17 -40 -8 -55 23 -35 80 -37 80 -3 0 18 -13 23
-36 16 -42 -13 -49 11 -13 47 13 13 19 24 12 24 -6 0 -22 -13 -35 -29z"/>
<path d="M6470 9640 c-6 -10 -1 -40 12 -65 19 -37 18 -41 -4 -20 -35 34 -58
31 -58 -6 0 -17 9 -26 20 -19 11 7 20 4 20 -5 0 -10 14 -18 30 -18 18 0 30 18
30 46 0 26 -9 47 -20 47 -11 0 -20 10 -20 21 0 12 9 16 20 9 11 -7 20 -3 20 9
0 26 -34 28 -50 1z"/>
<path d="M6194 9591 c5 -23 11 -62 13 -87 2 -25 17 -54 33 -64 39 -25 66 -25
50 0 -7 11 -3 20 8 20 11 0 25 -9 32 -20 7 -11 3 -20 -9 -20 -11 0 -21 -9 -21
-20 0 -11 14 -20 30 -20 17 0 30 9 30 19 0 11 16 14 35 7 33 -12 32 -10 -1 29
-28 31 -30 43 -10 51 15 6 8 12 -16 12 -26 1 -55 28 -79 70 -41 77 -112 94
-95 23z"/>
<path d="M4394 9395 c83 -124 158 -228 168 -232 10 -3 18 -15 18 -25 0 -39
228 -358 255 -358 23 0 25 6 8 27 -13 15 -16 34 -8 43 8 9 4 10 -9 3 -42 -24
-96 80 -64 122 22 30 22 31 -2 10 -37 -33 -60 -32 -60 3 0 15 -13 38 -29 51
-26 22 -26 31 2 78 23 40 24 44 2 18 -33 -40 -55 -45 -55 -14 0 12 -11 34 -25
50 -59 66 -72 85 -64 97 5 7 3 8 -4 2 -13 -9 -107 114 -107 140 0 7 -11 25
-25 41 -57 63 -76 89 -66 89 6 0 -7 18 -29 40 -74 74 -57 41 94 -185z"/>
<path d="M6034 9607 c-7 -7 -4 -29 7 -49 16 -30 14 -35 -13 -25 -28 11 -29 7
-10 -29 26 -49 62 -75 62 -45 0 11 -11 21 -25 22 -14 0 -9 9 10 21 19 11 35
32 35 47 0 32 -49 75 -66 58z"/>
<path d="M6589 9551 c-26 -19 -32 -35 -19 -48 13 -13 32 -3 56 29 40 54 22 63
-37 19z"/>
<path d="M3274 9532 c-32 -25 -32 -29 -3 -40 48 -18 73 -15 59 8 -7 11 2 20
19 20 17 0 31 -10 31 -23 0 -13 7 -17 15 -9 40 41 -72 81 -121 44z"/>
<path d="M3446 9547 c8 -7 4 -25 -8 -39 -30 -37 -3 -108 42 -108 20 0 41 -11
46 -25 7 -19 15 -19 37 3 17 18 18 23 2 14 -32 -18 -33 12 -1 44 19 19 19 29
0 48 -19 19 -24 14 -24 -20 0 -46 -15 -52 -68 -32 -47 18 -39 53 8 38 23 -7
40 -4 40 9 0 11 -9 21 -20 21 -11 0 -20 14 -20 30 0 17 -10 30 -23 30 -13 0
-18 -6 -11 -13z"/>
<path d="M3900 9523 c0 -12 -13 -23 -30 -23 -16 0 -30 -9 -30 -20 0 -11 -10
-20 -22 -20 -12 0 -17 14 -11 30 7 17 3 30 -8 30 -10 0 -19 -11 -19 -25 -1
-17 -7 -15 -20 5 -14 22 -19 23 -20 4 0 -15 -8 -21 -18 -15 -10 6 -13 -8 -7
-32 8 -30 4 -39 -12 -29 -13 8 -23 34 -23 58 -1 35 -5 38 -19 15 -10 -16 -12
-39 -5 -50 7 -12 11 -43 10 -71 -2 -30 1 -36 7 -15 9 32 32 44 71 38 8 -2 9
11 3 27 -8 22 -2 27 21 18 53 -20 169 9 164 42 -5 37 -32 64 -32 33z"/>
<path d="M3240 9454 c0 -18 11 -34 25 -34 18 -1 18 -5 -2 -18 -19 -12 -21 -21
-5 -31 32 -19 27 -44 -8 -44 -16 0 -30 7 -30 16 0 10 -9 17 -20 17 -45 0 -15
-34 57 -66 98 -43 110 -43 97 6 -7 27 0 40 20 40 19 0 26 -11 19 -30 -7 -16
-4 -30 5 -30 10 0 22 17 27 37 8 32 -2 38 -63 37 -46 0 -70 8 -67 24 3 13 -8
44 -25 68 -25 36 -30 37 -30 8z"/>
<path d="M6468 9425 c3 -57 50 -156 51 -109 1 15 8 22 17 17 9 -6 29 -2 45 8
22 14 15 18 -26 19 -45 0 -55 9 -55 49 0 27 -8 54 -18 60 -9 6 -16 -14 -14
-44z"/>
<path d="M3928 9440 c-29 -11 -43 -35 -43 -70 0 -38 8 -49 29 -41 16 6 36 11
45 11 9 0 15 27 14 60 -1 33 -3 59 -3 59 0 -1 -19 -9 -42 -19z"/>
<path d="M4020 9427 c0 -16 9 -24 20 -17 11 7 20 -1 20 -17 0 -16 6 -46 14
-66 12 -33 9 -34 -20 -10 -36 29 -94 18 -94 -17 0 -15 12 -15 40 0 31 17 40
15 40 -8 0 -16 -11 -33 -25 -38 -19 -7 -19 -15 -2 -33 25 -27 12 -107 -15 -90
-10 6 -12 -5 -4 -24 12 -31 15 -30 33 9 10 24 27 44 36 44 9 0 18 16 19 35 1
26 5 24 15 -9 12 -40 16 -41 53 -12 32 25 33 29 5 19 -24 -8 -35 -1 -35 20 0
22 -12 28 -40 21 -49 -13 -52 15 -5 50 56 42 53 122 -5 149 -41 19 -50 18 -50
-6z"/>
<path d="M3094 9387 c-24 -24 -15 -42 27 -53 30 -8 40 -2 35 21 -7 35 -41 53
-62 32z"/>
<path d="M3530 9337 c-55 -20 -75 -32 -45 -27 31 6 55 2 55 -10 0 -11 16 -20
35 -20 28 1 29 4 7 18 -21 14 -18 21 15 31 24 8 43 22 43 32 0 11 -2 18 -5 17
-3 -2 -50 -20 -105 -41z"/>
<path d="M3731 9359 c7 -11 29 -15 49 -9 45 14 97 -60 55 -77 -15 -6 -11 -10
10 -11 43 -2 44 16 4 74 -31 43 -145 66 -118 23z"/>
<path d="M6150 9330 c22 -17 39 -38 37 -46 -5 -22 39 -4 81 33 37 32 37 31 24
-27 -8 -38 -7 -50 5 -33 23 35 44 2 34 -53 -6 -32 0 -39 24 -29 21 8 27 4 17
-12 -8 -12 -5 -23 7 -23 11 0 21 10 21 21 0 12 7 17 16 12 27 -17 66 18 65 59
-1 79 -8 108 -25 108 -23 0 -12 -66 14 -85 12 -9 10 -15 -6 -15 -15 0 -21 -8
-15 -18 6 -9 -7 -22 -29 -28 -29 -7 -40 0 -40 26 0 20 -14 41 -31 48 -20 7
-27 26 -20 48 14 44 -60 56 -77 12 -10 -26 -20 -25 -77 2 -59 29 -62 29 -25 0z"/>
<path d="M3643 9302 c-14 -9 -28 -24 -30 -34 -2 -10 -9 -16 -16 -14 -7 3 -18
-8 -24 -24 -8 -19 -1 -24 22 -15 27 10 25 2 -8 -46 -53 -75 -77 -149 -48 -149
11 0 21 14 21 31 0 19 9 26 23 17 15 -9 18 -5 8 10 -26 43 45 126 88 102 55
-29 67 -25 55 19 -7 27 2 43 28 52 41 13 53 69 15 69 -13 0 -18 -6 -10 -13 7
-7 -5 -26 -26 -41 -25 -17 -35 -40 -27 -62 9 -26 6 -29 -13 -11 -14 13 -26 46
-28 75 -2 29 -3 52 -3 52 0 0 -12 -8 -27 -18z"/>
<path d="M3900 9280 c0 -11 8 -20 18 -20 10 0 23 -14 29 -30 10 -26 5 -27 -29
-9 -37 20 -39 18 -19 -19 47 -89 100 -45 58 47 -23 51 -57 69 -57 31z"/>
<path d="M3838 9138 c23 -19 42 -44 42 -56 0 -15 13 -14 40 3 39 24 39 25 -10
42 -28 9 -46 23 -42 30 5 8 -9 14 -31 14 -40 0 -40 0 1 -33z"/>
<path d="M4313 9167 c-28 -29 -10 -78 36 -100 38 -17 51 -16 59 5 7 19 -5 28
-37 28 -37 0 -45 8 -37 40 11 41 3 51 -21 27z"/>
<path d="M3620 9144 c0 -9 9 -25 21 -37 22 -22 5 -87 -23 -87 -10 0 -18 -10
-18 -21 0 -12 8 -16 18 -10 16 10 47 -91 32 -105 -12 -13 -88 83 -78 99 6 9 1
17 -11 17 -29 0 -27 -51 4 -84 32 -34 43 -96 16 -96 -12 0 -21 14 -21 30 0 22
-21 30 -75 29 -58 -1 -66 -5 -35 -18 22 -8 51 -11 65 -6 14 5 25 0 25 -11 0
-11 -11 -26 -25 -32 -17 -7 -15 -10 5 -9 63 4 82 -4 68 -26 -8 -14 -5 -18 7
-10 12 7 19 36 16 63 -3 28 2 50 12 50 9 0 17 -13 17 -30 0 -64 34 -26 36 41
2 39 9 81 17 93 8 13 4 17 -10 8 -15 -9 -23 1 -23 27 0 56 14 52 58 -20 28
-46 40 -54 49 -31 6 17 3 36 -8 42 -11 7 -6 32 12 59 25 38 26 50 5 62 -14 9
-20 8 -12 0 8 -9 6 -33 -5 -53 -22 -42 -82 -29 -66 14 7 18 -2 28 -26 28 -31
1 -32 4 -7 20 26 17 25 19 -5 20 -19 0 -35 -7 -35 -16z"/>
<path d="M3158 9075 c-14 -36 -29 -74 -33 -85 -5 -11 1 -7 11 8 21 30 84 17
84 -17 0 -11 -14 -14 -32 -8 -24 10 -30 2 -25 -35 3 -26 -2 -61 -12 -78 -14
-24 -12 -25 10 -5 32 30 87 34 69 5 -7 -12 -1 -19 14 -15 14 3 23 -8 19 -25
-26 -108 -20 -145 9 -65 34 93 49 102 91 51 24 -29 23 -32 -8 -20 -29 11 -31
7 -11 -25 13 -20 33 -33 45 -29 24 10 40 111 16 103 -35 -11 -147 52 -137 78
13 33 -12 35 -44 3 -17 -17 -24 -18 -24 -1 0 12 8 28 18 34 39 24 38 111 -1
111 -32 0 -35 7 -17 40 12 23 13 40 3 40 -11 0 -31 -29 -45 -65z"/>
<path d="M3343 9083 c-49 -43 -60 -82 -11 -42 26 22 35 22 51 -2 16 -23 18
-21 8 9 -7 22 -1 46 13 55 16 10 17 17 4 17 -12 0 -41 -17 -65 -37z"/>
<path d="M3467 9087 c-12 -5 -18 -25 -13 -45 7 -28 -6 -39 -57 -50 -47 -9 -59
-18 -40 -30 14 -9 25 -24 23 -34 -2 -9 8 -21 21 -25 16 -5 19 7 9 37 -9 29 -7
40 6 32 12 -7 27 -3 35 9 7 12 26 17 41 11 24 -9 25 -3 6 31 -17 33 -16 46 5
59 28 18 4 22 -36 5z"/>
<path d="M3803 9001 c-32 -68 -29 -102 7 -88 17 6 29 22 28 34 -7 57 5 75 45
69 24 -3 47 4 51 16 16 48 -107 19 -131 -31z"/>
<path d="M3973 9010 c-17 -16 -51 -31 -77 -31 l-46 -2 48 -19 c36 -14 54 -12
66 6 13 20 23 18 44 -9 14 -19 39 -35 54 -34 17 0 9 16 -21 41 -40 34 -44 44
-20 59 18 11 20 19 5 19 -13 0 -37 -13 -53 -30z"/>
<path d="M4149 9011 c-22 -17 -30 -30 -19 -31 11 0 7 -9 -9 -19 -24 -15 -24
-23 -2 -49 22 -27 21 -32 -7 -32 -17 0 -32 -9 -32 -20 0 -11 -14 -20 -32 -20
-22 0 -28 11 -20 33 11 28 8 29 -18 7 -46 -38 -6 -69 64 -49 31 9 62 16 69 17
32 4 41 33 20 59 -34 40 -8 96 34 74 18 -10 50 -24 71 -30 29 -9 33 -18 16
-35 -16 -16 -30 -16 -54 4 -26 22 -29 21 -18 -7 14 -38 59 -44 79 -11 10 16
19 14 31 -5 13 -20 17 -20 18 -2 0 38 -8 56 -25 50 -8 -3 -15 4 -15 15 0 11
17 20 39 20 21 0 44 8 50 19 7 11 -13 11 -53 0 -97 -28 -137 -24 -123 11 14
38 -14 38 -64 1z"/>
<path d="M3970 8921 c-7 -13 -31 -17 -52 -10 -39 12 -114 -42 -90 -65 6 -7 12
-5 12 4 0 10 13 0 28 -21 26 -36 28 -35 18 16 -7 35 -2 55 13 55 13 0 18 -9
10 -21 -7 -11 -2 -33 11 -49 13 -16 18 -37 11 -48 -6 -10 10 -44 35 -74 39
-45 49 -49 60 -22 8 22 3 29 -15 22 -15 -6 -33 -1 -40 11 -7 11 -2 21 13 21
16 0 18 6 6 15 -55 41 -65 95 -24 130 22 19 35 40 29 46 -6 7 -17 2 -25 -10z"/>
<path d="M3060 8841 c0 -12 11 -21 25 -21 17 -1 15 -7 -5 -20 -20 -13 -22 -19
-5 -20 14 0 25 -14 25 -31 0 -17 9 -26 21 -18 14 8 12 23 -5 44 -22 27 -20 29
19 17 64 -21 56 2 -15 38 -34 18 -60 22 -60 11z"/>
<path d="M4202 8807 c-18 -40 -30 -47 -47 -30 -13 13 -32 23 -44 23 -12 0 -9
-8 6 -18 22 -14 20 -25 -15 -60 -33 -33 -35 -42 -11 -42 16 0 38 20 48 45 10
25 19 34 20 21 0 -14 21 -6 47 20 26 24 44 50 40 57 -3 8 5 18 19 24 16 6 14
10 -7 11 -17 1 -42 -22 -56 -51z"/>
<path d="M3713 8812 c-14 -37 41 -58 84 -33 21 13 24 20 7 20 -15 1 -21 10
-14 21 7 11 -5 20 -27 20 -21 0 -44 -13 -50 -28z"/>
<path d="M4294 8780 c6 -22 19 -46 28 -51 38 -24 17 -50 -23 -29 -38 21 -39
19 -15 -18 15 -24 32 -34 43 -23 10 10 29 14 43 8 14 -5 30 5 37 22 6 17 3 31
-8 31 -10 0 -19 -10 -19 -23 0 -13 -6 -18 -13 -11 -7 7 0 28 15 46 25 30 23
32 -17 20 -37 -12 -45 -7 -45 27 0 22 -8 41 -18 41 -10 0 -14 -18 -8 -40z"/>
<path d="M1480 7980 l0 -120 70 0 c79 0 150 57 150 120 0 63 -71 120 -150 120
l-70 0 0 -120z"/>
<path d="M3312 7922 c-33 -36 -34 -43 -6 -53 55 -21 99 16 68 58 -24 34 -27
34 -62 -5z"/>
<path d="M4660 8050 c0 -52 36 -66 74 -28 32 32 10 78 -36 78 -27 0 -38 -14
-38 -50z"/>
</g>
</svg>
