 <svg  version="1.0" xmlns="http://www.w3.org/2000/svg"  width="601.000000pt" height="538.000000pt" viewBox="0 0 601.000000 538.000000"  preserveAspectRatio="xMidYMid meet">  <g transform="translate(0.000000,538.000000) scale(0.100000,-0.100000)" fill="#38b7a6" stroke="none"> <path d="M777 4983 c-4 -3 -7 -793 -7 -1755 l0 -1748 305 0 305 0 0 1755 0 1755 -298 0 c-164 0 -302 -3 -305 -7z"/> <path d="M1895 4970 c-212 -7 -323 -16 -344 -29 -8 -5 -10 -189 -9 -682 l3 -674 68 110 c37 61 123 198 191 305 67 107 233 372 369 588 l246 392 -157 -2 c-86 -1 -251 -5 -367 -8z"/> <path d="M2705 4214 c-351 -525 -447 -663 -485 -692 -26 -21 -86 -65 -133 -100 -48 -34 -87 -67 -87 -72 0 -5 61 -53 136 -107 l136 -98 500 -735 c275 -404 505 -740 512 -747 8 -9 31 1 97 46 396 264 634 722 683 1314 l5 57 -777 0 -777 0 -23 34 c-14 20 -84 73 -182 137 -88 57 -160 106 -160 109 1 3 22 18 48 35 169 106 270 178 291 210 l24 35 763 0 c692 0 764 1 764 16 0 42 -45 231 -80 337 -100 301 -286 560 -512 715 -65 44 -281 161 -299 162 -3 0 -203 -295 -444 -656z"/> <path d="M1540 2228 l0 -747 43 -5 c126 -17 932 -44 961 -33 13 5 -90 166 -485 759 -276 414 -505 757 -510 763 -5 5 -9 -303 -9 -737z"/> </g> </svg> 