 <svg  version="1.0" xmlns="http://www.w3.org/2000/svg"  width="300.000000pt" height="322.000000pt" viewBox="0 0 300.000000 322.000000"  preserveAspectRatio="xMidYMid meet">  <g transform="translate(0.000000,322.000000) scale(0.100000,-0.100000)" fill="#38b7a6" stroke="none"> <path d="M50 1645 l0 -1555 270 0 270 0 0 1555 0 1555 -270 0 -270 0 0 -1555z"/> <path d="M1095 3190 c-205 -7 -305 -14 -347 -26 -17 -5 -18 -42 -18 -602 0 -374 4 -592 9 -587 9 9 77 116 534 845 88 140 167 266 176 280 10 14 28 42 40 63 l23 37 -99 -2 c-54 -1 -197 -4 -318 -8z"/> <path d="M1762 2512 l-393 -587 -115 -84 c-63 -46 -113 -88 -112 -93 2 -6 57 -49 122 -97 l119 -86 156 -230 c208 -306 743 -1089 745 -1092 8 -9 172 113 244 182 249 236 404 592 438 1003 l7 82 -689 0 -689 0 -20 29 c-11 17 -84 71 -162 122 -79 51 -143 94 -143 95 0 2 64 46 143 98 84 55 150 106 162 125 l20 31 678 0 c483 0 677 3 677 11 0 6 -9 54 -20 107 -69 338 -232 619 -462 794 -74 56 -198 128 -278 162 l-36 15 -392 -587z"/> <path d="M730 752 l0 -661 43 -5 c148 -19 857 -36 857 -21 0 6 -853 1287 -882 1324 -18 23 -18 7 -18 -637z"/> </g> </svg> 